{
.appVersion = "1352";
classes = (
{
automatic = 1;

glyphs = (
{
glyphname = A;
lastChange = "2021-03-19 18:43:07 +0000";
layers = (
{
anchors = (
{
name = bottom;
position = "{636, 0}";
},
{
name = ogonek;
position = "{1050, -20}";
},
{
name = top;
position = "{636, 1400}";
}
);
layerId = "3BB16070-9AE0-46D6-9B05-19A363C2D547";
paths = (
{
closed = 1;
nodes = (
"208 0 LINE",
"344 394 LINE",
"928 394 LINE",
"1064 0 LINE",
"1142 0 LINE",
"662 1400 LINE",
"610 1400 LINE",
"130 0 LINE"
);
},
{
closed = 1;
nodes = (
"564 1052 LINE SMOOTH",
"574 1080 OFFCURVE",
"622 1216 OFFCURVE",
"636 1274 CURVE",
"650 1216 OFFCURVE",
"696 1080 OFFCURVE",
"706 1052 CURVE SMOOTH",
"910 454 LINE",
"362 454 LINE"
);
}
);
width = 1272;
},
{
anchors = (
{
name = bottom;
position = "{742, 0}";
},
{
name = ogonek;
position = "{1308, 0}";
},
{
name = top;
position = "{742, 1400}";
}
);
layerId = "1D708A55-1947-4475-A0A3-21124B6DD42B";
paths = (
{
closed = 1;
nodes = (
"378 0 LINE",
"480 266 LINE",
"1002 266 LINE",
"1106 0 LINE",
"1452 0 LINE",
"892 1400 LINE",
"590 1400 LINE",
"32 0 LINE"
);
},
{
closed = 1;
nodes = (
"700 838 LINE SMOOTH",
"712 866 OFFCURVE",
"730 908 OFFCURVE",
"740 940 CURVE",
"750 908 OFFCURVE",
"768 866 OFFCURVE",
"780 838 CURVE SMOOTH",
"894 558 LINE",
"586 558 LINE"
);
}
);
width = 1484;
},
{
anchors = (
{
name = bottom;
position = "{604, 0}";
},
{
name = ogonek;
position = "{1094, 0}";
},
{
name = top;
position = "{850, 1400}";
}
);
layerId = "42555ED7-786B-4551-A9FC-B380F510FD49";
paths = (
{
closed = 1;
nodes = (
"196 0 LINE",
"396 394 LINE",
"964 394 LINE",
"1030 0 LINE",
"1104 0 LINE",
"878 1400 LINE",
"826 1400 LINE",
"116 0 LINE"
);
},
{
closed = 1;
nodes = (
"730 1060 LINE SMOOTH",
"746 1092 OFFCURVE",
"810 1228 OFFCURVE",
"830 1280 CURVE",
"834 1228 OFFCURVE",
"858 1092 OFFCURVE",
"864 1058 CURVE SMOOTH",
"956 454 LINE",
"424 454 LINE"
);
}
);
width = 1276;
},
{
anchors = (
{
name = bottom;
position = "{712, 0}";
},
{
name = ogonek;
position = "{1260, 0}";
},
{
name = top;
position = "{960, 1400}";
}
);
layerId = "DEEEE81F-2F80-4306-8755-EEA92C96C68A";
paths = (
{
closed = 1;
nodes = (
"356 0 LINE",
"504 272 LINE",
"1020 272 LINE",
"1072 0 LINE",
"1384 0 LINE",
"1106 1400 LINE",
"802 1400 LINE",
"30 0 LINE"
);
},
{
closed = 1;
nodes = (
"838 902 LINE SMOOTH",
"852 926 OFFCURVE",
"880 982 OFFCURVE",
"890 1006 CURVE",
"892 984 OFFCURVE",
"904 918 OFFCURVE",
"908 896 CURVE SMOOTH",
"972 550 LINE",
"646 550 LINE"
);
}
);
width = 1400;
},
{
anchors = (
{
name = bottom;
position = "{678, 0}";
},
{
name = ogonek;
position = "{1104, -20}";
},
{
name = top;
position = "{678, 1400}";
}
);
layerId = "07B4BFD6-AD6C-43B6-9499-C92B9E22D320";
paths = (
{
closed = 1;
nodes = (
"284 0 LINE",
"402 342 LINE",
"958 342 LINE",
"1078 0 LINE",
"1256 0 LINE",
"760 1400 LINE",
"598 1400 LINE",
"102 0 LINE"
);
},
{
closed = 1;
nodes = (
"636 1014 LINE SMOOTH",
"650 1054 OFFCURVE",
"670 1120 OFFCURVE",
"680 1156 CURVE",
"688 1120 OFFCURVE",
"710 1054 OFFCURVE",
"724 1014 CURVE SMOOTH",
"904 496 LINE",
"454 496 LINE"
);
}
);
width = 1358;
},
{
anchors = (
{
name = bottom;
position = "{646, 0}";
},
{
name = ogonek;
position = "{1152, 0}";
},
{
name = top;
position = "{890, 1400}";
}
);
layerId = "77C27521-0479-4645-83A2-7244263DD4C5";
paths = (
{
closed = 1;
nodes = (
"274 0 LINE",
"450 344 LINE",
"974 344 LINE",
"1030 0 LINE",
"1202 0 LINE",
"966 1400 LINE",
"816 1400 LINE",
"92 0 LINE"
);
},
{
closed = 1;
nodes = (
"792 1018 LINE SMOOTH",
"810 1050 OFFCURVE",
"838 1114 OFFCURVE",
"848 1138 CURVE",
"850 1114 OFFCURVE",
"860 1048 OFFCURVE",
"866 1016 CURVE SMOOTH",
"950 498 LINE",
"528 498 LINE"
);
}
);
width = 1296;
}
);
leftKerningGroup = A;
rightKerningGroup = A;
unicode = 0041;
},
{
color = 4;
glyphname = "Alpha-latin";
lastChange = "2020-12-31 20:48:53 +0000";
layers = (
{
anchors = (
{
name = bottom;
position = "{712, 0}";
},
{
name = top;
position = "{712, 1400}";
}
);
background = {
paths = (
{
closed = 1;
nodes = (
"943 -24 OFFCURVE",
"1092 87 OFFCURVE",
"1160 244 CURVE",
"1160 371 LINE",
"1107 225 OFFCURVE",
"967 48 OFFCURVE",
"726 48 CURVE SMOOTH",
"368 48 OFFCURVE",
"248 368 OFFCURVE",
"248 700 CURVE SMOOTH",
"248 1004 OFFCURVE",
"368 1352 OFFCURVE",
"726 1352 CURVE SMOOTH",
"962 1352 OFFCURVE",
"1107 1174 OFFCURVE",
"1160 1024 CURVE",
"1160 1163 LINE",
"1101 1304 OFFCURVE",
"958 1424 OFFCURVE",
"716 1424 CURVE SMOOTH",
"316 1424 OFFCURVE",
"170 1046 OFFCURVE",
"170 700 CURVE SMOOTH",
"170 354 OFFCURVE",
"316 -24 OFFCURVE",
"716 -24 CURVE SMOOTH"
);
},
{
closed = 1;
nodes = (
"1203 0 LINE",
"1203 1400 LINE",
"1131 1400 LINE",
"1131 0 LINE"
);
}
);
};
layerId = "3BB16070-9AE0-46D6-9B05-19A363C2D547";
paths = (
{
closed = 1;
nodes = (
"915 -24 OFFCURVE",
"1054 61 OFFCURVE",
"1131 188 CURVE",
"1131 0 LINE",
"1203 0 LINE",
"1203 1400 LINE",
"1131 1400 LINE",
"1131 1219 LINE",
"1060 1335 OFFCURVE",
"925 1424 OFFCURVE",
"716 1424 CURVE SMOOTH",
"316 1424 OFFCURVE",
"170 1046 OFFCURVE",
"170 700 CURVE SMOOTH",
"170 354 OFFCURVE",
"316 -24 OFFCURVE",
"716 -24 CURVE SMOOTH"
);
},
{
closed = 1;
nodes = (
"368 48 OFFCURVE",
"248 368 OFFCURVE",
"248 700 CURVE SMOOTH",
"248 1004 OFFCURVE",
"368 1352 OFFCURVE",
"726 1352 CURVE SMOOTH",
"928 1352 OFFCURVE",
"1063 1222 OFFCURVE",
"1131 1091 CURVE",
"1131 305 LINE",
"1064 177 OFFCURVE",
"932 48 OFFCURVE",
"726 48 CURVE SMOOTH"
);
}
);
width = 1423;
},
{
anchors = (
{
name = bottom;
position = "{741, 0}";
},
{
name = top;
position = "{741, 1400}";
}
);
background = {
paths = (
{
closed = 1;
nodes = (
"952 -24 OFFCURVE",
"1091 71 OFFCURVE",
"1174 210 CURVE",
"1174 1190 LINE",
"1091 1329 OFFCURVE",
"952 1424 OFFCURVE",
"730 1424 CURVE SMOOTH",
"290 1424 OFFCURVE",
"136 1046 OFFCURVE",
"136 700 CURVE SMOOTH",
"136 354 OFFCURVE",
"290 -24 OFFCURVE",
"730 -24 CURVE SMOOTH"
);
},
{
closed = 1;
nodes = (
"424 140 OFFCURVE",
"316 426 OFFCURVE",
"316 700 CURVE SMOOTH",
"316 954 OFFCURVE",
"424 1262 OFFCURVE",
"750 1262 CURVE SMOOTH",
"1068 1262 OFFCURVE",
"1174 1024 OFFCURVE",
"1174 700 CURVE SMOOTH",
"1174 398 OFFCURVE",
"1068 140 OFFCURVE",
"750 140 CURVE SMOOTH"
);
},
{
closed = 1;
nodes = (
"1286 0 LINE",
"1286 1400 LINE",
"1112 1400 LINE",
"1112 0 LINE"
);
}
);
};
layerId = "07B4BFD6-AD6C-43B6-9499-C92B9E22D320";
paths = (
{
closed = 1;
nodes = (
"894 -24 OFFCURVE",
"1025 39 OFFCURVE",
"1092 126 CURVE",
"1092 0 LINE",
"1266 0 LINE",
"1266 1400 LINE",
"1092 1400 LINE",
"1092 1274 LINE",
"1027 1361 OFFCURVE",
"898 1424 OFFCURVE",
"730 1424 CURVE SMOOTH",
"290 1424 OFFCURVE",
"136 1046 OFFCURVE",
"136 700 CURVE SMOOTH",
"136 354 OFFCURVE",
"290 -24 OFFCURVE",
"730 -24 CURVE SMOOTH"
);
},
{
closed = 1;
nodes = (
"424 140 OFFCURVE",
"316 426 OFFCURVE",
"316 700 CURVE SMOOTH",
"316 954 OFFCURVE",
"424 1262 OFFCURVE",
"750 1262 CURVE SMOOTH",
"916 1262 OFFCURVE",
"1030 1190 OFFCURVE",
"1092 1107 CURVE",
"1092 293 LINE",
"1030 219 OFFCURVE",
"916 140 OFFCURVE",
"750 140 CURVE SMOOTH"
);
}
);
width = 1462;
},
{
anchors = (
{
name = bottom;
position = "{716, 0}";
},
{
name = top;
position = "{716, 1400}";
}
);
background = {
paths = (
{
closed = 1;
nodes = (
"907 -24 OFFCURVE",
"1046 82 OFFCURVE",
"1144 234 CURVE",
"1144 1166 LINE",
"1046 1318 OFFCURVE",
"927 1424 OFFCURVE",
"718 1424 CURVE SMOOTH",
"266 1424 OFFCURVE",
"96 1046 OFFCURVE",
"96 700 CURVE SMOOTH",
"96 354 OFFCURVE",
"266 -24 OFFCURVE",
"718 -24 CURVE SMOOTH"
);
},
{
closed = 1;
nodes = (
"498 282 OFFCURVE",
"424 512 OFFCURVE",
"424 700 CURVE SMOOTH",
"424 882 OFFCURVE",
"494 1120 OFFCURVE",
"738 1120 CURVE SMOOTH",
"940 1120 OFFCURVE",
"1080 972 OFFCURVE",
"1080 700 CURVE SMOOTH",
"1080 418 OFFCURVE",
"932 282 OFFCURVE",
"738 282 CURVE SMOOTH"
);
},
{
closed = 1;
nodes = (
"1306 0 LINE",
"1306 1400 LINE",
"990 1400 LINE",
"990 0 LINE"
);
}
);
};
layerId = "1D708A55-1947-4475-A0A3-21124B6DD42B";
paths = (
{
closed = 1;
nodes = (
"834 -24 OFFCURVE",
"929 19 OFFCURVE",
"990 95 CURVE",
"990 0 LINE",
"1306 0 LINE",
"1306 1400 LINE",
"990 1400 LINE",
"990 1305 LINE",
"938 1378 OFFCURVE",
"832 1424 OFFCURVE",
"698 1424 CURVE SMOOTH",
"266 1424 OFFCURVE",
"96 1046 OFFCURVE",
"96 700 CURVE SMOOTH",
"96 354 OFFCURVE",
"266 -24 OFFCURVE",
"698 -24 CURVE SMOOTH"
);
},
{
closed = 1;
nodes = (
"498 282 OFFCURVE",
"424 512 OFFCURVE",
"424 700 CURVE SMOOTH",
"424 882 OFFCURVE",
"494 1120 OFFCURVE",
"748 1120 CURVE SMOOTH",
"852 1120 OFFCURVE",
"935 1086 OFFCURVE",
"990 1036 CURVE",
"990 365 LINE",
"928 309 OFFCURVE",
"839 282 OFFCURVE",
"738 282 CURVE SMOOTH"
);
}
);
width = 1452;
},
{
anchors = (
{
name = bottom;
position = "{647, 0}";
},
{
name = top;
position = "{891, 1400}";
}
);
background = {
paths = (
{
closed = 1;
nodes = (
"835 -24 OFFCURVE",
"989 61 OFFCURVE",
"1089 188 CURVE",
"1056 0 LINE",
"1128 0 LINE",
"1374 1400 LINE",
"1302 1400 LINE",
"1271 1219 LINE",
"1220 1335 OFFCURVE",
"1101 1424 OFFCURVE",
"892 1424 CURVE SMOOTH",
"492 1424 OFFCURVE",
"279 1046 OFFCURVE",
"218 700 CURVE SMOOTH",
"157 354 OFFCURVE",
"236 -24 OFFCURVE",
"636 -24 CURVE SMOOTH"
);
},
{
closed = 1;
nodes = (
"301 48 OFFCURVE",
"237 368 OFFCURVE",
"296 700 CURVE SMOOTH",
"350 1004 OFFCURVE",
"531 1352 OFFCURVE",
"889 1352 CURVE SMOOTH",
"1091 1352 OFFCURVE",
"1203 1222 OFFCURVE",
"1248 1091 CURVE",
"1109 305 LINE",
"1020 177 OFFCURVE",
"865 48 OFFCURVE",
"659 48 CURVE SMOOTH"
);
}
);
};
layerId = "42555ED7-786B-4551-A9FC-B380F510FD49";
paths = (
{
closed = 1;
nodes = (
"825 -24 OFFCURVE",
"991 61 OFFCURVE",
"1091 198 CURVE",
"1056 0 LINE",
"1128 0 LINE",
"1374 1400 LINE",
"1302 1400 LINE",
"1268 1201 LINE",
"1219 1327 OFFCURVE",
"1099 1424 OFFCURVE",
"898 1424 CURVE SMOOTH",
"489 1424 OFFCURVE",
"226 973 OFFCURVE",
"226 498 CURVE SMOOTH",
"226 222 OFFCURVE",
"329 -24 OFFCURVE",
"642 -24 CURVE SMOOTH"
);
},
{
closed = 1;
nodes = (
"392 48 OFFCURVE",
"303 248 OFFCURVE",
"303 496 CURVE SMOOTH",
"303 931 OFFCURVE",
"526 1352 OFFCURVE",
"895 1352 CURVE SMOOTH",
"1094 1352 OFFCURVE",
"1204 1229 OFFCURVE",
"1249 1098 CURVE",
"1109 305 LINE",
"1020 177 OFFCURVE",
"855 48 OFFCURVE",
"665 48 CURVE SMOOTH"
);
}
);
width = 1374;
},
{
anchors = (
{
name = bottom;
position = "{701, 0}";
},
{
name = top;
position = "{938, 1400}";
}
);
background = {
paths = (
{
closed = 1;
nodes = (
"849 -24 OFFCURVE",
"991 39 OFFCURVE",
"1074 126 CURVE",
"1052 0 LINE",
"1226 0 LINE",
"1472 1400 LINE",
"1298 1400 LINE",
"1276 1274 LINE",
"1227 1361 OFFCURVE",
"1109 1424 OFFCURVE",
"941 1424 CURVE SMOOTH",
"501 1424 OFFCURVE",
"280 1046 OFFCURVE",
"219 700 CURVE SMOOTH",
"208 637 OFFCURVE",
"202 572 OFFCURVE",
"202 509 CURVE SMOOTH",
"202 228 OFFCURVE",
"325 -24 OFFCURVE",
"685 -24 CURVE SMOOTH"
);
},
{
closed = 1;
nodes = (
"473 140 OFFCURVE",
"384 324 OFFCURVE",
"384 538 CURVE SMOOTH",
"384 591 OFFCURVE",
"389 646 OFFCURVE",
"399 700 CURVE SMOOTH",
"444 954 OFFCURVE",
"606 1262 OFFCURVE",
"932 1262 CURVE SMOOTH",
"1098 1262 OFFCURVE",
"1199 1190 OFFCURVE",
"1247 1107 CURVE",
"1103 293 LINE",
"1028 219 OFFCURVE",
"900 140 OFFCURVE",
"734 140 CURVE SMOOTH"
);
}
);
};
layerId = "77C27521-0479-4645-83A2-7244263DD4C5";
paths = (
{
closed = 1;
nodes = (
"859 -24 OFFCURVE",
"987 39 OFFCURVE",
"1074 126 CURVE",
"1052 0 LINE",
"1226 0 LINE",
"1472 1400 LINE",
"1298 1400 LINE",
"1277 1279 LINE",
"1224 1360 OFFCURVE",
"1109 1424 OFFCURVE",
"941 1424 CURVE SMOOTH",
"515 1424 OFFCURVE",
"227 1007 OFFCURVE",
"227 529 CURVE SMOOTH",
"227 238 OFFCURVE",
"345 -24 OFFCURVE",
"695 -24 CURVE SMOOTH"
);
},
{
closed = 1;
nodes = (
"493 140 OFFCURVE",
"409 324 OFFCURVE",
"409 538 CURVE SMOOTH",
"409 911 OFFCURVE",
"618 1262 OFFCURVE",
"932 1262 CURVE SMOOTH",
"1098 1262 OFFCURVE",
"1199 1190 OFFCURVE",
"1247 1107 CURVE",
"1104 298 LINE",
"1029 224 OFFCURVE",
"900 140 OFFCURVE",
"734 140 CURVE SMOOTH"
);
}
);
width = 1406;
},
{
anchors = (
{
name = bottom;
position = "{679, 0}";
},
{
name = top;
position = "{926, 1400}";
}
);
background = {
paths = (
{
closed = 1;
nodes = (
"801 -24 OFFCURVE",
"904 19 OFFCURVE",
"978 95 CURVE",
"962 0 LINE",
"1278 0 LINE",
"1524 1400 LINE",
"1208 1400 LINE",
"1192 1305 LINE",
"1153 1378 OFFCURVE",
"1055 1424 OFFCURVE",
"921 1424 CURVE SMOOTH",
"489 1424 OFFCURVE",
"252 1046 OFFCURVE",
"191 700 CURVE SMOOTH",
"130 354 OFFCURVE",
"233 -24 OFFCURVE",
"665 -24 CURVE SMOOTH"
);
},
{
closed = 1;
nodes = (
"519 282 OFFCURVE",
"486 512 OFFCURVE",
"519 700 CURVE SMOOTH",
"551 882 OFFCURVE",
"663 1120 OFFCURVE",
"917 1120 CURVE SMOOTH",
"1021 1120 OFFCURVE",
"1098 1086 OFFCURVE",
"1144 1036 CURVE",
"1026 365 LINE",
"954 309 OFFCURVE",
"860 282 OFFCURVE",
"759 282 CURVE SMOOTH"
);
}
);
};
layerId = "DEEEE81F-2F80-4306-8755-EEA92C96C68A";
paths = (
{
closed = 1;
nodes = (
"803 -24 OFFCURVE",
"907 20 OFFCURVE",
"978 95 CURVE",
"962 0 LINE",
"1278 0 LINE",
"1524 1400 LINE",
"1208 1400 LINE",
"1192 1305 LINE",
"1153 1378 OFFCURVE",
"1055 1424 OFFCURVE",
"921 1424 CURVE SMOOTH",
"482 1424 OFFCURVE",
"195 996 OFFCURVE",
"195 532 CURVE SMOOTH",
"195 236 OFFCURVE",
"327 -24 OFFCURVE",
"675 -24 CURVE SMOOTH"
);
},
{
closed = 1;
nodes = (
"588 282 OFFCURVE",
"528 417 OFFCURVE",
"528 581 CURVE SMOOTH",
"528 862 OFFCURVE",
"676 1120 OFFCURVE",
"917 1120 CURVE SMOOTH",
"1021 1120 OFFCURVE",
"1095 1084 OFFCURVE",
"1141 1016 CURVE",
"1029 385 LINE",
"957 309 OFFCURVE",
"870 282 OFFCURVE",
"769 282 CURVE SMOOTH"
);
}
);
width = 1396;
}
);
leftMetricsKey = O;
rightMetricsKey = H;
unicode = 2C6D;
},
{
glyphname = Aogonek;
lastChange = "2020-09-15 16:22:47 +0000";
layers = (
{
layerId = "3BB16070-9AE0-46D6-9B05-19A363C2D547";
paths = (
{
closed = 1;
nodes = (
"1086 -468 OFFCURVE",
"1142 -424 OFFCURVE",
"1178 -380 CURVE",
"1130 -346 LINE",
"1108 -370 OFFCURVE",
"1070 -410 OFFCURVE",
"1002 -410 CURVE SMOOTH",
"942 -410 OFFCURVE",
"878 -372 OFFCURVE",
"878 -272 CURVE SMOOTH",
"878 -160 OFFCURVE",
"952 -62 OFFCURVE",
"1142 0 CURVE",
"662 1400 LINE",
"610 1400 LINE",
"130 0 LINE",
"208 0 LINE",
"344 394 LINE",
"928 394 LINE",
"1064 2 LINE",
"896 -56 OFFCURVE",
"810 -156 OFFCURVE",
"810 -272 CURVE SMOOTH",
"810 -408 OFFCURVE",
"900 -468 OFFCURVE",
"1002 -468 CURVE SMOOTH"
);
},
{
closed = 1;
nodes = (
"564 1052 LINE SMOOTH",
"574 1080 OFFCURVE",
"622 1216 OFFCURVE",
"636 1274 CURVE",
"650 1216 OFFCURVE",
"696 1080 OFFCURVE",
"706 1052 CURVE SMOOTH",
"910 454 LINE",
"362 454 LINE"
);
}
);
width = 1272;
},
{
layerId = "1D708A55-1947-4475-A0A3-21124B6DD42B";
paths = (
{
closed = 1;
nodes = (
"1302 -496 OFFCURVE",
"1372 -424 OFFCURVE",
"1410 -380 CURVE",
"1276 -286 LINE",
"1260 -308 OFFCURVE",
"1232 -324 OFFCURVE",
"1200 -324 CURVE SMOOTH",
"1172 -324 OFFCURVE",
"1142 -304 OFFCURVE",
"1142 -248 CURVE SMOOTH",
"1142 -134 OFFCURVE",
"1256 0 OFFCURVE",
"1452 0 CURVE",
"892 1400 LINE",
"590 1400 LINE",
"32 0 LINE",
"376 0 LINE",
"480 266 LINE",
"1000 266 LINE",
"1106 0 LINE",
"982 -58 OFFCURVE",
"900 -154 OFFCURVE",
"900 -272 CURVE SMOOTH",
"900 -402 OFFCURVE",
"998 -496 OFFCURVE",
"1154 -496 CURVE SMOOTH"
);
},
{
closed = 1;
nodes = (
"700 838 LINE SMOOTH",
"712 866 OFFCURVE",
"730 908 OFFCURVE",
"740 940 CURVE",
"750 908 OFFCURVE",
"768 866 OFFCURVE",
"780 838 CURVE SMOOTH",
"894 558 LINE",
"586 558 LINE"
);
}
);
width = 1484;
},
{
layerId = "42555ED7-786B-4551-A9FC-B380F510FD49";
paths = (
{
closed = 1;
nodes = (
"966 -468 OFFCURVE",
"1030 -424 OFFCURVE",
"1074 -380 CURVE",
"1032 -346 LINE",
"1006 -370 OFFCURVE",
"960 -410 OFFCURVE",
"892 -410 CURVE SMOOTH",
"840 -410 OFFCURVE",
"790 -380 OFFCURVE",
"790 -300 CURVE SMOOTH",
"790 -132 OFFCURVE",
"962 -42 OFFCURVE",
"1104 0 CURVE",
"878 1400 LINE",
"826 1400 LINE",
"116 0 LINE",
"196 0 LINE",
"396 394 LINE",
"964 394 LINE",
"1030 6 LINE",
"886 -42 OFFCURVE",
"720 -140 OFFCURVE",
"720 -312 CURVE SMOOTH",
"720 -418 OFFCURVE",
"792 -468 OFFCURVE",
"882 -468 CURVE SMOOTH"
);
},
{
closed = 1;
nodes = (
"730 1060 LINE SMOOTH",
"746 1092 OFFCURVE",
"810 1228 OFFCURVE",
"830 1280 CURVE",
"834 1228 OFFCURVE",
"858 1092 OFFCURVE",
"864 1058 CURVE SMOOTH",
"956 454 LINE",
"424 454 LINE"
);
}
);
width = 1276;
},
{
layerId = "DEEEE81F-2F80-4306-8755-EEA92C96C68A";
paths = (
{
closed = 1;
nodes = (
"1154 -494 OFFCURVE",
"1232 -432 OFFCURVE",
"1278 -388 CURVE",
"1172 -294 LINE",
"1152 -314 OFFCURVE",
"1126 -330 OFFCURVE",
"1094 -330 CURVE SMOOTH",
"1064 -330 OFFCURVE",
"1044 -312 OFFCURVE",
"1044 -270 CURVE SMOOTH",
"1044 -140 OFFCURVE",
"1202 0 OFFCURVE",
"1384 0 CURVE",
"1106 1400 LINE",
"802 1400 LINE",
"30 0 LINE",
"356 0 LINE",
"504 272 LINE",
"1022 272 LINE",
"1072 0 LINE",
"914 -70 OFFCURVE",
"812 -172 OFFCURVE",
"812 -308 CURVE SMOOTH",
"812 -418 OFFCURVE",
"888 -494 OFFCURVE",
"1022 -494 CURVE SMOOTH"
);
},
{
closed = 1;
nodes = (
"838 902 LINE SMOOTH",
"852 926 OFFCURVE",
"880 982 OFFCURVE",
"890 1006 CURVE",
"892 984 OFFCURVE",
"904 918 OFFCURVE",
"908 896 CURVE SMOOTH",
"972 550 LINE",
"646 550 LINE"
);
}
);
width = 1400;
},
{
layerId = "07B4BFD6-AD6C-43B6-9499-C92B9E22D320";
paths = (
{
closed = 1;
nodes = (
"1148 -474 OFFCURVE",
"1214 -432 OFFCURVE",
"1254 -388 CURVE",
"1164 -322 LINE",
"1146 -342 OFFCURVE",
"1116 -364 OFFCURVE",
"1068 -364 CURVE SMOOTH",
"1014 -364 OFFCURVE",
"964 -330 OFFCURVE",
"964 -254 CURVE SMOOTH",
"964 -144 OFFCURVE",
"1068 -38 OFFCURVE",
"1256 0 CURVE",
"760 1400 LINE",
"598 1400 LINE",
"102 0 LINE",
"284 0 LINE",
"402 342 LINE",
"958 342 LINE",
"1078 0 LINE",
"900 -64 OFFCURVE",
"818 -154 OFFCURVE",
"818 -272 CURVE SMOOTH",
"818 -402 OFFCURVE",
"918 -474 OFFCURVE",
"1048 -474 CURVE SMOOTH"
);
},
{
closed = 1;
nodes = (
"636 1014 LINE SMOOTH",
"650 1054 OFFCURVE",
"670 1120 OFFCURVE",
"680 1156 CURVE",
"688 1120 OFFCURVE",
"710 1054 OFFCURVE",
"724 1014 CURVE SMOOTH",
"904 496 LINE",
"454 496 LINE"
);
}
);
width = 1358;
},
{
layerId = "77C27521-0479-4645-83A2-7244263DD4C5";
paths = (
{
closed = 1;
nodes = (
"1038 -474 OFFCURVE",
"1110 -426 OFFCURVE",
"1154 -382 CURVE",
"1082 -318 LINE",
"1058 -338 OFFCURVE",
"1024 -362 OFFCURVE",
"976 -362 CURVE SMOOTH",
"934 -362 OFFCURVE",
"896 -336 OFFCURVE",
"896 -278 CURVE SMOOTH",
"896 -176 OFFCURVE",
"984 -60 OFFCURVE",
"1202 0 CURVE",
"966 1400 LINE",
"816 1400 LINE",
"92 0 LINE",
"274 0 LINE",
"450 344 LINE",
"972 344 LINE",
"1030 0 LINE",
"848 -66 OFFCURVE",
"752 -174 OFFCURVE",
"752 -308 CURVE SMOOTH",
"752 -414 OFFCURVE",
"830 -474 OFFCURVE",
"938 -474 CURVE SMOOTH"
);
},
{
closed = 1;
nodes = (
"792 1018 LINE SMOOTH",
"810 1050 OFFCURVE",
"838 1114 OFFCURVE",
"848 1138 CURVE",
"850 1116 OFFCURVE",
"862 1040 OFFCURVE",
"866 1016 CURVE SMOOTH",
"950 498 LINE",
"528 498 LINE"
);
}
);
width = 1296;
}
);
leftKerningGroup = A;
leftMetricsKey = A;
rightKerningGroup = A;
unicode = 0104;
},
{
glyphname = Aring;
lastChange = "2020-09-15 16:22:47 +0000";
layers = (
{
layerId = "3BB16070-9AE0-46D6-9B05-19A363C2D547";
paths = (
{
closed = 1;
nodes = (
"208 0 LINE",
"344 394 LINE",
"928 394 LINE",
"1064 0 LINE",
"1142 0 LINE",
"704 1278 LINE",
"798 1306 OFFCURVE",
"866 1390 OFFCURVE",
"866 1492 CURVE SMOOTH",
"866 1616 OFFCURVE",
"762 1718 OFFCURVE",
"636 1718 CURVE SMOOTH",
"510 1718 OFFCURVE",
"406 1616 OFFCURVE",
"406 1492 CURVE SMOOTH",
"406 1386 OFFCURVE",
"476 1306 OFFCURVE",
"568 1278 CURVE",
"130 0 LINE"
);
},
{
closed = 1;
nodes = (
"564 1050 LINE SMOOTH",
"574 1078 OFFCURVE",
"622 1214 OFFCURVE",
"636 1274 CURVE",
"650 1214 OFFCURVE",
"694 1084 OFFCURVE",
"706 1050 CURVE SMOOTH",
"910 454 LINE",
"362 454 LINE"
);
},
{
closed = 1;
nodes = (
"550 1330 OFFCURVE",
"474 1394 OFFCURVE",
"474 1492 CURVE SMOOTH",
"474 1592 OFFCURVE",
"550 1656 OFFCURVE",
"636 1656 CURVE SMOOTH",
"726 1656 OFFCURVE",
"798 1586 OFFCURVE",
"798 1492 CURVE SMOOTH",
"798 1400 OFFCURVE",
"726 1330 OFFCURVE",
"636 1330 CURVE SMOOTH"
);
}
);
width = 1272;
},
{
layerId = "1D708A55-1947-4475-A0A3-21124B6DD42B";
paths = (
{
closed = 1;
nodes = (
"378 0 LINE",
"480 266 LINE",
"1002 266 LINE",
"1106 0 LINE",
"1452 0 LINE",
"928 1306 LINE",
"982 1354 OFFCURVE",
"1012 1426 OFFCURVE",
"1012 1500 CURVE SMOOTH",
"1012 1648 OFFCURVE",
"886 1766 OFFCURVE",
"742 1766 CURVE SMOOTH",
"594 1766 OFFCURVE",
"472 1648 OFFCURVE",
"472 1500 CURVE SMOOTH",
"472 1426 OFFCURVE",
"506 1354 OFFCURVE",
"556 1308 CURVE",
"32 0 LINE"
);
},
{
closed = 1;
nodes = (
"700 838 LINE SMOOTH",
"714 872 OFFCURVE",
"732 918 OFFCURVE",
"740 952 CURVE",
"750 918 OFFCURVE",
"768 872 OFFCURVE",
"782 838 CURVE SMOOTH",
"896 558 LINE",
"586 558 LINE"
);
},
{
closed = 1;
nodes = (
"698 1430 OFFCURVE",
"672 1460 OFFCURVE",
"672 1500 CURVE SMOOTH",
"672 1540 OFFCURVE",
"698 1570 OFFCURVE",
"742 1570 CURVE SMOOTH",
"778 1570 OFFCURVE",
"810 1540 OFFCURVE",
"810 1500 CURVE SMOOTH",
"810 1460 OFFCURVE",
"778 1430 OFFCURVE",
"742 1430 CURVE SMOOTH"
);
}
);
width = 1484;
},
{
layerId = "42555ED7-786B-4551-A9FC-B380F510FD49";
paths = (
{
closed = 1;
nodes = (
"196 0 LINE",
"396 394 LINE",
"964 394 LINE",
"1030 0 LINE",
"1104 0 LINE",
"898 1276 LINE",
"1010 1302 OFFCURVE",
"1090 1398 OFFCURVE",
"1090 1518 CURVE SMOOTH",
"1090 1624 OFFCURVE",
"1006 1718 OFFCURVE",
"882 1718 CURVE SMOOTH",
"736 1718 OFFCURVE",
"624 1612 OFFCURVE",
"624 1468 CURVE SMOOTH",
"624 1378 OFFCURVE",
"680 1304 OFFCURVE",
"764 1278 CURVE",
"116 0 LINE"
);
},
{
closed = 1;
nodes = (
"728 1056 LINE SMOOTH",
"744 1088 OFFCURVE",
"806 1216 OFFCURVE",
"830 1280 CURVE",
"836 1220 OFFCURVE",
"858 1090 OFFCURVE",
"864 1056 CURVE SMOOTH",
"956 454 LINE",
"424 454 LINE"
);
},
{
closed = 1;
nodes = (
"756 1330 OFFCURVE",
"692 1384 OFFCURVE",
"692 1468 CURVE SMOOTH",
"692 1580 OFFCURVE",
"780 1656 OFFCURVE",
"882 1656 CURVE SMOOTH",
"962 1656 OFFCURVE",
"1022 1598 OFFCURVE",
"1022 1518 CURVE SMOOTH",
"1022 1408 OFFCURVE",
"938 1330 OFFCURVE",
"832 1330 CURVE SMOOTH"
);
}
);
width = 1276;
},
{
layerId = "DEEEE81F-2F80-4306-8755-EEA92C96C68A";
paths = (
{
closed = 1;
nodes = (
"356 -2 LINE",
"504 270 LINE",
"1020 270 LINE",
"1072 -2 LINE",
"1384 -2 LINE",
"1122 1320 LINE",
"1182 1376 OFFCURVE",
"1222 1456 OFFCURVE",
"1222 1544 CURVE SMOOTH",
"1222 1664 OFFCURVE",
"1134 1766 OFFCURVE",
"1010 1766 CURVE SMOOTH",
"850 1766 OFFCURVE",
"700 1630 OFFCURVE",
"700 1460 CURVE SMOOTH",
"700 1402 OFFCURVE",
"720 1348 OFFCURVE",
"754 1308 CURVE",
"30 -2 LINE"
);
},
{
closed = 1;
nodes = (
"838 902 LINE SMOOTH",
"852 924 OFFCURVE",
"880 982 OFFCURVE",
"890 1006 CURVE",
"894 978 OFFCURVE",
"902 924 OFFCURVE",
"908 896 CURVE SMOOTH",
"972 550 LINE",
"646 550 LINE"
);
},
{
closed = 1;
nodes = (
"910 1426 OFFCURVE",
"888 1454 OFFCURVE",
"888 1490 CURVE SMOOTH",
"888 1542 OFFCURVE",
"928 1578 OFFCURVE",
"974 1578 CURVE SMOOTH",
"1012 1578 OFFCURVE",
"1036 1550 OFFCURVE",
"1036 1514 CURVE SMOOTH",
"1036 1462 OFFCURVE",
"992 1426 OFFCURVE",
"950 1426 CURVE SMOOTH"
);
}
);
width = 1400;
},
{
layerId = "07B4BFD6-AD6C-43B6-9499-C92B9E22D320";
paths = (
{
closed = 1;
nodes = (
"284 0 LINE",
"402 342 LINE",
"958 342 LINE",
"1078 0 LINE",
"1256 0 LINE",
"800 1288 LINE",
"870 1328 OFFCURVE",
"920 1404 OFFCURVE",
"920 1490 CURVE SMOOTH",
"920 1618 OFFCURVE",
"810 1722 OFFCURVE",
"682 1722 CURVE SMOOTH",
"552 1722 OFFCURVE",
"444 1618 OFFCURVE",
"444 1490 CURVE SMOOTH",
"444 1404 OFFCURVE",
"492 1330 OFFCURVE",
"558 1288 CURVE",
"102 0 LINE"
);
},
{
closed = 1;
nodes = (
"636 1014 LINE SMOOTH",
"650 1054 OFFCURVE",
"670 1120 OFFCURVE",
"680 1156 CURVE",
"688 1120 OFFCURVE",
"710 1054 OFFCURVE",
"724 1014 CURVE SMOOTH",
"904 496 LINE",
"454 496 LINE"
);
},
{
closed = 1;
nodes = (
"626 1382 OFFCURVE",
"582 1428 OFFCURVE",
"582 1490 CURVE SMOOTH",
"582 1550 OFFCURVE",
"626 1596 OFFCURVE",
"682 1596 CURVE SMOOTH",
"738 1596 OFFCURVE",
"782 1550 OFFCURVE",
"782 1490 CURVE SMOOTH",
"782 1428 OFFCURVE",
"738 1382 OFFCURVE",
"682 1382 CURVE SMOOTH"
);
}
);
width = 1358;
},
{
layerId = "77C27521-0479-4645-83A2-7244263DD4C5";
paths = (
{
closed = 1;
nodes = (
"274 0 LINE",
"450 344 LINE",
"974 344 LINE",
"1030 0 LINE",
"1202 0 LINE",
"986 1288 LINE",
"1070 1332 OFFCURVE",
"1136 1422 OFFCURVE",
"1136 1522 CURVE SMOOTH",
"1136 1632 OFFCURVE",
"1056 1718 OFFCURVE",
"946 1718 CURVE SMOOTH",
"808 1718 OFFCURVE",
"674 1600 OFFCURVE",
"674 1452 CURVE SMOOTH",
"674 1384 OFFCURVE",
"706 1322 OFFCURVE",
"756 1288 CURVE",
"92 0 LINE"
);
},
{
closed = 1;
nodes = (
"792 1018 LINE SMOOTH",
"810 1052 OFFCURVE",
"838 1114 OFFCURVE",
"848 1138 CURVE",
"852 1108 OFFCURVE",
"860 1050 OFFCURVE",
"866 1016 CURVE SMOOTH",
"950 498 LINE",
"528 498 LINE"
);
},
{
closed = 1;
nodes = (
"838 1376 OFFCURVE",
"804 1416 OFFCURVE",
"804 1468 CURVE SMOOTH",
"804 1546 OFFCURVE",
"864 1596 OFFCURVE",
"924 1596 CURVE SMOOTH",
"974 1596 OFFCURVE",
"1008 1562 OFFCURVE",
"1008 1508 CURVE SMOOTH",
"1008 1432 OFFCURVE",
"950 1376 OFFCURVE",
"884 1376 CURVE SMOOTH"
);
}
);
width = 1296;
}
);
leftKerningGroup = A;
leftMetricsKey = A;
rightKerningGroup = A;
rightMetricsKey = A;
unicode = 00C5;
},
{
glyphname = AE;
lastChange = "2021-03-19 19:24:11 +0000";
layers = (
{
anchors = (
{
name = bottom;
position = "{850, 0}";
},
{
name = top;
position = "{930, 1400}";
}
);
layerId = "3BB16070-9AE0-46D6-9B05-19A363C2D547";
paths = (
{
closed = 1;
nodes = (
"88 0 LINE",
"314 394 LINE",
"812 394 LINE",
"812 0 LINE",
"1528 0 LINE",
"1528 66 LINE",
"884 66 LINE",
"884 692 LINE",
"1270 692 LINE",
"1270 758 LINE",
"884 758 LINE",
"884 1334 LINE",
"1484 1334 LINE",
"1484 1400 LINE",
"814 1400 LINE",
"6 0 LINE"
);
},
{
closed = 1;
nodes = (
"764 1184 LINE SMOOTH",
"780 1212 OFFCURVE",
"796 1240 OFFCURVE",
"812 1272 CURVE",
"812 454 LINE",
"346 454 LINE"
);
}
);
width = 1698;
},
{
anchors = (
{
name = bottom;
position = "{988, 0}";
},
{
name = top;
position = "{1096, 1400}";
}
);
layerId = "1D708A55-1947-4475-A0A3-21124B6DD42B";
paths = (
{
closed = 1;
nodes = (
"288 0 LINE",
"438 266 LINE",
"806 266 LINE",
"806 0 LINE",
"1802 0 LINE",
"1802 302 LINE",
"1122 302 LINE",
"1122 572 LINE",
"1444 572 LINE",
"1444 872 LINE",
"1122 872 LINE",
"1122 1100 LINE",
"1762 1100 LINE",
"1762 1400 LINE",
"760 1400 LINE",
"-52 0 LINE"
);
},
{
closed = 1;
nodes = (
"728 762 LINE SMOOTH",
"752 804 OFFCURVE",
"800 888 OFFCURVE",
"806 914 CURVE",
"806 558 LINE",
"610 558 LINE"
);
}
);
width = 1876;
},
{
anchors = (
{
name = bottom;
position = "{814, 0}";
},
{
name = top;
position = "{1114, 1400}";
}
);
layerId = "42555ED7-786B-4551-A9FC-B380F510FD49";
paths = (
{
closed = 1;
nodes = (
"52 0 LINE",
"346 394 LINE",
"836 394 LINE",
"766 0 LINE",
"1482 0 LINE",
"1494 66 LINE",
"852 66 LINE",
"962 692 LINE",
"1346 692 LINE",
"1358 758 LINE",
"974 758 LINE",
"1076 1334 LINE",
"1674 1334 LINE",
"1684 1400 LINE",
"1016 1400 LINE",
"-38 0 LINE"
);
},
{
closed = 1;
nodes = (
"912 1152 LINE SMOOTH",
"938 1186 OFFCURVE",
"962 1218 OFFCURVE",
"986 1254 CURVE",
"846 454 LINE",
"390 454 LINE"
);
}
);
width = 1674;
},
{
anchors = (
{
name = bottom;
position = "{844, 0}";
},
{
name = top;
position = "{1094, 1400}";
}
);
layerId = "DEEEE81F-2F80-4306-8755-EEA92C96C68A";
paths = (
{
closed = 1;
nodes = (
"236 0 LINE",
"434 272 LINE",
"742 272 LINE",
"692 0 LINE",
"1620 0 LINE",
"1672 290 LINE",
"1042 290 LINE",
"1090 578 LINE",
"1390 578 LINE",
"1442 866 LINE",
"1142 866 LINE",
"1186 1112 LINE",
"1776 1112 LINE",
"1826 1400 LINE",
"938 1400 LINE",
"-86 0 LINE"
);
},
{
closed = 1;
nodes = (
"784 754 LINE SMOOTH",
"810 790 OFFCURVE",
"828 818 OFFCURVE",
"844 850 CURVE",
"788 550 LINE",
"636 550 LINE"
);
}
);
width = 1674;
},
{
anchors = (
{
name = bottom;
position = "{878, 0}";
},
{
name = top;
position = "{974, 1400}";
}
);
layerId = "07B4BFD6-AD6C-43B6-9499-C92B9E22D320";
paths = (
{
closed = 1;
nodes = (
"164 0 LINE",
"358 342 LINE",
"832 342 LINE",
"832 0 LINE",
"1596 0 LINE",
"1596 166 LINE",
"1006 166 LINE",
"1006 642 LINE",
"1348 642 LINE",
"1348 806 LINE",
"1006 806 LINE",
"1006 1236 LINE",
"1552 1236 LINE",
"1552 1400 LINE",
"786 1400 LINE",
"-28 0 LINE"
);
},
{
closed = 1;
nodes = (
"760 1052 LINE SMOOTH",
"784 1094 OFFCURVE",
"812 1144 OFFCURVE",
"832 1188 CURVE",
"832 498 LINE",
"446 498 LINE"
);
}
);
width = 1722;
},
{
anchors = (
{
name = bottom;
position = "{904, 0}";
},
{
name = top;
position = "{1112, 1400}";
}
);
layerId = "77C27521-0479-4645-83A2-7244263DD4C5";
paths = (
{
closed = 1;
nodes = (
"168 0 LINE",
"416 344 LINE",
"876 344 LINE",
"816 0 LINE",
"1562 0 LINE",
"1590 158 LINE",
"1016 158 LINE",
"1100 646 LINE",
"1426 646 LINE",
"1456 804 LINE",
"1128 804 LINE",
"1206 1242 LINE",
"1738 1242 LINE",
"1764 1400 LINE",
"996 1400 LINE",
"-32 0 LINE"
);
},
{
closed = 1;
nodes = (
"950 1084 LINE SMOOTH",
"976 1120 OFFCURVE",
"1008 1166 OFFCURVE",
"1026 1198 CURVE",
"904 498 LINE",
"530 498 LINE"
);
}
);
width = 1678;
}
);
leftKerningGroup = AE;
rightKerningGroup = E;
rightMetricsKey = E;
unicode = 00C6;
},
{
glyphname = B;
lastChange = "2020-12-30 23:52:56 +0000";
layers = (
{
anchors = (
{
name = bottom;
position = "{632, 0}";
},
{
name = center;
position = "{636, 700}";
},
{
name = top;
position = "{632, 1400}";
},
{
name = topleft;
position = "{220, 1400}";
}
);
layerId = "3BB16070-9AE0-46D6-9B05-19A363C2D547";
paths = (
{
closed = 1;
nodes = (
"682 0 LINE SMOOTH",
"1000 0 OFFCURVE",
"1096 194 OFFCURVE",
"1096 376 CURVE SMOOTH",
"1096 578 OFFCURVE",
"964 714 OFFCURVE",
"776 730 CURVE",
"946 766 OFFCURVE",
"1046 898 OFFCURVE",
"1046 1052 CURVE SMOOTH",
"1046 1226 OFFCURVE",
"952 1400 OFFCURVE",
"650 1400 CURVE SMOOTH",
"220 1400 LINE",
"220 0 LINE"
);
},
{
closed = 1;
nodes = (
"292 694 LINE",
"636 694 LINE SMOOTH",
"946 694 OFFCURVE",
"1024 536 OFFCURVE",
"1024 362 CURVE SMOOTH",
"1024 212 OFFCURVE",
"952 64 OFFCURVE",
"700 64 CURVE SMOOTH",
"292 64 LINE"
);
},
{
closed = 1;
nodes = (
"292 1336 LINE",
"656 1336 LINE SMOOTH",
"914 1336 OFFCURVE",
"974 1192 OFFCURVE",
"974 1056 CURVE SMOOTH",
"974 876 OFFCURVE",
"850 758 OFFCURVE",
"612 758 CURVE SMOOTH",
"292 758 LINE"
);
}
);
width = 1264;
},
{
anchors = (
{
name = bottom;
position = "{716, 0}";
},
{
name = center;
position = "{712, 700}";
},
{
name = top;
position = "{716, 1400}";
},
{
name = topleft;
position = "{146, 1400}";
}
);
layerId = "1D708A55-1947-4475-A0A3-21124B6DD42B";
paths = (
{
closed = 1;
nodes = (
"848 0 LINE SMOOTH",
"1204 0 OFFCURVE",
"1332 216 OFFCURVE",
"1332 420 CURVE SMOOTH",
"1332 530 OFFCURVE",
"1278 674 OFFCURVE",
"1132 730 CURVE",
"1250 784 OFFCURVE",
"1286 896 OFFCURVE",
"1286 1020 CURVE SMOOTH",
"1286 1210 OFFCURVE",
"1170 1400 OFFCURVE",
"822 1400 CURVE SMOOTH",
"146 1400 LINE",
"146 0 LINE"
);
},
{
closed = 1;
nodes = (
"462 574 LINE",
"808 574 LINE SMOOTH",
"978 574 OFFCURVE",
"1012 498 OFFCURVE",
"1012 428 CURVE SMOOTH",
"1012 372 OFFCURVE",
"976 298 OFFCURVE",
"862 298 CURVE SMOOTH",
"462 298 LINE"
);
},
{
closed = 1;
nodes = (
"462 1104 LINE",
"824 1104 LINE SMOOTH",
"944 1104 OFFCURVE",
"964 1040 OFFCURVE",
"964 982 CURVE SMOOTH",
"964 906 OFFCURVE",
"912 858 OFFCURVE",
"792 858 CURVE SMOOTH",
"462 858 LINE"
);
}
);
width = 1426;
},
{
anchors = (
{
name = bottom;
position = "{542, 0}";
},
{
name = center;
position = "{668, 700}";
},
{
name = top;
position = "{788, 1400}";
},
{
name = topleft;
position = "{420, 1400}";
}
);
layerId = "42555ED7-786B-4551-A9FC-B380F510FD49";
paths = (
{
closed = 1;
nodes = (
"626 0 LINE SMOOTH",
"988 0 OFFCURVE",
"1104 238 OFFCURVE",
"1104 420 CURVE SMOOTH",
"1104 600 OFFCURVE",
"992 714 OFFCURVE",
"828 728 CURVE",
"1026 762 OFFCURVE",
"1170 914 OFFCURVE",
"1170 1104 CURVE SMOOTH",
"1170 1266 OFFCURVE",
"1086 1400 OFFCURVE",
"830 1400 CURVE SMOOTH",
"420 1400 LINE",
"174 0 LINE"
);
},
{
closed = 1;
nodes = (
"370 694 LINE",
"692 694 LINE SMOOTH",
"954 694 OFFCURVE",
"1030 574 OFFCURVE",
"1030 420 CURVE SMOOTH",
"1030 252 OFFCURVE",
"928 64 OFFCURVE",
"634 64 CURVE SMOOTH",
"258 64 LINE"
);
},
{
closed = 1;
nodes = (
"484 1336 LINE",
"826 1336 LINE SMOOTH",
"1040 1336 OFFCURVE",
"1100 1228 OFFCURVE",
"1100 1104 CURVE SMOOTH",
"1100 908 OFFCURVE",
"938 758 OFFCURVE",
"674 758 CURVE SMOOTH",
"382 758 LINE"
);
}
);
width = 1224;
},
{
anchors = (
{
name = bottom;
position = "{618, 0}";
},
{
name = center;
position = "{780, 700}";
},
{
name = top;
position = "{864, 1400}";
},
{
name = topleft;
position = "{366, 1400}";
}
);
layerId = "DEEEE81F-2F80-4306-8755-EEA92C96C68A";
paths = (
{
closed = 1;
nodes = (
"808 0 LINE SMOOTH",
"1144 0 OFFCURVE",
"1356 170 OFFCURVE",
"1356 442 CURVE SMOOTH",
"1356 574 OFFCURVE",
"1292 672 OFFCURVE",
"1174 724 CURVE",
"1314 790 OFFCURVE",
"1388 914 OFFCURVE",
"1388 1058 CURVE SMOOTH",
"1388 1276 OFFCURVE",
"1234 1400 OFFCURVE",
"996 1400 CURVE SMOOTH",
"366 1400 LINE",
"120 0 LINE"
);
},
{
closed = 1;
nodes = (
"524 582 LINE",
"860 582 LINE SMOOTH",
"972 582 OFFCURVE",
"1030 532 OFFCURVE",
"1030 446 CURVE SMOOTH",
"1030 342 OFFCURVE",
"950 284 OFFCURVE",
"802 284 CURVE SMOOTH",
"472 284 LINE"
);
},
{
closed = 1;
nodes = (
"618 1118 LINE",
"948 1118 LINE SMOOTH",
"1032 1118 OFFCURVE",
"1084 1074 OFFCURVE",
"1084 1008 CURVE SMOOTH",
"1084 916 OFFCURVE",
"1010 866 OFFCURVE",
"886 866 CURVE SMOOTH",
"574 866 LINE"
);
}
);
width = 1336;
},
{
anchors = (
{
name = bottom;
position = "{666, 0}";
},
{
name = center;
position = "{668, 700}";
},
{
name = top;
position = "{666, 1400}";
},
{
name = topleft;
position = "{196, 1400}";
}
);
layerId = "07B4BFD6-AD6C-43B6-9499-C92B9E22D320";
paths = (
{
closed = 1;
nodes = (
"724 0 LINE SMOOTH",
"1066 0 OFFCURVE",
"1178 212 OFFCURVE",
"1178 402 CURVE SMOOTH",
"1178 562 OFFCURVE",
"1084 688 OFFCURVE",
"922 738 CURVE",
"1052 794 OFFCURVE",
"1128 902 OFFCURVE",
"1128 1030 CURVE SMOOTH",
"1128 1216 OFFCURVE",
"1024 1400 OFFCURVE",
"692 1400 CURVE SMOOTH",
"196 1400 LINE",
"196 0 LINE"
);
},
{
closed = 1;
nodes = (
"370 648 LINE",
"680 648 LINE SMOOTH",
"942 648 OFFCURVE",
"1006 524 OFFCURVE",
"1006 390 CURVE SMOOTH",
"1006 278 OFFCURVE",
"950 160 OFFCURVE",
"744 160 CURVE SMOOTH",
"370 160 LINE"
);
},
{
closed = 1;
nodes = (
"370 1242 LINE",
"702 1242 LINE SMOOTH",
"912 1242 OFFCURVE",
"956 1130 OFFCURVE",
"956 1028 CURVE SMOOTH",
"956 894 OFFCURVE",
"856 806 OFFCURVE",
"658 806 CURVE SMOOTH",
"370 806 LINE"
);
}
);
width = 1312;
},
{
anchors = (
{
name = bottom;
position = "{598, 0}";
},
{
name = center;
position = "{748, 700}";
},
{
name = top;
position = "{844, 1400}";
},
{
name = topleft;
position = "{428, 1400}";
}
);
layerId = "77C27521-0479-4645-83A2-7244263DD4C5";
paths = (
{
closed = 1;
nodes = (
"710 0 LINE SMOOTH",
"1090 0 OFFCURVE",
"1214 220 OFFCURVE",
"1214 428 CURVE SMOOTH",
"1214 572 OFFCURVE",
"1134 694 OFFCURVE",
"1000 728 CURVE",
"1118 760 OFFCURVE",
"1272 870 OFFCURVE",
"1272 1086 CURVE SMOOTH",
"1272 1242 OFFCURVE",
"1178 1400 OFFCURVE",
"906 1400 CURVE SMOOTH",
"428 1400 LINE",
"182 0 LINE"
);
},
{
closed = 1;
nodes = (
"470 650 LINE",
"772 650 LINE SMOOTH",
"980 650 OFFCURVE",
"1040 550 OFFCURVE",
"1040 432 CURVE SMOOTH",
"1040 316 OFFCURVE",
"976 158 OFFCURVE",
"720 158 CURVE SMOOTH",
"382 158 LINE"
);
},
{
closed = 1;
nodes = (
"574 1242 LINE",
"890 1242 LINE SMOOTH",
"1060 1242 OFFCURVE",
"1102 1152 OFFCURVE",
"1102 1058 CURVE SMOOTH",
"1102 912 OFFCURVE",
"992 804 OFFCURVE",
"770 804 CURVE SMOOTH",
"496 804 LINE"
);
}
);
width = 1252;
}
);
leftKerningGroup = B;
rightKerningGroup = B;
unicode = 0042;
},
{
color = 4;
glyphname = Bstroke;
lastChange = "2020-12-29 18:07:09 +0000";
layers = (
{
components = (
{
name = B;
}
);
layerId = "3BB16070-9AE0-46D6-9B05-19A363C2D547";
paths = (
{
closed = 1;
nodes = (
"532 346 LINE",
"532 412 LINE",
"16 412 LINE",
"16 346 LINE"
);
}
);
width = 1264;
},
{
components = (
{
name = B;
}
);
layerId = "07B4BFD6-AD6C-43B6-9499-C92B9E22D320";
paths = (
{
closed = 1;
nodes = (
"614 331 LINE",
"614 477 LINE",
"12 477 LINE",
"12 331 LINE"
);
}
);
width = 1312;
},
{
components = (
{
name = B;
transform = "{1, 0, 0, 1, 20, 0}";
}
);
layerId = "1D708A55-1947-4475-A0A3-21124B6DD42B";
paths = (
{
closed = 1;
nodes = (
"700 363 LINE",
"700 509 LINE",
"8 509 LINE",
"8 363 LINE"
);
}
);
width = 1446;
},
{
components = (
{
name = B;
transform = "{1, 0, 0, 1, 40, 0}";
}
);
layerId = "42555ED7-786B-4551-A9FC-B380F510FD49";
paths = (
{
closed = 1;
nodes = (
"586 346 LINE",
"598 412 LINE",
"82 412 LINE",
"70 346 LINE"
);
}
);
width = 1264;
},
{
components = (
{
name = B;
transform = "{1, 0, 0, 1, 60, 0}";
}
);
layerId = "77C27521-0479-4645-83A2-7244263DD4C5";
paths = (
{
closed = 1;
nodes = (
"718 331 LINE",
"744 477 LINE",
"142 477 LINE",
"116 331 LINE"
);
}
);
width = 1312;
},
{
components = (
{
name = B;
transform = "{1, 0, 0, 1, 110, 0}";
}
);
layerId = "DEEEE81F-2F80-4306-8755-EEA92C96C68A";
paths = (
{
closed = 1;
nodes = (
"827 363 LINE",
"853 509 LINE",
"181 509 LINE",
"155 363 LINE"
);
}
);
width = 1446;
}
);
unicode = 0243;
},
{
glyphname = C;
lastChange = "2020-12-31 05:23:36 +0000";
layers = (
{
anchors = (
{
name = bottom;
position = "{712, 0}";
},
{
name = top;
position = "{708, 1400}";
},
{
name = topright;
position = "{1110, 1198}";
}
);
layerId = "3BB16070-9AE0-46D6-9B05-19A363C2D547";
paths = (
{
closed = 1;
nodes = (
"938 -24 OFFCURVE",
"1070 104 OFFCURVE",
"1130 232 CURVE",
"1064 258 LINE",
"1012 152 OFFCURVE",
"900 48 OFFCURVE",
"712 48 CURVE SMOOTH",
"376 48 OFFCURVE",
"248 368 OFFCURVE",
"248 700 CURVE SMOOTH",
"248 1036 OFFCURVE",
"396 1352 OFFCURVE",
"710 1352 CURVE SMOOTH",
"910 1352 OFFCURVE",
"992 1258 OFFCURVE",
"1048 1162 CURVE",
"1110 1198 LINE",
"1044 1312 OFFCURVE",
"946 1424 OFFCURVE",
"710 1424 CURVE SMOOTH",
"342 1424 OFFCURVE",
"170 1072 OFFCURVE",
"170 700 CURVE SMOOTH",
"170 334 OFFCURVE",
"324 -24 OFFCURVE",
"712 -24 CURVE SMOOTH"
);
}
);
width = 1280;
},
{
anchors = (
{
name = bottom;
position = "{688, 0}";
},
{
name = top;
position = "{692, 1400}";
},
{
name = topright;
position = "{1206, 1080}";
}
);
layerId = "1D708A55-1947-4475-A0A3-21124B6DD42B";
paths = (
{
closed = 1;
nodes = (
"946 -20 OFFCURVE",
"1106 136 OFFCURVE",
"1208 356 CURVE",
"920 464 LINE",
"856 358 OFFCURVE",
"784 284 OFFCURVE",
"688 284 CURVE SMOOTH",
"502 284 OFFCURVE",
"424 508 OFFCURVE",
"424 700 CURVE SMOOTH",
"424 886 OFFCURVE",
"488 1120 OFFCURVE",
"688 1120 CURVE SMOOTH",
"794 1120 OFFCURVE",
"854 1060 OFFCURVE",
"924 954 CURVE",
"1206 1080 LINE",
"1136 1254 OFFCURVE",
"958 1424 OFFCURVE",
"688 1424 CURVE SMOOTH",
"250 1424 OFFCURVE",
"96 1018 OFFCURVE",
"96 700 CURVE SMOOTH",
"96 354 OFFCURVE",
"246 -20 OFFCURVE",
"688 -20 CURVE SMOOTH"
);
}
);
width = 1266;
},
{
anchors = (
{
name = bottom;
position = "{658, 0}";
},
{
name = top;
position = "{896, 1400}";
},
{
name = topright;
position = "{1258, 1198}";
}
);
layerId = "42555ED7-786B-4551-A9FC-B380F510FD49";
paths = (
{
closed = 1;
nodes = (
"890 -24 OFFCURVE",
"1024 104 OFFCURVE",
"1106 232 CURVE",
"1038 262 LINE",
"970 156 OFFCURVE",
"844 48 OFFCURVE",
"662 48 CURVE SMOOTH",
"406 48 OFFCURVE",
"310 278 OFFCURVE",
"310 534 CURVE SMOOTH",
"310 932 OFFCURVE",
"522 1352 OFFCURVE",
"898 1352 CURVE SMOOTH",
"1070 1352 OFFCURVE",
"1136 1272 OFFCURVE",
"1190 1162 CURVE",
"1258 1198 LINE",
"1204 1312 OFFCURVE",
"1120 1424 OFFCURVE",
"900 1424 CURVE SMOOTH",
"474 1424 OFFCURVE",
"230 968 OFFCURVE",
"230 532 CURVE SMOOTH",
"230 244 OFFCURVE",
"346 -24 OFFCURVE",
"654 -24 CURVE SMOOTH"
);
}
);
width = 1240;
},
{
anchors = (
{
name = bottom;
position = "{690, 0}";
},
{
name = top;
position = "{884, 1400}";
},
{
name = topright;
position = "{1356, 1084}";
}
);
layerId = "DEEEE81F-2F80-4306-8755-EEA92C96C68A";
paths = (
{
closed = 1;
nodes = (
"912 -22 OFFCURVE",
"1098 86 OFFCURVE",
"1246 340 CURVE",
"978 452 LINE",
"940 372 OFFCURVE",
"844 280 OFFCURVE",
"716 280 CURVE SMOOTH",
"572 280 OFFCURVE",
"516 418 OFFCURVE",
"516 586 CURVE SMOOTH",
"516 838 OFFCURVE",
"636 1128 OFFCURVE",
"876 1128 CURVE SMOOTH",
"966 1128 OFFCURVE",
"1038 1080 OFFCURVE",
"1082 970 CURVE",
"1356 1084 LINE",
"1304 1252 OFFCURVE",
"1164 1422 OFFCURVE",
"888 1422 CURVE SMOOTH",
"462 1422 OFFCURVE",
"202 1014 OFFCURVE",
"202 570 CURVE SMOOTH",
"202 238 OFFCURVE",
"358 -22 OFFCURVE",
"690 -22 CURVE SMOOTH"
);
}
);
width = 1220;
},
{
anchors = (
{
name = bottom;
position = "{716, 0}";
},
{
name = top;
position = "{714, 1400}";
},
{
name = topright;
position = "{1168, 1172}";
}
);
layerId = "07B4BFD6-AD6C-43B6-9499-C92B9E22D320";
paths = (
{
closed = 1;
nodes = (
"962 -24 OFFCURVE",
"1108 102 OFFCURVE",
"1180 258 CURVE",
"1020 318 LINE",
"956 212 OFFCURVE",
"870 140 OFFCURVE",
"716 140 CURVE SMOOTH",
"436 140 OFFCURVE",
"316 422 OFFCURVE",
"316 700 CURVE SMOOTH",
"316 956 OFFCURVE",
"416 1262 OFFCURVE",
"716 1262 CURVE SMOOTH",
"870 1262 OFFCURVE",
"946 1190 OFFCURVE",
"1012 1092 CURVE",
"1168 1172 LINE",
"1106 1298 OFFCURVE",
"974 1424 OFFCURVE",
"716 1424 CURVE SMOOTH",
"300 1424 OFFCURVE",
"136 1052 OFFCURVE",
"136 700 CURVE SMOOTH",
"136 344 OFFCURVE",
"292 -24 OFFCURVE",
"716 -24 CURVE SMOOTH"
);
}
);
width = 1294;
},
{
anchors = (
{
name = bottom;
position = "{710, 0}";
},
{
name = top;
position = "{922, 1400}";
},
{
name = topright;
position = "{1322, 1176}";
}
);
layerId = "77C27521-0479-4645-83A2-7244263DD4C5";
paths = (
{
closed = 1;
nodes = (
"938 -24 OFFCURVE",
"1088 96 OFFCURVE",
"1184 248 CURVE",
"1040 316 LINE",
"966 216 OFFCURVE",
"870 138 OFFCURVE",
"720 138 CURVE SMOOTH",
"498 138 OFFCURVE",
"408 358 OFFCURVE",
"408 574 CURVE SMOOTH",
"408 890 OFFCURVE",
"582 1264 OFFCURVE",
"910 1264 CURVE SMOOTH",
"1048 1264 OFFCURVE",
"1124 1194 OFFCURVE",
"1176 1102 CURVE",
"1322 1176 LINE",
"1274 1292 OFFCURVE",
"1150 1424 OFFCURVE",
"926 1424 CURVE SMOOTH",
"490 1424 OFFCURVE",
"232 1000 OFFCURVE",
"232 558 CURVE SMOOTH",
"232 264 OFFCURVE",
"378 -24 OFFCURVE",
"708 -24 CURVE SMOOTH"
);
}
);
width = 1232;
}
);
leftKerningGroup = O;
rightKerningGroup = C;
unicode = 0043;
},
{
glyphname = D;
lastChange = "2020-12-31 00:58:13 +0000";
layers = (
{
anchors = (
{
name = bottom;
position = "{666, 0}";
},
{
name = center;
position = "{400, 698}";
},
{
name = top;
position = "{580, 1400}";
},
{
name = topleft;
position = "{220, 1400}";
}
);
layerId = "3BB16070-9AE0-46D6-9B05-19A363C2D547";
paths = (
{
closed = 1;
nodes = (
"532 0 LINE SMOOTH",
"1024 0 OFFCURVE",
"1160 378 OFFCURVE",
"1160 700 CURVE SMOOTH",
"1160 1046 OFFCURVE",
"1004 1400 OFFCURVE",
"540 1400 CURVE SMOOTH",
"220 1400 LINE",
"220 0 LINE"
);
},
{
closed = 1;
nodes = (
"292 1328 LINE",
"540 1328 LINE SMOOTH",
"946 1328 OFFCURVE",
"1084 1010 OFFCURVE",
"1084 700 CURVE SMOOTH",
"1084 412 OFFCURVE",
"964 72 OFFCURVE",
"532 72 CURVE SMOOTH",
"292 72 LINE"
);
}
);
width = 1330;
},
{
anchors = (
{
name = bottom;
position = "{728, 0}";
},
{
name = center;
position = "{364, 700}";
},
{
name = top;
position = "{660, 1400}";
},
{
name = topleft;
position = "{146, 1400}";
}
);
layerId = "1D708A55-1947-4475-A0A3-21124B6DD42B";
paths = (
{
closed = 1;
nodes = (
"670 0 LINE SMOOTH",
"1184 0 OFFCURVE",
"1362 382 OFFCURVE",
"1362 700 CURVE SMOOTH",
"1362 1050 OFFCURVE",
"1168 1400 OFFCURVE",
"678 1400 CURVE SMOOTH",
"146 1400 LINE",
"146 0 LINE"
);
},
{
closed = 1;
nodes = (
"462 1100 LINE",
"722 1100 LINE SMOOTH",
"938 1100 OFFCURVE",
"1034 892 OFFCURVE",
"1034 700 CURVE SMOOTH",
"1034 516 OFFCURVE",
"942 302 OFFCURVE",
"700 302 CURVE SMOOTH",
"462 302 LINE"
);
}
);
width = 1458;
},
{
anchors = (
{
name = bottom;
position = "{546, 0}";
},
{
name = center;
position = "{472, 700}";
},
{
name = top;
position = "{770, 1400}";
},
{
name = topleft;
position = "{420, 1400}";
}
);
layerId = "42555ED7-786B-4551-A9FC-B380F510FD49";
paths = (
{
closed = 1;
nodes = (
"466 0 LINE SMOOTH",
"980 0 OFFCURVE",
"1234 408 OFFCURVE",
"1234 844 CURVE SMOOTH",
"1234 1128 OFFCURVE",
"1104 1400 OFFCURVE",
"720 1400 CURVE SMOOTH",
"420 1400 LINE",
"174 0 LINE"
);
},
{
closed = 1;
nodes = (
"480 1328 LINE",
"706 1328 LINE SMOOTH",
"1044 1328 OFFCURVE",
"1152 1096 OFFCURVE",
"1152 844 CURVE SMOOTH",
"1152 416 OFFCURVE",
"902 72 OFFCURVE",
"480 72 CURVE SMOOTH",
"262 72 LINE"
);
}
);
width = 1296;
},
{
anchors = (
{
name = bottom;
position = "{638, 0}";
},
{
name = center;
position = "{454, 700}";
},
{
name = top;
position = "{826, 1400}";
},
{
name = topleft;
position = "{366, 1400}";
}
);
layerId = "DEEEE81F-2F80-4306-8755-EEA92C96C68A";
paths = (
{
closed = 1;
nodes = (
"664 0 LINE SMOOTH",
"1178 0 OFFCURVE",
"1402 392 OFFCURVE",
"1402 750 CURVE SMOOTH",
"1402 1116 OFFCURVE",
"1212 1400 OFFCURVE",
"820 1400 CURVE SMOOTH",
"366 1400 LINE",
"120 0 LINE"
);
},
{
closed = 1;
nodes = (
"610 1112 LINE",
"772 1112 LINE SMOOTH",
"974 1112 OFFCURVE",
"1072 966 OFFCURVE",
"1072 734 CURVE SMOOTH",
"1072 512 OFFCURVE",
"926 290 OFFCURVE",
"654 290 CURVE SMOOTH",
"466 290 LINE"
);
}
);
width = 1366;
},
{
anchors = (
{
name = bottom;
position = "{686, 0}";
},
{
name = center;
position = "{372, 700}";
},
{
name = top;
position = "{618, 1400}";
},
{
name = topleft;
position = "{196, 1400}";
}
);
layerId = "07B4BFD6-AD6C-43B6-9499-C92B9E22D320";
paths = (
{
closed = 1;
nodes = (
"570 0 LINE SMOOTH",
"1078 0 OFFCURVE",
"1228 378 OFFCURVE",
"1228 700 CURVE SMOOTH",
"1228 1046 OFFCURVE",
"1058 1400 OFFCURVE",
"578 1400 CURVE SMOOTH",
"196 1400 LINE",
"196 0 LINE"
);
},
{
closed = 1;
nodes = (
"370 1240 LINE",
"614 1240 LINE SMOOTH",
"922 1240 OFFCURVE",
"1048 972 OFFCURVE",
"1048 700 CURVE SMOOTH",
"1048 446 OFFCURVE",
"940 162 OFFCURVE",
"592 162 CURVE SMOOTH",
"370 162 LINE"
);
}
);
width = 1364;
},
{
anchors = (
{
name = bottom;
position = "{632, 0}";
},
{
name = center;
position = "{490, 700}";
},
{
name = top;
position = "{832, 1400}";
},
{
name = topleft;
position = "{428, 1400}";
}
);
layerId = "77C27521-0479-4645-83A2-7244263DD4C5";
paths = (
{
closed = 1;
nodes = (
"574 0 LINE SMOOTH",
"1152 0 OFFCURVE",
"1328 456 OFFCURVE",
"1328 802 CURVE SMOOTH",
"1328 1092 OFFCURVE",
"1186 1400 OFFCURVE",
"802 1400 CURVE SMOOTH",
"428 1400 LINE",
"182 0 LINE"
);
},
{
closed = 1;
nodes = (
"572 1242 LINE",
"798 1242 LINE SMOOTH",
"1048 1242 OFFCURVE",
"1150 1022 OFFCURVE",
"1150 800 CURVE SMOOTH",
"1150 524 OFFCURVE",
"1012 158 OFFCURVE",
"596 158 CURVE SMOOTH",
"382 158 LINE"
);
}
);
width = 1320;
}
);
leftKerningGroup = B;
rightKerningGroup = O;
rightMetricsKey = O;
unicode = 0044;
},
{
glyphname = E;
lastChange = "2020-09-15 16:22:47 +0000";
layers = (
{
anchors = (
{
name = bottom;
position = "{582, 0}";
},
{
name = ogonek;
position = "{900, 0}";
},
{
name = top;
position = "{592, 1400}";
},
{
name = topleft;
position = "{30, 1400}";
}
);
layerId = "3BB16070-9AE0-46D6-9B05-19A363C2D547";
paths = (
{
closed = 1;
nodes = (
"994 0 LINE",
"994 66 LINE",
"292 66 LINE",
"292 692 LINE",
"736 692 LINE",
"736 758 LINE",
"292 758 LINE",
"292 1334 LINE",
"950 1334 LINE",
"950 1400 LINE",
"220 1400 LINE",
"220 0 LINE"
);
}
);
width = 1164;
},
{
anchors = (
{
name = bottom;
position = "{640, 0}";
},
{
name = ogonek;
position = "{1074, 0}";
},
{
name = top;
position = "{670, 1400}";
},
{
name = topleft;
position = "{6, 1400}";
}
);
layerId = "1D708A55-1947-4475-A0A3-21124B6DD42B";
paths = (
{
closed = 1;
nodes = (
"1208 0 LINE",
"1208 302 LINE",
"462 302 LINE",
"462 572 LINE",
"850 572 LINE",
"850 872 LINE",
"462 872 LINE",
"462 1100 LINE",
"1168 1100 LINE",
"1168 1400 LINE",
"146 1400 LINE",
"146 0 LINE"
);
}
);
width = 1282;
},
{
anchors = (
{
name = bottom;
position = "{534, 0}";
},
{
name = ogonek;
position = "{838, 0}";
},
{
name = top;
position = "{778, 1400}";
},
{
name = topleft;
position = "{197, 1400}";
}
);
layerId = "42555ED7-786B-4551-A9FC-B380F510FD49";
paths = (
{
closed = 1;
nodes = (
"932 0 LINE",
"944 66 LINE",
"260 66 LINE",
"370 692 LINE",
"796 692 LINE",
"808 758 LINE",
"382 758 LINE",
"484 1334 LINE",
"1124 1334 LINE",
"1134 1400 LINE",
"420 1400 LINE",
"174 0 LINE"
);
}
);
width = 1124;
},
{
anchors = (
{
name = bottom;
position = "{626, 0}";
},
{
name = ogonek;
position = "{1034, 0}";
},
{
name = top;
position = "{842, 1400}";
},
{
name = topleft;
position = "{197, 1400}";
}
);
layerId = "DEEEE81F-2F80-4306-8755-EEA92C96C68A";
paths = (
{
closed = 1;
nodes = (
"1114 0 LINE",
"1166 290 LINE",
"478 290 LINE",
"528 578 LINE",
"890 578 LINE",
"940 866 LINE",
"580 866 LINE",
"624 1112 LINE",
"1270 1112 LINE",
"1320 1400 LINE",
"366 1400 LINE",
"120 0 LINE"
);
}
);
width = 1168;
},
{
anchors = (
{
name = bottom;
position = "{602, 0}";
},
{
name = ogonek;
position = "{976, 0}";
},
{
name = top;
position = "{632, 1400}";
},
{
name = topleft;
position = "{40, 1400}";
}
);
layerId = "07B4BFD6-AD6C-43B6-9499-C92B9E22D320";
paths = (
{
closed = 1;
nodes = (
"1072 0 LINE",
"1072 166 LINE",
"370 166 LINE",
"370 642 LINE",
"804 642 LINE",
"804 806 LINE",
"370 806 LINE",
"370 1236 LINE",
"1028 1236 LINE",
"1028 1400 LINE",
"196 1400 LINE",
"196 0 LINE"
);
}
);
width = 1198;
},
{
anchors = (
{
name = bottom;
position = "{584, 0}";
},
{
name = ogonek;
position = "{944, 0}";
},
{
name = top;
position = "{832, 1400}";
},
{
name = topleft;
position = "{196, 1400}";
}
);
layerId = "77C27521-0479-4645-83A2-7244263DD4C5";
paths = (
{
closed = 1;
nodes = (
"1032 0 LINE",
"1060 158 LINE",
"384 158 LINE",
"470 646 LINE",
"880 646 LINE",
"910 804 LINE",
"498 804 LINE",
"574 1242 LINE",
"1208 1242 LINE",
"1234 1400 LINE",
"428 1400 LINE",
"182 0 LINE"
);
}
);
width = 1148;
}
);
leftKerningGroup = B;
leftMetricsKey = B;
rightKerningGroup = E;
unicode = 0045;
},
{
color = 4;
glyphname = Eopen;
lastChange = "2021-01-05 19:03:20 +0000";
layers = (
{
anchors = (
{
name = bottom;
position = "{612, 0}";
},
{
name = top;
position = "{612, 1400}";
}
);
layerId = "3BB16070-9AE0-46D6-9B05-19A363C2D547";
paths = (
{
closed = 1;
nodes = (
"834 -24 OFFCURVE",
"1008 86 OFFCURVE",
"1088 278 CURVE",
"1018 304 LINE",
"940 128 OFFCURVE",
"804 42 OFFCURVE",
"610 42 CURVE SMOOTH",
"376 42 OFFCURVE",
"234 160 OFFCURVE",
"234 364 CURVE SMOOTH",
"234 572 OFFCURVE",
"372 694 OFFCURVE",
"598 694 CURVE SMOOTH",
"774 694 LINE",
"774 760 LINE",
"628 760 LINE SMOOTH",
"428 760 OFFCURVE",
"290 884 OFFCURVE",
"290 1072 CURVE SMOOTH",
"290 1248 OFFCURVE",
"414 1358 OFFCURVE",
"606 1358 CURVE SMOOTH",
"766 1358 OFFCURVE",
"890 1280 OFFCURVE",
"966 1134 CURVE",
"1034 1162 LINE",
"958 1324 OFFCURVE",
"794 1424 OFFCURVE",
"606 1424 CURVE SMOOTH",
"372 1424 OFFCURVE",
"214 1282 OFFCURVE",
"214 1072 CURVE SMOOTH",
"214 906 OFFCURVE",
"302 788 OFFCURVE",
"462 734 CURVE",
"270 700 OFFCURVE",
"158 562 OFFCURVE",
"158 364 CURVE SMOOTH",
"158 128 OFFCURVE",
"334 -24 OFFCURVE",
"610 -24 CURVE SMOOTH"
);
}
);
width = 1228;
},
{
anchors = (
{
name = bottom;
position = "{595, 0}";
},
{
name = top;
position = "{595, 1400}";
}
);
layerId = "07B4BFD6-AD6C-43B6-9499-C92B9E22D320";
paths = (
{
closed = 1;
nodes = (
"875 -24 OFFCURVE",
"1035 118 OFFCURVE",
"1107 302 CURVE",
"953 368 LINE",
"887 208 OFFCURVE",
"769 142 OFFCURVE",
"597 142 CURVE SMOOTH",
"407 142 OFFCURVE",
"281 220 OFFCURVE",
"281 392 CURVE SMOOTH",
"281 540 OFFCURVE",
"375 646 OFFCURVE",
"593 646 CURVE SMOOTH",
"813 646 LINE",
"813 810 LINE",
"603 810 LINE SMOOTH",
"433 810 OFFCURVE",
"335 900 OFFCURVE",
"335 1044 CURVE SMOOTH",
"335 1174 OFFCURVE",
"435 1260 OFFCURVE",
"597 1260 CURVE SMOOTH",
"777 1260 OFFCURVE",
"871 1162 OFFCURVE",
"915 1066 CURVE",
"1071 1128 LINE",
"1005 1292 OFFCURVE",
"845 1424 OFFCURVE",
"597 1424 CURVE SMOOTH",
"331 1424 OFFCURVE",
"153 1266 OFFCURVE",
"153 1044 CURVE SMOOTH",
"153 926 OFFCURVE",
"217 798 OFFCURVE",
"357 738 CURVE",
"189 680 OFFCURVE",
"99 570 OFFCURVE",
"99 398 CURVE SMOOTH",
"99 140 OFFCURVE",
"303 -24 OFFCURVE",
"597 -24 CURVE SMOOTH"
);
}
);
width = 1182;
},
{
anchors = (
{
name = bottom;
position = "{557, 0}";
},
{
name = top;
position = "{575, 1400}";
}
);
layerId = "1D708A55-1947-4475-A0A3-21124B6DD42B";
paths = (
{
closed = 1;
nodes = (
"843 -24 OFFCURVE",
"1055 114 OFFCURVE",
"1135 324 CURVE",
"855 438 LINE",
"791 324 OFFCURVE",
"703 274 OFFCURVE",
"567 274 CURVE SMOOTH",
"441 274 OFFCURVE",
"365 324 OFFCURVE",
"365 412 CURVE SMOOTH",
"365 498 OFFCURVE",
"423 552 OFFCURVE",
"585 552 CURVE SMOOTH",
"809 552 LINE",
"809 850 LINE",
"585 850 LINE SMOOTH",
"467 850 OFFCURVE",
"409 906 OFFCURVE",
"409 990 CURVE SMOOTH",
"409 1076 OFFCURVE",
"471 1126 OFFCURVE",
"581 1126 CURVE SMOOTH",
"689 1126 OFFCURVE",
"769 1078 OFFCURVE",
"811 1004 CURVE",
"1093 1114 LINE",
"1003 1296 OFFCURVE",
"821 1424 OFFCURVE",
"577 1424 CURVE SMOOTH",
"277 1424 OFFCURVE",
"85 1262 OFFCURVE",
"85 1032 CURVE SMOOTH",
"85 886 OFFCURVE",
"175 766 OFFCURVE",
"291 726 CURVE",
"131 682 OFFCURVE",
"41 572 OFFCURVE",
"41 394 CURVE SMOOTH",
"41 148 OFFCURVE",
"251 -24 OFFCURVE",
"557 -24 CURVE SMOOTH"
);
}
);
width = 1155;
},
{
anchors = (
{
name = bottom;
position = "{627, 0}";
},
{
name = top;
position = "{856, 1400}";
}
);
layerId = "42555ED7-786B-4551-A9FC-B380F510FD49";
paths = (
{
closed = 1;
nodes = (
"849 -24 OFFCURVE",
"1033 86 OFFCURVE",
"1147 278 CURVE",
"1081 304 LINE",
"972 128 OFFCURVE",
"821 42 OFFCURVE",
"627 42 CURVE SMOOTH",
"420 42 OFFCURVE",
"302 144 OFFCURVE",
"302 316 CURVE SMOOTH",
"302 549 OFFCURVE",
"479 694 OFFCURVE",
"730 694 CURVE SMOOTH",
"906 694 LINE",
"918 760 LINE",
"772 760 LINE SMOOTH",
"595 760 OFFCURVE",
"483 857 OFFCURVE",
"483 1019 CURVE SMOOTH",
"483 1214 OFFCURVE",
"638 1358 OFFCURVE",
"855 1358 CURVE SMOOTH",
"1015 1358 OFFCURVE",
"1129 1281 OFFCURVE",
"1180 1135 CURVE",
"1245 1161 LINE",
"1198 1323 OFFCURVE",
"1045 1424 OFFCURVE",
"857 1424 CURVE SMOOTH",
"598 1424 OFFCURVE",
"406 1247 OFFCURVE",
"406 1013 CURVE SMOOTH",
"406 876 OFFCURVE",
"478 778 OFFCURVE",
"601 734 CURVE",
"376 695 OFFCURVE",
"225 527 OFFCURVE",
"225 308 CURVE SMOOTH",
"225 106 OFFCURVE",
"380 -24 OFFCURVE",
"625 -24 CURVE SMOOTH"
);
}
);
width = 1203;
},
{
anchors = (
{
name = bottom;
position = "{627, 0}";
},
{
name = top;
position = "{850, 1400}";
}
);
layerId = "77C27521-0479-4645-83A2-7244263DD4C5";
paths = (
{
closed = 1;
nodes = (
"903 -24 OFFCURVE",
"1074 116 OFFCURVE",
"1176 302 CURVE",
"1025 371 LINE",
"931 214 OFFCURVE",
"805 142 OFFCURVE",
"638 142 CURVE SMOOTH",
"480 142 OFFCURVE",
"361 210 OFFCURVE",
"361 351 CURVE SMOOTH",
"361 522 OFFCURVE",
"507 646 OFFCURVE",
"722 646 CURVE SMOOTH",
"942 646 LINE",
"971 810 LINE",
"761 810 LINE SMOOTH",
"612 810 OFFCURVE",
"530 877 OFFCURVE",
"530 999 CURVE SMOOTH",
"530 1156 OFFCURVE",
"653 1260 OFFCURVE",
"832 1260 CURVE SMOOTH",
"1015 1260 OFFCURVE",
"1099 1165 OFFCURVE",
"1127 1069 CURVE",
"1282 1127 LINE",
"1245 1291 OFFCURVE",
"1102 1424 OFFCURVE",
"849 1424 CURVE SMOOTH",
"580 1424 OFFCURVE",
"348 1252 OFFCURVE",
"348 996 CURVE SMOOTH",
"348 896 OFFCURVE",
"394 788 OFFCURVE",
"503 738 CURVE",
"298 671 OFFCURVE",
"178 536 OFFCURVE",
"178 329 CURVE SMOOTH",
"178 122 OFFCURVE",
"350 -24 OFFCURVE",
"628 -24 CURVE SMOOTH"
);
}
);
width = 1155;
},
{
anchors = (
{
name = bottom;
position = "{578, 0}";
},
{
name = top;
position = "{813, 1400}";
}
);
layerId = "DEEEE81F-2F80-4306-8755-EEA92C96C68A";
paths = (
{
closed = 1;
nodes = (
"851 -24 OFFCURVE",
"1069 105 OFFCURVE",
"1198 324 CURVE",
"926 442 LINE",
"842 328 OFFCURVE",
"747 274 OFFCURVE",
"621 274 CURVE SMOOTH",
"507 274 OFFCURVE",
"441 320 OFFCURVE",
"441 395 CURVE SMOOTH",
"441 499 OFFCURVE",
"544 552 OFFCURVE",
"688 552 CURVE SMOOTH",
"912 552 LINE",
"964 850 LINE",
"740 850 LINE SMOOTH",
"636 850 OFFCURVE",
"586 897 OFFCURVE",
"586 966 CURVE SMOOTH",
"586 1057 OFFCURVE",
"669 1126 OFFCURVE",
"782 1126 CURVE SMOOTH",
"890 1126 OFFCURVE",
"971 1079 OFFCURVE",
"1006 1008 CURVE",
"1295 1114 LINE",
"1234 1303 OFFCURVE",
"1054 1424 OFFCURVE",
"814 1424 CURVE SMOOTH",
"509 1424 OFFCURVE",
"268 1259 OFFCURVE",
"268 984 CURVE SMOOTH",
"268 867 OFFCURVE",
"332 764 OFFCURVE",
"425 726 CURVE",
"230 675 OFFCURVE",
"110 528 OFFCURVE",
"110 339 CURVE SMOOTH",
"110 123 OFFCURVE",
"292 -24 OFFCURVE",
"578 -24 CURVE SMOOTH"
);
}
);
width = 1135;
}
);
unicode = 0190;
},
{
glyphname = Ereversed;
lastChange = "2020-09-15 16:22:47 +0000";
layers = (
{
anchors = (
{
name = bottom;
position = "{558, 0}";
},
{
name = top;
position = "{580, 1400}";
}
);
layerId = "3BB16070-9AE0-46D6-9B05-19A363C2D547";
paths = (
{
closed = 1;
nodes = (
"944 0 LINE",
"944 1400 LINE",
"214 1400 LINE",
"214 1334 LINE",
"872 1334 LINE",
"872 758 LINE",
"428 758 LINE",
"428 692 LINE",
"872 692 LINE",
"872 66 LINE",
"170 66 LINE",
"170 0 LINE"
);
}
);
width = 1164;
},
{
anchors = (
{
name = bottom;
position = "{562, 0}";
},
{
name = top;
position = "{586, 1400}";
}
);
layerId = "07B4BFD6-AD6C-43B6-9499-C92B9E22D320";
paths = (
{
closed = 1;
nodes = (
"1002 0 LINE",
"1002 1400 LINE",
"170 1400 LINE",
"170 1236 LINE",
"828 1236 LINE",
"828 806 LINE",
"394 806 LINE",
"394 642 LINE",
"828 642 LINE",
"828 166 LINE",
"126 166 LINE",
"126 0 LINE"
);
}
);
width = 1198;
},
{
anchors = (
{
name = bottom;
position = "{604, 0}";
},
{
name = top;
position = "{624, 1400}";
}
);
layerId = "1D708A55-1947-4475-A0A3-21124B6DD42B";
paths = (
{
closed = 1;
nodes = (
"1136 0 LINE",
"1136 1400 LINE",
"114 1400 LINE",
"114 1100 LINE",
"820 1100 LINE",
"820 872 LINE",
"432 872 LINE",
"432 572 LINE",
"820 572 LINE",
"820 302 LINE",
"74 302 LINE",
"74 0 LINE"
);
}
);
width = 1282;
},
{
anchors = (
{
name = bottom;
position = "{400, 0}";
},
{
name = top;
position = "{670, 1400}";
}
);
layerId = "42555ED7-786B-4551-A9FC-B380F510FD49";
paths = (
{
closed = 1;
nodes = (
"786 0 LINE",
"1034 1400 LINE",
"304 1400 LINE",
"292 1334 LINE",
"950 1334 LINE",
"848 758 LINE",
"404 758 LINE",
"392 692 LINE",
"836 692 LINE",
"726 66 LINE",
"24 66 LINE",
"12 0 LINE"
);
}
);
width = 1033;
},
{
anchors = (
{
name = bottom;
position = "{372, 0}";
},
{
name = top;
position = "{644, 1400}";
}
);
layerId = "77C27521-0479-4645-83A2-7244263DD4C5";
paths = (
{
closed = 1;
nodes = (
"812 0 LINE",
"1060 1400 LINE",
"228 1400 LINE",
"198 1236 LINE",
"856 1236 LINE",
"780 806 LINE",
"346 806 LINE",
"318 642 LINE",
"752 642 LINE",
"668 166 LINE",
"-34 166 LINE",
"-64 0 LINE"
);
}
);
width = 993;
},
{
anchors = (
{
name = bottom;
position = "{403, 0}";
},
{
name = top;
position = "{671, 1400}";
}
);
layerId = "DEEEE81F-2F80-4306-8755-EEA92C96C68A";
paths = (
{
closed = 1;
nodes = (
"935 0 LINE",
"1183 1400 LINE",
"161 1400 LINE",
"107 1100 LINE",
"813 1100 LINE",
"773 872 LINE",
"385 872 LINE",
"333 572 LINE",
"721 572 LINE",
"673 302 LINE",
"-73 302 LINE",
"-127 0 LINE"
);
}
);
width = 1054;
}
);
leftMetricsKey = "=|E";
rightMetricsKey = "=H";
unicode = 018E;
},
{
color = 4;
glyphname = Esh;
lastChange = "2020-12-31 20:23:19 +0000";
layers = (
{
background = {
paths = (
{
closed = 1;
nodes = (
"124 38 LINE",
"124 0 LINE",
"1046 0 LINE",
"1046 66 LINE",
"226 66 LINE",
"640 720 LINE",
"595 777 LINE"
);
},
{
closed = 1;
nodes = (
"640 720 LINE",
"248 1334 LINE",
"1016 1334 LINE",
"1016 1400 LINE",
"154 1400 LINE",
"154 1358 LINE",
"559 720 LINE"
);
}
);
};
layerId = "3BB16070-9AE0-46D6-9B05-19A363C2D547";
paths = (
{
closed = 1;
nodes = (
"1056 0 LINE",
"1056 66 LINE",
"226 66 LINE",
"640 720 LINE",
"248 1334 LINE",
"1026 1334 LINE",
"1026 1400 LINE",
"154 1400 LINE",
"154 1358 LINE",
"559 720 LINE",
"124 38 LINE",
"124 0 LINE"
);
}
);
width = 1180;
},
{
background = {
paths = (
{
closed = 1;
nodes = (
"116 134 LINE",
"116 0 LINE",
"1154 0 LINE",
"1154 166 LINE",
"346 166 LINE",
"753 720 LINE",
"549 720 LINE"
);
},
{
closed = 1;
nodes = (
"753 720 LINE",
"374 1234 LINE",
"1122 1234 LINE",
"1122 1400 LINE",
"148 1400 LINE",
"148 1266 LINE",
"549 720 LINE"
);
}
);
};
layerId = "07B4BFD6-AD6C-43B6-9499-C92B9E22D320";
paths = (
{
closed = 1;
nodes = (
"1134 0 LINE",
"1134 166 LINE",
"356 166 LINE",
"763 720 LINE",
"384 1234 LINE",
"1102 1234 LINE",
"1102 1400 LINE",
"158 1400 LINE",
"158 1266 LINE",
"559 720 LINE",
"126 134 LINE",
"126 0 LINE"
);
}
);
width = 1260;
},
{
background = {
paths = (
{
closed = 1;
nodes = (
"108 234 LINE",
"108 0 LINE",
"1202 0 LINE",
"1202 298 LINE",
"518 298 LINE",
"852 722 LINE",
"487 722 LINE"
);
},
{
closed = 1;
nodes = (
"852 722 LINE",
"557 1102 LINE",
"1173 1102 LINE",
"1173 1400 LINE",
"137 1400 LINE",
"137 1166 LINE",
"487 722 LINE"
);
}
);
};
layerId = "1D708A55-1947-4475-A0A3-21124B6DD42B";
paths = (
{
closed = 1;
nodes = (
"1222 0 LINE",
"1222 298 LINE",
"518 298 LINE",
"852 722 LINE",
"557 1102 LINE",
"1193 1102 LINE",
"1193 1400 LINE",
"137 1400 LINE",
"137 1166 LINE",
"487 722 LINE",
"108 234 LINE",
"108 0 LINE"
);
}
);
width = 1330;
},
{
layerId = "42555ED7-786B-4551-A9FC-B380F510FD49";
paths = (
{
closed = 1;
nodes = (
"1038 0 LINE",
"1049 66 LINE",
"219 66 LINE",
"749 720 LINE",
"465 1334 LINE",
"1243 1334 LINE",
"1254 1400 LINE",
"382 1400 LINE",
"375 1358 LINE",
"668 720 LINE",
"112 38 LINE",
"106 0 LINE"
);
}
);
width = 1170;
},
{
layerId = "77C27521-0479-4645-83A2-7244263DD4C5";
paths = (
{
closed = 1;
nodes = (
"1130 0 LINE",
"1159 166 LINE",
"376 166 LINE",
"881 720 LINE",
"592 1234 LINE",
"1315 1234 LINE",
"1344 1400 LINE",
"395 1400 LINE",
"372 1266 LINE",
"677 720 LINE",
"140 134 LINE",
"117 0 LINE"
);
}
);
width = 1250;
},
{
layerId = "DEEEE81F-2F80-4306-8755-EEA92C96C68A";
paths = (
{
closed = 1;
nodes = (
"1209 0 LINE",
"1261 298 LINE",
"557 298 LINE",
"966 722 LINE",
"738 1102 LINE",
"1374 1102 LINE",
"1426 1400 LINE",
"370 1400 LINE",
"329 1166 LINE",
"601 722 LINE",
"136 234 LINE",
"95 0 LINE"
);
}
);
width = 1320;
}
);
unicode = 01A9;
},
{
glyphname = Ezh;
lastChange = "2020-09-15 16:22:47 +0000";
layers = (
{
anchors = (
{
name = bottom;
position = "{556, 0}";
},
{
name = top;
position = "{558, 1400}";
}
);
layerId = "3BB16070-9AE0-46D6-9B05-19A363C2D547";
paths = (
{
closed = 1;
nodes = (
"816 -24 OFFCURVE",
"994 138 OFFCURVE",
"994 380 CURVE SMOOTH",
"994 638 OFFCURVE",
"822 772 OFFCURVE",
"480 772 CURVE",
"976 1340 LINE",
"976 1400 LINE",
"174 1400 LINE",
"174 1334 LINE",
"878 1334 LINE",
"382 760 LINE",
"440 706 LINE",
"768 702 OFFCURVE",
"918 588 OFFCURVE",
"918 378 CURVE SMOOTH",
"918 174 OFFCURVE",
"772 42 OFFCURVE",
"558 42 CURVE SMOOTH",
"374 42 OFFCURVE",
"254 126 OFFCURVE",
"178 290 CURVE",
"120 266 LINE",
"200 82 OFFCURVE",
"354 -24 OFFCURVE",
"558 -24 CURVE SMOOTH"
);
}
);
width = 1154;
},
{
anchors = (
{
name = bottom;
position = "{592, 0}";
},
{
name = top;
position = "{602, 1400}";
}
);
layerId = "07B4BFD6-AD6C-43B6-9499-C92B9E22D320";
paths = (
{
closed = 1;
nodes = (
"858 -24 OFFCURVE",
"1054 144 OFFCURVE",
"1054 396 CURVE SMOOTH",
"1054 618 OFFCURVE",
"914 782 OFFCURVE",
"600 792 CURVE",
"1024 1264 LINE",
"1024 1400 LINE",
"166 1400 LINE",
"166 1234 LINE",
"800 1234 LINE",
"394 762 LINE",
"500 660 LINE",
"776 656 OFFCURVE",
"872 550 OFFCURVE",
"872 398 CURVE SMOOTH",
"872 242 OFFCURVE",
"760 142 OFFCURVE",
"592 142 CURVE SMOOTH",
"436 142 OFFCURVE",
"324 214 OFFCURVE",
"254 374 CURVE",
"100 310 LINE",
"180 102 OFFCURVE",
"360 -24 OFFCURVE",
"592 -24 CURVE SMOOTH"
);
}
);
width = 1194;
},
{
anchors = (
{
name = bottom;
position = "{626, 0}";
},
{
name = top;
position = "{626, 1400}";
}
);
layerId = "1D708A55-1947-4475-A0A3-21124B6DD42B";
paths = (
{
closed = 1;
nodes = (
"910 -24 OFFCURVE",
"1114 140 OFFCURVE",
"1114 410 CURVE SMOOTH",
"1114 618 OFFCURVE",
"996 754 OFFCURVE",
"766 798 CURVE",
"1084 1158 LINE",
"1084 1400 LINE",
"138 1400 LINE",
"138 1104 LINE",
"692 1104 LINE",
"394 760 LINE",
"586 594 LINE",
"728 582 OFFCURVE",
"804 522 OFFCURVE",
"804 428 CURVE SMOOTH",
"804 344 OFFCURVE",
"748 270 OFFCURVE",
"624 270 CURVE SMOOTH",
"512 270 OFFCURVE",
"424 330 OFFCURVE",
"360 442 CURVE",
"80 328 LINE",
"154 136 OFFCURVE",
"340 -24 OFFCURVE",
"630 -24 CURVE SMOOTH"
);
}
);
width = 1234;
},
{
anchors = (
{
name = bottom;
position = "{548, 0}";
},
{
name = top;
position = "{768, 1400}";
}
);
layerId = "42555ED7-786B-4551-A9FC-B380F510FD49";
paths = (
{
closed = 1;
nodes = (
"814 -24 OFFCURVE",
"1014 150 OFFCURVE",
"1014 406 CURVE SMOOTH",
"1014 636 OFFCURVE",
"858 772 OFFCURVE",
"566 772 CURVE",
"1158 1332 LINE",
"1170 1400 LINE",
"368 1400 LINE",
"356 1334 LINE",
"1060 1334 LINE",
"462 760 LINE",
"514 706 LINE",
"814 706 OFFCURVE",
"938 598 OFFCURVE",
"938 402 CURVE SMOOTH",
"938 192 OFFCURVE",
"776 42 OFFCURVE",
"552 42 CURVE SMOOTH",
"354 42 OFFCURVE",
"232 138 OFFCURVE",
"174 288 CURVE",
"114 268 LINE",
"172 98 OFFCURVE",
"326 -24 OFFCURVE",
"548 -24 CURVE SMOOTH"
);
}
);
width = 1140;
},
{
anchors = (
{
name = bottom;
position = "{628, 0}";
},
{
name = top;
position = "{828, 1400}";
}
);
layerId = "77C27521-0479-4645-83A2-7244263DD4C5";
paths = (
{
closed = 1;
nodes = (
"904 -24 OFFCURVE",
"1116 160 OFFCURVE",
"1116 420 CURVE SMOOTH",
"1116 630 OFFCURVE",
"992 784 OFFCURVE",
"744 792 CURVE",
"1232 1244 LINE",
"1260 1400 LINE",
"400 1400 LINE",
"370 1234 LINE",
"1004 1234 LINE",
"516 768 LINE",
"610 660 LINE",
"850 656 OFFCURVE",
"934 556 OFFCURVE",
"934 418 CURVE SMOOTH",
"934 258 OFFCURVE",
"812 142 OFFCURVE",
"634 142 CURVE SMOOTH",
"470 142 OFFCURVE",
"358 218 OFFCURVE",
"306 368 CURVE",
"146 316 LINE",
"200 118 OFFCURVE",
"374 -24 OFFCURVE",
"626 -24 CURVE SMOOTH"
);
}
);
width = 1180;
},
{
anchors = (
{
name = bottom;
position = "{672, 0}";
},
{
name = top;
position = "{850, 1400}";
}
);
layerId = "DEEEE81F-2F80-4306-8755-EEA92C96C68A";
paths = (
{
closed = 1;
nodes = (
"964 -24 OFFCURVE",
"1182 156 OFFCURVE",
"1182 436 CURVE SMOOTH",
"1182 630 OFFCURVE",
"1074 756 OFFCURVE",
"900 796 CURVE",
"1274 1138 LINE",
"1320 1400 LINE",
"372 1400 LINE",
"320 1104 LINE",
"866 1104 LINE",
"514 760 LINE",
"690 594 LINE",
"814 584 OFFCURVE",
"866 522 OFFCURVE",
"866 440 CURVE SMOOTH",
"866 340 OFFCURVE",
"784 270 OFFCURVE",
"670 270 CURVE SMOOTH",
"560 270 OFFCURVE",
"468 328 OFFCURVE",
"418 434 CURVE",
"130 338 LINE",
"190 152 OFFCURVE",
"354 -24 OFFCURVE",
"668 -24 CURVE SMOOTH"
);
}
);
width = 1224;
}
);
unicode = 01B7;
},
{
glyphname = F;
lastChange = "2020-09-15 16:22:47 +0000";
layers = (
{
anchors = (
{
name = bottom;
position = "{256, 0}";
},
{
name = bottomleft;
position = "{220, 0}";
},
{
name = center;
position = "{352, 354}";
},
{
name = top;
position = "{596, 1400}";
}
);
layerId = "3BB16070-9AE0-46D6-9B05-19A363C2D547";
paths = (
{
closed = 1;
nodes = (
"292 0 LINE",
"292 692 LINE",
"750 692 LINE",
"750 758 LINE",
"292 758 LINE",
"292 1334 LINE",
"970 1334 LINE",
"970 1400 LINE",
"220 1400 LINE",
"220 0 LINE"
);
}
);
width = 1100;
},
{
anchors = (
{
name = bottom;
position = "{304, 0}";
},
{
name = bottomleft;
position = "{146, 0}";
},
{
name = center;
position = "{356, 290}";
},
{
name = top;
position = "{644, 1400}";
}
);
layerId = "1D708A55-1947-4475-A0A3-21124B6DD42B";
paths = (
{
closed = 1;
nodes = (
"462 0 LINE",
"462 572 LINE",
"884 572 LINE",
"884 872 LINE",
"462 872 LINE",
"462 1100 LINE",
"1136 1100 LINE",
"1136 1400 LINE",
"146 1400 LINE",
"146 0 LINE"
);
}
);
width = 1166;
},
{
anchors = (
{
name = bottom;
position = "{212, 0}";
},
{
name = bottomleft;
position = "{174, 0}";
},
{
name = center;
position = "{372, 354}";
},
{
name = top;
position = "{788, 1400}";
}
);
layerId = "42555ED7-786B-4551-A9FC-B380F510FD49";
paths = (
{
closed = 1;
nodes = (
"248 0 LINE",
"370 692 LINE",
"810 692 LINE",
"822 758 LINE",
"382 758 LINE",
"484 1334 LINE",
"1144 1334 LINE",
"1154 1400 LINE",
"420 1400 LINE",
"174 0 LINE"
);
}
);
width = 1060;
},
{
anchors = (
{
name = bottom;
position = "{272, 0}";
},
{
name = bottomleft;
position = "{120, 0}";
},
{
name = center;
position = "{372, 290}";
},
{
name = top;
position = "{832, 1400}";
}
);
layerId = "DEEEE81F-2F80-4306-8755-EEA92C96C68A";
paths = (
{
closed = 1;
nodes = (
"426 0 LINE",
"528 570 LINE",
"912 570 LINE",
"966 874 LINE",
"580 874 LINE",
"624 1112 LINE",
"1246 1112 LINE",
"1296 1400 LINE",
"366 1400 LINE",
"120 0 LINE"
);
}
);
width = 1076;
},
{
anchors = (
{
name = bottom;
position = "{284, 0}";
},
{
name = bottomleft;
position = "{196, 0}";
},
{
name = center;
position = "{352, 326}";
},
{
name = top;
position = "{614, 1400}";
}
);
layerId = "07B4BFD6-AD6C-43B6-9499-C92B9E22D320";
paths = (
{
closed = 1;
nodes = (
"370 0 LINE",
"370 642 LINE",
"812 642 LINE",
"812 806 LINE",
"370 806 LINE",
"370 1236 LINE",
"1038 1236 LINE",
"1038 1400 LINE",
"196 1400 LINE",
"196 0 LINE"
);
}
);
width = 1124;
},
{
anchors = (
{
name = bottom;
position = "{270, 0}";
},
{
name = bottomleft;
position = "{182, 0}";
},
{
name = center;
position = "{406, 330}";
},
{
name = top;
position = "{836, 1400}";
}
);
layerId = "77C27521-0479-4645-83A2-7244263DD4C5";
paths = (
{
closed = 1;
nodes = (
"356 0 LINE",
"470 644 LINE",
"894 644 LINE",
"924 806 LINE",
"498 806 LINE",
"574 1242 LINE",
"1220 1242 LINE",
"1246 1400 LINE",
"428 1400 LINE",
"182 0 LINE"
);
}
);
width = 1082;
}
);
leftKerningGroup = B;
leftMetricsKey = B;
rightKerningGroup = F;
unicode = 0046;
},
{
glyphname = G;
lastChange = "2020-12-31 05:57:22 +0000";
layers = (
{
anchors = (
{
name = bottom;
position = "{702, 0}";
},
{
name = top;
position = "{716, 1400}";
},
{
name = topright;
position = "{1098, 1232}";
}
);
layerId = "3BB16070-9AE0-46D6-9B05-19A363C2D547";
paths = (
{
closed = 1;
nodes = (
"972 -24 OFFCURVE",
"1160 146 OFFCURVE",
"1160 562 CURVE SMOOTH",
"1160 630 LINE",
"790 630 LINE",
"790 562 LINE",
"1084 562 LINE",
"1084 538 LINE SMOOTH",
"1084 208 OFFCURVE",
"940 48 OFFCURVE",
"716 48 CURVE SMOOTH",
"386 48 OFFCURVE",
"248 362 OFFCURVE",
"248 700 CURVE SMOOTH",
"248 1004 OFFCURVE",
"370 1352 OFFCURVE",
"716 1352 CURVE SMOOTH",
"876 1352 OFFCURVE",
"972 1276 OFFCURVE",
"1034 1190 CURVE",
"1098 1232 LINE",
"1030 1324 OFFCURVE",
"914 1424 OFFCURVE",
"716 1424 CURVE SMOOTH",
"336 1424 OFFCURVE",
"170 1082 OFFCURVE",
"170 700 CURVE SMOOTH",
"170 334 OFFCURVE",
"324 -24 OFFCURVE",
"716 -24 CURVE SMOOTH"
);
}
);
width = 1362;
},
{
anchors = (
{
name = bottom;
position = "{702, 0}";
},
{
name = top;
position = "{716, 1400}";
},
{
name = topright;
position = "{1236, 1098}";
}
);
layerId = "1D708A55-1947-4475-A0A3-21124B6DD42B";
paths = (
{
closed = 1;
nodes = (
"1014 -24 OFFCURVE",
"1244 174 OFFCURVE",
"1244 536 CURVE SMOOTH",
"1244 760 LINE",
"694 760 LINE",
"694 458 LINE",
"920 458 LINE",
"920 452 LINE SMOOTH",
"920 360 OFFCURVE",
"822 278 OFFCURVE",
"716 278 CURVE SMOOTH",
"504 278 OFFCURVE",
"424 488 OFFCURVE",
"424 700 CURVE SMOOTH",
"424 884 OFFCURVE",
"492 1122 OFFCURVE",
"716 1122 CURVE SMOOTH",
"822 1122 OFFCURVE",
"900 1038 OFFCURVE",
"960 942 CURVE",
"1236 1098 LINE",
"1132 1264 OFFCURVE",
"990 1424 OFFCURVE",
"716 1424 CURVE SMOOTH",
"290 1424 OFFCURVE",
"96 1038 OFFCURVE",
"96 700 CURVE SMOOTH",
"96 334 OFFCURVE",
"284 -24 OFFCURVE",
"716 -24 CURVE SMOOTH"
);
}
);
width = 1354;
},
{
anchors = (
{
name = bottom;
position = "{661, 0}";
},
{
name = top;
position = "{901, 1400}";
},
{
name = topright;
position = "{1253, 1232}";
}
);
layerId = "42555ED7-786B-4551-A9FC-B380F510FD49";
paths = (
{
closed = 1;
nodes = (
"909 -24 OFFCURVE",
"1122 146 OFFCURVE",
"1193 562 CURVE SMOOTH",
"1205 632 LINE",
"843 632 LINE",
"833 562 LINE",
"1117 562 LINE",
"1113 538 LINE SMOOTH",
"1058 207 OFFCURVE",
"887 48 OFFCURVE",
"663 48 CURVE SMOOTH",
"409 48 OFFCURVE",
"309 276 OFFCURVE",
"309 538 CURVE SMOOTH",
"309 882 OFFCURVE",
"487 1352 OFFCURVE",
"897 1352 CURVE SMOOTH",
"1051 1352 OFFCURVE",
"1135 1276 OFFCURVE",
"1181 1190 CURVE",
"1253 1232 LINE",
"1199 1326 OFFCURVE",
"1103 1424 OFFCURVE",
"905 1424 CURVE SMOOTH",
"459 1424 OFFCURVE",
"231 966 OFFCURVE",
"231 530 CURVE SMOOTH",
"231 240 OFFCURVE",
"349 -24 OFFCURVE",
"659 -24 CURVE SMOOTH"
);
}
);
width = 1323;
},
{
anchors = (
{
name = bottom;
position = "{733, 0}";
},
{
name = top;
position = "{893, 1400}";
},
{
name = topright;
position = "{1385, 1102}";
}
);
layerId = "DEEEE81F-2F80-4306-8755-EEA92C96C68A";
paths = (
{
closed = 1;
nodes = (
"1029 -24 OFFCURVE",
"1297 144 OFFCURVE",
"1385 716 CURVE SMOOTH",
"1389 742 LINE",
"821 742 LINE",
"769 470 LINE",
"1017 470 LINE",
"1013 460 LINE SMOOTH",
"969 351 OFFCURVE",
"883 270 OFFCURVE",
"751 270 CURVE SMOOTH",
"573 270 OFFCURVE",
"509 416 OFFCURVE",
"509 614 CURVE SMOOTH",
"509 880 OFFCURVE",
"641 1132 OFFCURVE",
"877 1132 CURVE SMOOTH",
"997 1132 OFFCURVE",
"1069 1050 OFFCURVE",
"1115 956 CURVE",
"1385 1102 LINE",
"1313 1250 OFFCURVE",
"1179 1424 OFFCURVE",
"897 1424 CURVE SMOOTH",
"455 1424 OFFCURVE",
"209 1040 OFFCURVE",
"209 616 CURVE SMOOTH",
"209 274 OFFCURVE",
"347 -24 OFFCURVE",
"735 -24 CURVE SMOOTH"
);
}
);
width = 1303;
},
{
anchors = (
{
name = bottom;
position = "{730, 0}";
},
{
name = top;
position = "{740, 1400}";
},
{
name = topright;
position = "{1184, 1178}";
}
);
layerId = "07B4BFD6-AD6C-43B6-9499-C92B9E22D320";
paths = (
{
closed = 1;
nodes = (
"1010 -24 OFFCURVE",
"1226 164 OFFCURVE",
"1226 512 CURVE SMOOTH",
"1226 680 LINE",
"790 680 LINE",
"790 520 LINE",
"1044 520 LINE",
"1044 464 LINE SMOOTH",
"1044 274 OFFCURVE",
"920 142 OFFCURVE",
"730 142 CURVE SMOOTH",
"438 142 OFFCURVE",
"316 412 OFFCURVE",
"316 700 CURVE SMOOTH",
"316 956 OFFCURVE",
"418 1260 OFFCURVE",
"730 1260 CURVE SMOOTH",
"884 1260 OFFCURVE",
"964 1180 OFFCURVE",
"1028 1088 CURVE",
"1184 1178 LINE",
"1106 1304 OFFCURVE",
"990 1424 OFFCURVE",
"730 1424 CURVE SMOOTH",
"320 1424 OFFCURVE",
"136 1062 OFFCURVE",
"136 700 CURVE SMOOTH",
"136 334 OFFCURVE",
"306 -24 OFFCURVE",
"730 -24 CURVE SMOOTH"
);
}
);
width = 1376;
},
{
anchors = (
{
name = bottom;
position = "{705, 0}";
},
{
name = top;
position = "{919, 1400}";
},
{
name = topright;
position = "{1325, 1178}";
}
);
layerId = "77C27521-0479-4645-83A2-7244263DD4C5";
paths = (
{
closed = 1;
nodes = (
"975 -24 OFFCURVE",
"1191 136 OFFCURVE",
"1261 520 CURVE SMOOTH",
"1289 674 LINE",
"863 674 LINE",
"835 522 LINE",
"1079 522 LINE",
"1067 454 LINE SMOOTH",
"1033 262 OFFCURVE",
"901 136 OFFCURVE",
"717 136 CURVE SMOOTH",
"495 136 OFFCURVE",
"403 338 OFFCURVE",
"403 560 CURVE SMOOTH",
"403 890 OFFCURVE",
"575 1264 OFFCURVE",
"897 1264 CURVE SMOOTH",
"1047 1264 OFFCURVE",
"1127 1188 OFFCURVE",
"1173 1096 CURVE",
"1325 1178 LINE",
"1277 1286 OFFCURVE",
"1161 1424 OFFCURVE",
"923 1424 CURVE SMOOTH",
"465 1424 OFFCURVE",
"231 986 OFFCURVE",
"231 546 CURVE SMOOTH",
"231 254 OFFCURVE",
"373 -24 OFFCURVE",
"709 -24 CURVE SMOOTH"
);
}
);
width = 1309;
}
);
leftKerningGroup = O;
leftMetricsKey = C;
rightKerningGroup = G;
unicode = 0047;
},
{
glyphname = Gstroke;
lastChange = "2020-09-15 16:22:47 +0000";
layers = (
{
layerId = "3BB16070-9AE0-46D6-9B05-19A363C2D547";
paths = (
{
closed = 1;
nodes = (
"972 -24 OFFCURVE",
"1140 146 OFFCURVE",
"1140 562 CURVE SMOOTH",
"1140 700 LINE",
"1064 700 LINE",
"1064 538 LINE SMOOTH",
"1064 208 OFFCURVE",
"940 48 OFFCURVE",
"716 48 CURVE SMOOTH",
"386 48 OFFCURVE",
"248 362 OFFCURVE",
"248 700 CURVE SMOOTH",
"248 1004 OFFCURVE",
"370 1352 OFFCURVE",
"716 1352 CURVE SMOOTH",
"876 1352 OFFCURVE",
"972 1276 OFFCURVE",
"1034 1190 CURVE",
"1098 1232 LINE",
"1030 1324 OFFCURVE",
"914 1424 OFFCURVE",
"716 1424 CURVE SMOOTH",
"336 1424 OFFCURVE",
"170 1082 OFFCURVE",
"170 700 CURVE SMOOTH",
"170 334 OFFCURVE",
"324 -24 OFFCURVE",
"716 -24 CURVE SMOOTH"
);
},
{
closed = 1;
nodes = (
"1440 386 LINE",
"1440 454 LINE",
"740 454 LINE",
"740 386 LINE"
);
}
);
width = 1490;
},
{
layerId = "07B4BFD6-AD6C-43B6-9499-C92B9E22D320";
paths = (
{
closed = 1;
nodes = (
"1010 -24 OFFCURVE",
"1206 164 OFFCURVE",
"1206 512 CURVE SMOOTH",
"1206 760 LINE",
"1024 760 LINE",
"1024 464 LINE SMOOTH",
"1024 274 OFFCURVE",
"920 142 OFFCURVE",
"730 142 CURVE SMOOTH",
"438 142 OFFCURVE",
"316 412 OFFCURVE",
"316 700 CURVE SMOOTH",
"316 956 OFFCURVE",
"418 1260 OFFCURVE",
"730 1260 CURVE SMOOTH",
"884 1260 OFFCURVE",
"964 1180 OFFCURVE",
"1028 1088 CURVE",
"1184 1178 LINE",
"1106 1304 OFFCURVE",
"990 1424 OFFCURVE",
"730 1424 CURVE SMOOTH",
"320 1424 OFFCURVE",
"136 1062 OFFCURVE",
"136 700 CURVE SMOOTH",
"136 334 OFFCURVE",
"306 -24 OFFCURVE",
"730 -24 CURVE SMOOTH"
);
},
{
closed = 1;
nodes = (
"1446 380 LINE",
"1446 540 LINE",
"738 540 LINE",
"738 380 LINE"
);
}
);
width = 1476;
},
{
layerId = "1D708A55-1947-4475-A0A3-21124B6DD42B";
paths = (
{
closed = 1;
nodes = (
"1014 -24 OFFCURVE",
"1244 174 OFFCURVE",
"1244 496 CURVE SMOOTH",
"1244 830 LINE",
"920 830 LINE",
"920 452 LINE SMOOTH",
"920 340 OFFCURVE",
"832 278 OFFCURVE",
"712 278 CURVE SMOOTH",
"504 278 OFFCURVE",
"424 488 OFFCURVE",
"424 700 CURVE SMOOTH",
"424 884 OFFCURVE",
"492 1122 OFFCURVE",
"712 1122 CURVE SMOOTH",
"810 1122 OFFCURVE",
"882 1064 OFFCURVE",
"934 980 CURVE",
"1212 1134 LINE",
"1114 1290 OFFCURVE",
"972 1424 OFFCURVE",
"712 1424 CURVE SMOOTH",
"290 1424 OFFCURVE",
"96 1038 OFFCURVE",
"96 700 CURVE SMOOTH",
"96 334 OFFCURVE",
"284 -24 OFFCURVE",
"712 -24 CURVE SMOOTH"
);
},
{
closed = 1;
nodes = (
"1448 370 LINE",
"1448 670 LINE",
"732 670 LINE",
"732 370 LINE"
);
}
);
width = 1458;
},
{
layerId = "42555ED7-786B-4551-A9FC-B380F510FD49";
paths = (
{
closed = 1;
nodes = (
"909 -24 OFFCURVE",
"1105 144 OFFCURVE",
"1177 560 CURVE SMOOTH",
"1201 700 LINE",
"1125 700 LINE",
"1097 540 LINE SMOOTH",
"1039 210 OFFCURVE",
"887 48 OFFCURVE",
"663 48 CURVE SMOOTH",
"409 48 OFFCURVE",
"309 276 OFFCURVE",
"309 538 CURVE SMOOTH",
"309 882 OFFCURVE",
"487 1352 OFFCURVE",
"897 1352 CURVE SMOOTH",
"1051 1352 OFFCURVE",
"1135 1276 OFFCURVE",
"1181 1190 CURVE",
"1253 1232 LINE",
"1199 1326 OFFCURVE",
"1103 1424 OFFCURVE",
"905 1424 CURVE SMOOTH",
"459 1424 OFFCURVE",
"231 966 OFFCURVE",
"231 530 CURVE SMOOTH",
"231 242 OFFCURVE",
"349 -24 OFFCURVE",
"659 -24 CURVE SMOOTH"
);
},
{
closed = 1;
nodes = (
"1447 386 LINE",
"1459 454 LINE",
"759 454 LINE",
"747 386 LINE"
);
}
);
width = 1481;
},
{
layerId = "77C27521-0479-4645-83A2-7244263DD4C5";
paths = (
{
closed = 1;
nodes = (
"989 -24 OFFCURVE",
"1187 158 OFFCURVE",
"1247 506 CURVE SMOOTH",
"1291 760 LINE",
"1109 760 LINE",
"1059 470 LINE SMOOTH",
"1027 280 OFFCURVE",
"917 136 OFFCURVE",
"717 136 CURVE SMOOTH",
"495 136 OFFCURVE",
"403 338 OFFCURVE",
"403 560 CURVE SMOOTH",
"403 890 OFFCURVE",
"575 1264 OFFCURVE",
"897 1264 CURVE SMOOTH",
"1047 1264 OFFCURVE",
"1127 1188 OFFCURVE",
"1173 1096 CURVE",
"1325 1178 LINE",
"1277 1286 OFFCURVE",
"1161 1424 OFFCURVE",
"923 1424 CURVE SMOOTH",
"465 1424 OFFCURVE",
"231 986 OFFCURVE",
"231 546 CURVE SMOOTH",
"231 254 OFFCURVE",
"373 -24 OFFCURVE",
"709 -24 CURVE SMOOTH"
);
},
{
closed = 1;
nodes = (
"1483 380 LINE",
"1511 540 LINE",
"801 540 LINE",
"773 380 LINE"
);
}
);
width = 1475;
},
{
layerId = "DEEEE81F-2F80-4306-8755-EEA92C96C68A";
paths = (
{
closed = 1;
nodes = (
"1027 -24 OFFCURVE",
"1261 164 OFFCURVE",
"1317 486 CURVE SMOOTH",
"1377 830 LINE",
"1053 830 LINE",
"989 462 LINE SMOOTH",
"969 350 OFFCURVE",
"881 270 OFFCURVE",
"751 270 CURVE SMOOTH",
"573 270 OFFCURVE",
"509 416 OFFCURVE",
"509 614 CURVE SMOOTH",
"509 880 OFFCURVE",
"641 1132 OFFCURVE",
"877 1132 CURVE SMOOTH",
"975 1132 OFFCURVE",
"1049 1076 OFFCURVE",
"1097 988 CURVE",
"1373 1126 LINE",
"1295 1272 OFFCURVE",
"1163 1424 OFFCURVE",
"897 1424 CURVE SMOOTH",
"455 1424 OFFCURVE",
"209 1040 OFFCURVE",
"209 616 CURVE SMOOTH",
"209 274 OFFCURVE",
"347 -24 OFFCURVE",
"735 -24 CURVE SMOOTH"
);
},
{
closed = 1;
nodes = (
"1501 386 LINE",
"1549 658 LINE",
"833 658 LINE",
"785 386 LINE"
);
}
);
width = 1453;
}
);
leftKerningGroup = O;
leftMetricsKey = C;
unicode = 01E4;
},
{
glyphname = H;
lastChange = "2021-01-04 21:50:35 +0000";
layers = (
{
anchors = (
{
name = bottom;
position = "{668, 0}";
},
{
name = center;
position = "{668, 700}";
},
{
name = top;
position = "{668, 1400}";
},
{
name = topleft;
position = "{220, 1400}";
}
);
layerId = "3BB16070-9AE0-46D6-9B05-19A363C2D547";
paths = (
{
closed = 1;
nodes = (
"292 0 LINE",
"292 694 LINE",
"1044 694 LINE",
"1044 0 LINE",
"1116 0 LINE",
"1116 1400 LINE",
"1044 1400 LINE",
"1044 762 LINE",
"292 762 LINE",
"292 1400 LINE",
"220 1400 LINE",
"220 0 LINE"
);
}
);
width = 1336;
},
{
anchors = (
{
name = bottom;
position = "{736, 0}";
},
{
name = center;
position = "{736, 700}";
},
{
name = top;
position = "{736, 1400}";
},
{
name = topleft;
position = "{146, 1400}";
}
);
layerId = "1D708A55-1947-4475-A0A3-21124B6DD42B";
paths = (
{
closed = 1;
nodes = (
"462 0 LINE",
"462 568 LINE",
"1008 568 LINE",
"1008 0 LINE",
"1324 0 LINE",
"1324 1400 LINE",
"1008 1400 LINE",
"1008 870 LINE",
"462 870 LINE",
"462 1400 LINE",
"146 1400 LINE",
"146 0 LINE"
);
}
);
width = 1470;
},
{
anchors = (
{
name = bottom;
position = "{610, 0}";
},
{
name = center;
position = "{734, 700}";
},
{
name = top;
position = "{858, 1400}";
},
{
name = topleft;
position = "{420, 1400}";
}
);
layerId = "42555ED7-786B-4551-A9FC-B380F510FD49";
paths = (
{
closed = 1;
nodes = (
"248 0 LINE",
"370 694 LINE",
"1098 694 LINE",
"976 0 LINE",
"1050 0 LINE",
"1296 1400 LINE",
"1222 1400 LINE",
"1112 762 LINE",
"384 762 LINE",
"494 1400 LINE",
"420 1400 LINE",
"174 0 LINE"
);
}
);
width = 1296;
},
{
anchors = (
{
name = bottom;
position = "{690, 0}";
},
{
name = center;
position = "{814, 700}";
},
{
name = top;
position = "{938, 1400}";
},
{
name = topleft;
position = "{366, 1400}";
}
);
layerId = "DEEEE81F-2F80-4306-8755-EEA92C96C68A";
paths = (
{
closed = 1;
nodes = (
"426 0 LINE",
"528 576 LINE",
"1056 576 LINE",
"956 0 LINE",
"1262 0 LINE",
"1508 1400 LINE",
"1202 1400 LINE",
"1106 862 LINE",
"576 862 LINE",
"672 1400 LINE",
"366 1400 LINE",
"120 0 LINE"
);
}
);
width = 1380;
},
{
anchors = (
{
name = bottom;
position = "{700, 0}";
},
{
name = center;
position = "{700, 700}";
},
{
name = top;
position = "{700, 1400}";
},
{
name = topleft;
position = "{196, 1400}";
}
);
layerId = "07B4BFD6-AD6C-43B6-9499-C92B9E22D320";
paths = (
{
closed = 1;
nodes = (
"370 0 LINE",
"370 644 LINE",
"1030 644 LINE",
"1030 0 LINE",
"1204 0 LINE",
"1204 1400 LINE",
"1030 1400 LINE",
"1030 808 LINE",
"370 808 LINE",
"370 1400 LINE",
"196 1400 LINE",
"196 0 LINE"
);
}
);
width = 1400;
},
{
anchors = (
{
name = bottom;
position = "{670, 0}";
},
{
name = center;
position = "{794, 700}";
},
{
name = top;
position = "{918, 1400}";
},
{
name = topleft;
position = "{428, 1400}";
}
);
layerId = "77C27521-0479-4645-83A2-7244263DD4C5";
paths = (
{
closed = 1;
nodes = (
"358 0 LINE",
"470 644 LINE",
"1100 644 LINE",
"986 0 LINE",
"1160 0 LINE",
"1406 1400 LINE",
"1232 1400 LINE",
"1128 808 LINE",
"498 808 LINE",
"602 1400 LINE",
"428 1400 LINE",
"182 0 LINE"
);
}
);
width = 1340;
}
);
leftKerningGroup = B;
leftMetricsKey = B;
rightKerningGroup = H;
unicode = 0048;
},
{
glyphname = Hbar;
lastChange = "2020-12-29 20:07:41 +0000";
layers = (
{
layerId = "3BB16070-9AE0-46D6-9B05-19A363C2D547";
paths = (
{
closed = 1;
nodes = (
"298 0 LINE",
"298 694 LINE",
"1050 694 LINE",
"1050 0 LINE",
"1122 0 LINE",
"1122 1096 LINE",
"1288 1096 LINE",
"1288 1164 LINE",
"1122 1164 LINE",
"1122 1400 LINE",
"1050 1400 LINE",
"1050 1164 LINE",
"298 1164 LINE",
"298 1400 LINE",
"226 1400 LINE",
"226 1164 LINE",
"60 1164 LINE",
"60 1096 LINE",
"226 1096 LINE",
"226 0 LINE"
);
},
{
closed = 1;
nodes = (
"298 1096 LINE",
"1050 1096 LINE",
"1050 762 LINE",
"298 762 LINE"
);
}
);
width = 1348;
},
{
layerId = "1D708A55-1947-4475-A0A3-21124B6DD42B";
paths = (
{
closed = 1;
nodes = (
"447 0 LINE",
"447 568 LINE",
"993 568 LINE",
"993 0 LINE",
"1311 0 LINE",
"1311 968 LINE",
"1455 968 LINE",
"1455 1270 LINE",
"1311 1270 LINE",
"1311 1400 LINE",
"993 1400 LINE",
"993 1270 LINE",
"447 1270 LINE",
"447 1400 LINE",
"131 1400 LINE",
"131 1270 LINE",
"-15 1270 LINE",
"-15 968 LINE",
"131 968 LINE",
"131 0 LINE"
);
},
{
closed = 1;
nodes = (
"447 968 LINE",
"993 968 LINE",
"993 870 LINE",
"447 870 LINE"
);
}
);
width = 1440;
},
{
layerId = "42555ED7-786B-4551-A9FC-B380F510FD49";
paths = (
{
closed = 1;
nodes = (
"256 0 LINE",
"378 694 LINE",
"1106 694 LINE",
"984 0 LINE",
"1058 0 LINE",
"1250 1096 LINE",
"1416 1096 LINE",
"1430 1164 LINE",
"1264 1164 LINE",
"1304 1400 LINE",
"1230 1400 LINE",
"1190 1164 LINE",
"460 1164 LINE",
"502 1400 LINE",
"428 1400 LINE",
"388 1164 LINE",
"222 1164 LINE",
"208 1096 LINE",
"374 1096 LINE",
"182 0 LINE"
);
},
{
closed = 1;
nodes = (
"450 1096 LINE",
"1178 1096 LINE",
"1120 762 LINE",
"392 762 LINE"
);
}
);
width = 1304;
},
{
layerId = "DEEEE81F-2F80-4306-8755-EEA92C96C68A";
paths = (
{
closed = 1;
nodes = (
"467 0 LINE",
"567 576 LINE",
"1095 576 LINE",
"995 0 LINE",
"1303 0 LINE",
"1475 978 LINE",
"1625 978 LINE",
"1673 1264 LINE",
"1525 1264 LINE",
"1549 1400 LINE",
"1241 1400 LINE",
"1217 1264 LINE",
"689 1264 LINE",
"713 1400 LINE",
"405 1400 LINE",
"381 1264 LINE",
"231 1264 LINE",
"183 978 LINE",
"329 978 LINE",
"159 0 LINE"
);
},
{
closed = 1;
nodes = (
"637 978 LINE",
"1165 978 LINE",
"1145 862 LINE",
"617 862 LINE"
);
}
);
width = 1460;
},
{
layerId = "07B4BFD6-AD6C-43B6-9499-C92B9E22D320";
paths = (
{
closed = 1;
nodes = (
"394 0 LINE",
"394 644 LINE",
"1054 644 LINE",
"1054 0 LINE",
"1228 0 LINE",
"1228 1046 LINE",
"1408 1046 LINE",
"1408 1210 LINE",
"1228 1210 LINE",
"1228 1400 LINE",
"1054 1400 LINE",
"1054 1210 LINE",
"394 1210 LINE",
"394 1400 LINE",
"220 1400 LINE",
"220 1210 LINE",
"40 1210 LINE",
"40 1046 LINE",
"220 1046 LINE",
"220 0 LINE"
);
},
{
closed = 1;
nodes = (
"394 1046 LINE",
"1054 1046 LINE",
"1054 808 LINE",
"394 808 LINE"
);
}
);
width = 1448;
},
{
layerId = "77C27521-0479-4645-83A2-7244263DD4C5";
paths = (
{
closed = 1;
nodes = (
"365 0 LINE",
"481 644 LINE",
"1109 644 LINE",
"997 0 LINE",
"1169 0 LINE",
"1355 1046 LINE",
"1523 1046 LINE",
"1551 1210 LINE",
"1383 1210 LINE",
"1415 1400 LINE",
"1243 1400 LINE",
"1209 1210 LINE",
"579 1210 LINE",
"611 1400 LINE",
"439 1400 LINE",
"405 1210 LINE",
"237 1210 LINE",
"209 1046 LINE",
"375 1046 LINE",
"193 0 LINE"
);
},
{
closed = 1;
nodes = (
"551 1046 LINE",
"1181 1046 LINE",
"1139 808 LINE",
"507 808 LINE"
);
}
);
width = 1362;
}
);
leftKerningGroup = Eth;
rightKerningGroup = Hbar;
unicode = 0126;
},
{
glyphname = I;
lastChange = "2021-02-02 23:08:48 +0000";
layers = (
{
anchors = (
{
name = bottom;
position = "{256, 0}";
},
{
name = center;
position = "{256, 700}";
},
{
name = ogonek;
position = "{216, -20}";
},
{
name = top;
position = "{256, 1400}";
},
{
name = topleft;
position = "{30, 1400}";
}
);
layerId = "3BB16070-9AE0-46D6-9B05-19A363C2D547";
paths = (
{
closed = 1;
nodes = (
"292 0 LINE",
"292 1400 LINE",
"220 1400 LINE",
"220 0 LINE"
);
}
);
width = 512;
},
{
anchors = (
{
name = bottom;
position = "{306, 0}";
},
{
name = center;
position = "{304, 700}";
},
{
name = ogonek;
position = "{580, 20}";
},
{
name = top;
position = "{306, 1400}";
},
{
name = topleft;
position = "{-4, 1400}";
}
);
layerId = "1D708A55-1947-4475-A0A3-21124B6DD42B";
paths = (
{
closed = 1;
nodes = (
"462 0 LINE",
"462 1400 LINE",
"146 1400 LINE",
"146 0 LINE"
);
}
);
width = 608;
},
{
anchors = (
{
name = bottom;
position = "{210, 0}";
},
{
name = center;
position = "{334, 700}";
},
{
name = ogonek;
position = "{68, -80}";
},
{
name = top;
position = "{458, 1400}";
},
{
name = topleft;
position = "{197, 1400}";
}
);
layerId = "42555ED7-786B-4551-A9FC-B380F510FD49";
paths = (
{
closed = 1;
nodes = (
"248 0 LINE",
"494 1400 LINE",
"420 1400 LINE",
"174 0 LINE"
);
}
);
width = 494;
},
{
anchors = (
{
name = bottom;
position = "{272, 0}";
},
{
name = center;
position = "{396, 700}";
},
{
name = ogonek;
position = "{214, -84}";
},
{
name = top;
position = "{520, 1400}";
},
{
name = topleft;
position = "{197, 1400}";
}
);
layerId = "DEEEE81F-2F80-4306-8755-EEA92C96C68A";
paths = (
{
closed = 1;
nodes = (
"426 0 LINE",
"672 1400 LINE",
"366 1400 LINE",
"120 0 LINE"
);
}
);
width = 544;
},
{
anchors = (
{
name = bottom;
position = "{292, 0}";
},
{
name = center;
position = "{282, 700}";
},
{
name = ogonek;
position = "{528, 20}";
},
{
name = top;
position = "{292, 1400}";
},
{
name = topleft;
position = "{38, 1400}";
}
);
layerId = "07B4BFD6-AD6C-43B6-9499-C92B9E22D320";
paths = (
{
closed = 1;
nodes = (
"370 0 LINE",
"370 1400 LINE",
"196 1400 LINE",
"196 0 LINE"
);
}
);
width = 566;
},
{
anchors = (
{
name = bottom;
position = "{270, 0}";
},
{
name = center;
position = "{392, 700}";
},
{
name = ogonek;
position = "{156, -80}";
},
{
name = top;
position = "{516, 1400}";
},
{
name = topleft;
position = "{196, 1400}";
}
);
layerId = "77C27521-0479-4645-83A2-7244263DD4C5";
paths = (
{
closed = 1;
nodes = (
"356 0 LINE",
"602 1400 LINE",
"428 1400 LINE",
"182 0 LINE"
);
}
);
width = 536;
}
);
leftKerningGroup = B;
leftMetricsKey = B;
rightKerningGroup = H;
rightMetricsKey = H;
unicode = 0049;
},
{
glyphname = Iogonek;
lastChange = "2020-09-15 16:22:47 +0000";
layers = (
{
layerId = "3BB16070-9AE0-46D6-9B05-19A363C2D547";
paths = (
{
closed = 1;
nodes = (
"336 -468 OFFCURVE",
"392 -424 OFFCURVE",
"428 -380 CURVE",
"380 -346 LINE",
"358 -370 OFFCURVE",
"320 -410 OFFCURVE",
"252 -410 CURVE SMOOTH",
"192 -410 OFFCURVE",
"128 -372 OFFCURVE",
"128 -272 CURVE SMOOTH",
"128 -180 OFFCURVE",
"174 -70 OFFCURVE",
"292 0 CURVE",
"292 1400 LINE",
"220 1400 LINE",
"220 6 LINE",
"106 -68 OFFCURVE",
"60 -192 OFFCURVE",
"60 -272 CURVE SMOOTH",
"60 -408 OFFCURVE",
"150 -468 OFFCURVE",
"252 -468 CURVE SMOOTH"
);
}
);
width = 512;
},
{
layerId = "1D708A55-1947-4475-A0A3-21124B6DD42B";
paths = (
{
closed = 1;
nodes = (
"336 -496 OFFCURVE",
"412 -420 OFFCURVE",
"448 -380 CURVE",
"314 -286 LINE",
"298 -308 OFFCURVE",
"278 -324 OFFCURVE",
"240 -324 CURVE SMOOTH",
"208 -324 OFFCURVE",
"182 -304 OFFCURVE",
"182 -248 CURVE SMOOTH",
"182 -94 OFFCURVE",
"344 -8 OFFCURVE",
"472 0 CURVE",
"472 1400 LINE",
"156 1400 LINE",
"156 0 LINE",
"18 -60 OFFCURVE",
"-60 -156 OFFCURVE",
"-60 -272 CURVE SMOOTH",
"-60 -402 OFFCURVE",
"34 -496 OFFCURVE",
"192 -496 CURVE SMOOTH"
);
}
);
width = 626;
},
{
layerId = "42555ED7-786B-4551-A9FC-B380F510FD49";
paths = (
{
closed = 1;
nodes = (
"210 -468 OFFCURVE",
"274 -424 OFFCURVE",
"316 -380 CURVE",
"274 -346 LINE",
"250 -370 OFFCURVE",
"204 -410 OFFCURVE",
"136 -410 CURVE SMOOTH",
"84 -410 OFFCURVE",
"32 -382 OFFCURVE",
"32 -300 CURVE SMOOTH",
"32 -168 OFFCURVE",
"144 -56 OFFCURVE",
"248 0 CURVE",
"494 1400 LINE",
"420 1400 LINE",
"176 6 LINE",
"62 -66 OFFCURVE",
"-36 -184 OFFCURVE",
"-36 -312 CURVE SMOOTH",
"-36 -418 OFFCURVE",
"36 -468 OFFCURVE",
"126 -468 CURVE SMOOTH"
);
}
);
width = 472;
},
{
layerId = "DEEEE81F-2F80-4306-8755-EEA92C96C68A";
paths = (
{
closed = 1;
nodes = (
"200 -494 OFFCURVE",
"278 -432 OFFCURVE",
"324 -388 CURVE",
"216 -294 LINE",
"198 -314 OFFCURVE",
"170 -330 OFFCURVE",
"142 -330 CURVE SMOOTH",
"110 -330 OFFCURVE",
"88 -310 OFFCURVE",
"88 -268 CURVE SMOOTH",
"88 -128 OFFCURVE",
"282 0 OFFCURVE",
"428 0 CURVE",
"674 1400 LINE",
"364 1400 LINE",
"118 0 LINE",
"-48 -68 OFFCURVE",
"-142 -176 OFFCURVE",
"-142 -308 CURVE SMOOTH",
"-142 -418 OFFCURVE",
"-68 -494 OFFCURVE",
"68 -494 CURVE SMOOTH"
);
}
);
width = 542;
},
{
layerId = "07B4BFD6-AD6C-43B6-9499-C92B9E22D320";
paths = (
{
closed = 1;
nodes = (
"306 -474 OFFCURVE",
"372 -432 OFFCURVE",
"412 -388 CURVE",
"322 -322 LINE",
"302 -342 OFFCURVE",
"272 -364 OFFCURVE",
"226 -364 CURVE SMOOTH",
"172 -364 OFFCURVE",
"122 -330 OFFCURVE",
"122 -254 CURVE SMOOTH",
"122 -158 OFFCURVE",
"200 -54 OFFCURVE",
"374 0 CURVE",
"374 1400 LINE",
"200 1400 LINE",
"200 0 LINE",
"68 -54 OFFCURVE",
"-26 -146 OFFCURVE",
"-26 -272 CURVE SMOOTH",
"-26 -402 OFFCURVE",
"74 -474 OFFCURVE",
"204 -474 CURVE SMOOTH"
);
}
);
width = 574;
},
{
layerId = "77C27521-0479-4645-83A2-7244263DD4C5";
paths = (
{
closed = 1;
nodes = (
"204 -474 OFFCURVE",
"274 -426 OFFCURVE",
"320 -382 CURVE",
"246 -318 LINE",
"224 -338 OFFCURVE",
"190 -362 OFFCURVE",
"140 -362 CURVE SMOOTH",
"100 -362 OFFCURVE",
"60 -336 OFFCURVE",
"60 -276 CURVE SMOOTH",
"60 -162 OFFCURVE",
"184 -46 OFFCURVE",
"354 0 CURVE",
"600 1400 LINE",
"430 1400 LINE",
"184 0 LINE",
"36 -60 OFFCURVE",
"-84 -160 OFFCURVE",
"-84 -308 CURVE SMOOTH",
"-84 -414 OFFCURVE",
"-4 -474 OFFCURVE",
"104 -474 CURVE SMOOTH"
);
}
);
width = 538;
}
);
leftKerningGroup = B;
rightKerningGroup = H;
unicode = 012E;
},
{
glyphname = Iotaafrican;
lastChange = "2020-09-15 16:22:47 +0000";
layers = (
{
anchors = (
{
name = bottom;
position = "{382, 0}";
},
{
name = top;
position = "{256, 1400}";
}
);
layerId = "3BB16070-9AE0-46D6-9B05-19A363C2D547";
paths = (
{
closed = 1;
nodes = (
"456 -24 OFFCURVE",
"516 -8 OFFCURVE",
"558 18 CURVE",
"566 94 LINE",
"532 72 OFFCURVE",
"476 46 OFFCURVE",
"416 46 CURVE SMOOTH",
"316 46 OFFCURVE",
"292 108 OFFCURVE",
"292 218 CURVE SMOOTH",
"292 1400 LINE",
"220 1400 LINE",
"220 208 LINE SMOOTH",
"220 64 OFFCURVE",
"276 -24 OFFCURVE",
"408 -24 CURVE SMOOTH"
);
}
);
width = 646;
},
{
anchors = (
{
name = bottom;
position = "{386, 0}";
},
{
name = top;
position = "{284, 1400}";
}
);
layerId = "07B4BFD6-AD6C-43B6-9499-C92B9E22D320";
paths = (
{
closed = 1;
nodes = (
"492 -24 OFFCURVE",
"554 -6 OFFCURVE",
"608 22 CURVE",
"628 192 LINE",
"584 164 OFFCURVE",
"534 138 OFFCURVE",
"476 138 CURVE SMOOTH",
"400 138 OFFCURVE",
"370 182 OFFCURVE",
"370 278 CURVE SMOOTH",
"370 1400 LINE",
"196 1400 LINE",
"196 220 LINE SMOOTH",
"196 70 OFFCURVE",
"266 -24 OFFCURVE",
"412 -24 CURVE SMOOTH"
);
}
);
width = 688;
},
{
anchors = (
{
name = bottom;
position = "{404, 0}";
},
{
name = top;
position = "{304, 1400}";
}
);
layerId = "1D708A55-1947-4475-A0A3-21124B6DD42B";
paths = (
{
closed = 1;
nodes = (
"516 -24 OFFCURVE",
"594 -10 OFFCURVE",
"660 22 CURVE",
"694 272 LINE",
"630 244 OFFCURVE",
"570 232 OFFCURVE",
"514 232 CURVE SMOOTH",
"484 232 OFFCURVE",
"462 254 OFFCURVE",
"462 284 CURVE SMOOTH",
"462 1400 LINE",
"146 1400 LINE",
"146 258 LINE SMOOTH",
"146 72 OFFCURVE",
"232 -24 OFFCURVE",
"420 -24 CURVE SMOOTH"
);
}
);
width = 704;
},
{
anchors = (
{
name = bottom;
position = "{356, 0}";
},
{
name = top;
position = "{458, 1400}";
}
);
layerId = "42555ED7-786B-4551-A9FC-B380F510FD49";
paths = (
{
closed = 1;
nodes = (
"412 -24 OFFCURVE",
"462 -8 OFFCURVE",
"508 18 CURVE",
"530 94 LINE",
"492 72 OFFCURVE",
"434 46 OFFCURVE",
"376 46 CURVE SMOOTH",
"272 46 OFFCURVE",
"268 116 OFFCURVE",
"288 230 CURVE SMOOTH",
"494 1400 LINE",
"420 1400 LINE",
"216 238 LINE SMOOTH",
"188 84 OFFCURVE",
"210 -24 OFFCURVE",
"364 -24 CURVE SMOOTH"
);
}
);
width = 624;
},
{
anchors = (
{
name = bottom;
position = "{388, 0}";
},
{
name = top;
position = "{516, 1400}";
}
);
layerId = "77C27521-0479-4645-83A2-7244263DD4C5";
paths = (
{
closed = 1;
nodes = (
"474 -24 OFFCURVE",
"532 -12 OFFCURVE",
"590 18 CURVE",
"634 182 LINE",
"588 156 OFFCURVE",
"540 132 OFFCURVE",
"478 132 CURVE SMOOTH",
"394 132 OFFCURVE",
"388 188 OFFCURVE",
"406 288 CURVE SMOOTH",
"602 1400 LINE",
"428 1400 LINE",
"228 256 LINE SMOOTH",
"198 90 OFFCURVE",
"252 -24 OFFCURVE",
"404 -24 CURVE SMOOTH"
);
}
);
width = 682;
},
{
anchors = (
{
name = bottom;
position = "{354, 0}";
},
{
name = top;
position = "{518, 1400}";
}
);
layerId = "DEEEE81F-2F80-4306-8755-EEA92C96C68A";
paths = (
{
closed = 1;
nodes = (
"504 -24 OFFCURVE",
"584 -8 OFFCURVE",
"644 22 CURVE",
"696 270 LINE",
"626 242 OFFCURVE",
"588 234 OFFCURVE",
"548 234 CURVE SMOOTH",
"494 234 OFFCURVE",
"472 264 OFFCURVE",
"482 318 CURVE SMOOTH",
"672 1400 LINE",
"366 1400 LINE",
"178 332 LINE SMOOTH",
"138 108 OFFCURVE",
"238 -24 OFFCURVE",
"412 -24 CURVE SMOOTH"
);
}
);
width = 688;
}
);
leftMetricsKey = I;
unicode = 0196;
},
{
glyphname = J;
lastChange = "2021-03-19 19:30:40 +0000";
layers = (
{
anchors = (
{
name = bottom;
position = "{442, 0}";
},
{
name = top;
position = "{816, 1400}";
}
);
layerId = "3BB16070-9AE0-46D6-9B05-19A363C2D547";
paths = (
{
closed = 1;
nodes = (
"622 -24 OFFCURVE",
"852 68 OFFCURVE",
"852 450 CURVE SMOOTH",
"852 1400 LINE",
"780 1400 LINE",
"780 446 LINE SMOOTH",
"780 122 OFFCURVE",
"588 44 OFFCURVE",
"440 44 CURVE SMOOTH",
"276 44 OFFCURVE",
"190 126 OFFCURVE",
"136 246 CURVE",
"76 214 LINE",
"138 66 OFFCURVE",
"238 -24 OFFCURVE",
"440 -24 CURVE SMOOTH"
);
}
);
width = 1064;
},
{
anchors = (
{
name = bottom;
position = "{504, 0}";
},
{
name = top;
position = "{838, 1400}";
}
);
layerId = "1D708A55-1947-4475-A0A3-21124B6DD42B";
paths = (
{
closed = 1;
nodes = (
"724 -24 OFFCURVE",
"996 92 OFFCURVE",
"996 498 CURVE SMOOTH",
"996 1400 LINE",
"678 1400 LINE",
"678 520 LINE SMOOTH",
"678 328 OFFCURVE",
"594 282 OFFCURVE",
"504 282 CURVE SMOOTH",
"414 282 OFFCURVE",
"350 344 OFFCURVE",
"294 444 CURVE",
"16 318 LINE",
"112 104 OFFCURVE",
"304 -24 OFFCURVE",
"504 -24 CURVE SMOOTH"
);
}
);
width = 1130;
},
{
anchors = (
{
name = bottom;
position = "{412, 0}";
},
{
name = top;
position = "{1000, 1400}";
}
);
layerId = "42555ED7-786B-4551-A9FC-B380F510FD49";
paths = (
{
closed = 1;
nodes = (
"594 -24 OFFCURVE",
"804 66 OFFCURVE",
"872 450 CURVE SMOOTH",
"1038 1400 LINE",
"962 1400 LINE",
"796 446 LINE SMOOTH",
"740 126 OFFCURVE",
"568 44 OFFCURVE",
"408 44 CURVE SMOOTH",
"240 44 OFFCURVE",
"176 136 OFFCURVE",
"144 246 CURVE",
"78 214 LINE",
"114 84 OFFCURVE",
"218 -24 OFFCURVE",
"408 -24 CURVE SMOOTH"
);
}
);
width = 1024;
},
{
anchors = (
{
name = bottom;
position = "{558, 0}";
},
{
name = top;
position = "{1052, 1400}";
}
);
layerId = "DEEEE81F-2F80-4306-8755-EEA92C96C68A";
paths = (
{
closed = 1;
nodes = (
"706 -24 OFFCURVE",
"968 50 OFFCURVE",
"1030 404 CURVE SMOOTH",
"1206 1400 LINE",
"898 1400 LINE",
"736 478 LINE SMOOTH",
"714 354 OFFCURVE",
"646 272 OFFCURVE",
"538 272 CURVE SMOOTH",
"436 272 OFFCURVE",
"376 320 OFFCURVE",
"334 424 CURVE",
"62 302 LINE",
"120 100 OFFCURVE",
"288 -24 OFFCURVE",
"552 -24 CURVE SMOOTH"
);
}
);
width = 1074;
},
{
anchors = (
{
name = bottom;
position = "{460, 0}";
},
{
name = top;
position = "{816, 1400}";
}
);
layerId = "07B4BFD6-AD6C-43B6-9499-C92B9E22D320";
paths = (
{
closed = 1;
nodes = (
"656 -24 OFFCURVE",
"902 74 OFFCURVE",
"902 460 CURVE SMOOTH",
"902 1400 LINE",
"728 1400 LINE",
"728 454 LINE SMOOTH",
"728 198 OFFCURVE",
"594 140 OFFCURVE",
"462 140 CURVE SMOOTH",
"318 140 OFFCURVE",
"254 194 OFFCURVE",
"200 302 CURVE",
"56 228 LINE",
"126 66 OFFCURVE",
"258 -24 OFFCURVE",
"460 -24 CURVE SMOOTH"
);
}
);
width = 1092;
},
{
anchors = (
{
name = bottom;
position = "{472, 0}";
},
{
name = top;
position = "{1012, 1400}";
}
);
layerId = "77C27521-0479-4645-83A2-7244263DD4C5";
paths = (
{
closed = 1;
nodes = (
"632 -24 OFFCURVE",
"858 30 OFFCURVE",
"928 428 CURVE SMOOTH",
"1100 1400 LINE",
"926 1400 LINE",
"758 450 LINE SMOOTH",
"718 218 OFFCURVE",
"616 136 OFFCURVE",
"468 136 CURVE SMOOTH",
"346 136 OFFCURVE",
"286 208 OFFCURVE",
"252 298 CURVE",
"104 234 LINE",
"150 86 OFFCURVE",
"282 -24 OFFCURVE",
"470 -24 CURVE SMOOTH"
);
}
);
width = 1038;
}
);
leftKerningGroup = J;
rightKerningGroup = J;
unicode = 004A;
},
{
glyphname = K;
lastChange = "2020-09-15 16:22:47 +0000";
layers = (
{
anchors = (
{
name = bottom;
position = "{650, 0}";
},
{
name = top;
position = "{620, 1400}";
}
);
layerId = "3BB16070-9AE0-46D6-9B05-19A363C2D547";
paths = (
{
closed = 1;
nodes = (
"292 0 LINE",
"292 528 LINE",
"558 862 LINE",
"1028 0 LINE",
"1112 0 LINE",
"608 924 LINE",
"986 1400 LINE",
"900 1400 LINE",
"292 634 LINE",
"292 1400 LINE",
"220 1400 LINE",
"220 0 LINE"
);
}
);
width = 1238;
},
{
anchors = (
{
name = bottom;
position = "{754, 0}";
},
{
name = top;
position = "{742, 1400}";
}
);
layerId = "1D708A55-1947-4475-A0A3-21124B6DD42B";
paths = (
{
closed = 1;
nodes = (
"462 0 LINE",
"462 288 LINE",
"730 624 LINE",
"1066 0 LINE",
"1436 0 LINE",
"944 890 LINE",
"1364 1400 LINE",
"984 1400 LINE",
"462 740 LINE",
"462 1400 LINE",
"146 1400 LINE",
"146 0 LINE"
);
}
);
width = 1480;
},
{
anchors = (
{
name = bottom;
position = "{606, 0}";
},
{
name = top;
position = "{756, 1400}";
}
);
layerId = "42555ED7-786B-4551-A9FC-B380F510FD49";
paths = (
{
closed = 1;
nodes = (
"248 0 LINE",
"340 522 LINE",
"666 864 LINE",
"970 0 LINE",
"1046 0 LINE",
"720 920 LINE",
"1174 1400 LINE",
"1082 1400 LINE",
"360 638 LINE",
"494 1400 LINE",
"420 1400 LINE",
"174 0 LINE"
);
}
);
width = 1198;
},
{
anchors = (
{
name = bottom;
position = "{716, 0}";
},
{
name = top;
position = "{918, 1400}";
}
);
layerId = "DEEEE81F-2F80-4306-8755-EEA92C96C68A";
paths = (
{
closed = 1;
nodes = (
"426 0 LINE",
"480 302 LINE",
"796 632 LINE",
"1012 0 LINE",
"1338 0 LINE",
"1024 868 LINE",
"1534 1400 LINE",
"1164 1400 LINE",
"562 774 LINE",
"672 1400 LINE",
"366 1400 LINE",
"120 0 LINE"
);
}
);
width = 1386;
},
{
anchors = (
{
name = bottom;
position = "{680, 0}";
},
{
name = top;
position = "{650, 1400}";
}
);
layerId = "07B4BFD6-AD6C-43B6-9499-C92B9E22D320";
paths = (
{
closed = 1;
nodes = (
"370 0 LINE",
"370 478 LINE",
"608 770 LINE",
"1024 0 LINE",
"1226 0 LINE",
"726 916 LINE",
"1112 1400 LINE",
"916 1400 LINE",
"370 714 LINE",
"370 1400 LINE",
"196 1400 LINE",
"196 0 LINE"
);
}
);
width = 1320;
},
{
anchors = (
{
name = bottom;
position = "{668, 0}";
},
{
name = top;
position = "{836, 1400}";
}
);
layerId = "77C27521-0479-4645-83A2-7244263DD4C5";
paths = (
{
closed = 1;
nodes = (
"356 0 LINE",
"438 464 LINE",
"722 764 LINE",
"986 0 LINE",
"1168 0 LINE",
"850 900 LINE",
"1324 1400 LINE",
"1118 1400 LINE",
"484 728 LINE",
"602 1400 LINE",
"428 1400 LINE",
"182 0 LINE"
);
}
);
width = 1264;
}
);
leftKerningGroup = B;
leftMetricsKey = B;
rightKerningGroup = K;
unicode = 004B;
},
{
color = 4;
glyphname = Khook;
lastChange = "2021-03-19 19:36:32 +0000";
layers = (
{
anchors = (
{
name = bottom;
position = "{650, 0}";
},
{
name = top;
position = "{620, 1400}";
}
);
background = {
paths = (
{
closed = 1;
nodes = (
"831 1205 LINE SMOOTH",
"921 1319 OFFCURVE",
"999 1357 OFFCURVE",
"1165 1367 CURVE",
"1130 1424 LINE",
"965 1416 OFFCURVE",
"873 1370 OFFCURVE",
"761 1225 CURVE SMOOTH",
"744 1203 LINE",
"798 1163 LINE"
);
},
{
closed = 1;
nodes = (
"292 0 LINE",
"292 528 LINE",
"558 862 LINE",
"1028 0 LINE",
"1112 0 LINE",
"608 924 LINE",
"818 1188 LINE",
"755 1217 LINE",
"292 634 LINE",
"292 1400 LINE",
"220 1400 LINE",
"220 0 LINE"
);
}
);
};
layerId = "3BB16070-9AE0-46D6-9B05-19A363C2D547";
paths = (
{
closed = 1;
nodes = (
"292 0 LINE",
"292 528 LINE",
"558 862 LINE",
"1028 0 LINE",
"1112 0 LINE",
"608 924 LINE",
"831 1205 LINE SMOOTH",
"921 1319 OFFCURVE",
"999 1357 OFFCURVE",
"1165 1367 CURVE",
"1130 1424 LINE",
"965 1416 OFFCURVE",
"875 1369 OFFCURVE",
"761 1225 CURVE SMOOTH",
"292 634 LINE",
"292 1400 LINE",
"220 1400 LINE",
"220 0 LINE"
);
}
);
width = 1238;
},
{
anchors = (
{
name = bottom;
position = "{680, 0}";
},
{
name = top;
position = "{650, 1400}";
}
);
background = {
paths = (
{
closed = 1;
nodes = (
"370 0 LINE",
"370 478 LINE",
"608 770 LINE",
"1024 0 LINE",
"1226 0 LINE",
"726 916 LINE",
"854 1075 LINE",
"738 1176 LINE",
"370 714 LINE",
"370 1400 LINE",
"196 1400 LINE",
"196 0 LINE"
);
},
{
closed = 1;
nodes = (
"899 1132 LINE SMOOTH",
"985 1240 OFFCURVE",
"1058 1286 OFFCURVE",
"1270 1292 CURVE",
"1188 1424 LINE",
"972 1418 OFFCURVE",
"882 1357 OFFCURVE",
"761 1205 CURVE SMOOTH",
"715 1147 LINE",
"840 1058 LINE"
);
}
);
};
layerId = "07B4BFD6-AD6C-43B6-9499-C92B9E22D320";
paths = (
{
closed = 1;
nodes = (
"370 0 LINE",
"370 478 LINE",
"608 770 LINE",
"1024 0 LINE",
"1226 0 LINE",
"726 916 LINE",
"899 1132 LINE SMOOTH",
"985 1240 OFFCURVE",
"1058 1286 OFFCURVE",
"1270 1292 CURVE",
"1188 1424 LINE",
"972 1418 OFFCURVE",
"882 1357 OFFCURVE",
"761 1205 CURVE SMOOTH",
"370 714 LINE",
"370 1400 LINE",
"196 1400 LINE",
"196 0 LINE"
);
}
);
width = 1320;
},
{
anchors = (
{
name = bottom;
position = "{754, 0}";
},
{
name = top;
position = "{742, 1400}";
}
);
background = {
paths = (
{
closed = 1;
nodes = (
"462 0 LINE",
"462 288 LINE",
"730 624 LINE",
"1066 0 LINE",
"1436 0 LINE",
"944 890 LINE",
"1009 969 LINE",
"768 1128 LINE",
"462 740 LINE",
"462 1400 LINE",
"146 1400 LINE",
"146 0 LINE"
);
},
{
closed = 1;
nodes = (
"1048 1016 LINE SMOOTH",
"1146 1135 OFFCURVE",
"1220 1156 OFFCURVE",
"1471 1156 CURVE",
"1304 1424 LINE",
"1077 1422 OFFCURVE",
"960 1370 OFFCURVE",
"809 1179 CURVE SMOOTH",
"718 1064 LINE",
"949 896 LINE"
);
}
);
};
layerId = "1D708A55-1947-4475-A0A3-21124B6DD42B";
paths = (
{
closed = 1;
nodes = (
"462 0 LINE",
"462 288 LINE",
"730 624 LINE",
"1066 0 LINE",
"1436 0 LINE",
"944 890 LINE",
"1048 1016 LINE SMOOTH",
"1146 1135 OFFCURVE",
"1220 1156 OFFCURVE",
"1471 1156 CURVE",
"1304 1424 LINE",
"1077 1422 OFFCURVE",
"960 1370 OFFCURVE",
"809 1179 CURVE SMOOTH",
"462 740 LINE",
"462 1400 LINE",
"146 1400 LINE",
"146 0 LINE"
);
}
);
width = 1480;
},
{
anchors = (
{
name = bottom;
position = "{595, 0}";
},
{
name = top;
position = "{812, 1400}";
}
);
layerId = "42555ED7-786B-4551-A9FC-B380F510FD49";
paths = (
{
closed = 1;
nodes = (
"248 0 LINE",
"340 522 LINE",
"666 864 LINE",
"970 0 LINE",
"1046 0 LINE",
"720 920 LINE",
"989 1205 LINE SMOOTH",
"1098 1320 OFFCURVE",
"1184 1357 OFFCURVE",
"1351 1367 CURVE",
"1327 1424 LINE",
"1160 1416 OFFCURVE",
"1054 1371 OFFCURVE",
"916 1225 CURVE SMOOTH",
"360 638 LINE",
"494 1400 LINE",
"420 1400 LINE",
"174 0 LINE"
);
}
);
width = 1238;
},
{
anchors = (
{
name = bottom;
position = "{668, 0}";
},
{
name = top;
position = "{836, 1400}";
}
);
layerId = "77C27521-0479-4645-83A2-7244263DD4C5";
paths = (
{
closed = 1;
nodes = (
"356 0 LINE",
"438 464 LINE",
"722 764 LINE",
"986 0 LINE",
"1168 0 LINE",
"850 900 LINE",
"1070 1132 LINE SMOOTH",
"1174 1241 OFFCURVE",
"1251 1286 OFFCURVE",
"1464 1292 CURVE",
"1406 1424 LINE",
"1188 1418 OFFCURVE",
"1080 1359 OFFCURVE",
"934 1205 CURVE SMOOTH",
"484 728 LINE",
"602 1400 LINE",
"428 1400 LINE",
"182 0 LINE"
);
}
);
width = 1320;
},
{
anchors = (
{
name = bottom;
position = "{716, 0}";
},
{
name = top;
position = "{918, 1400}";
}
);
layerId = "DEEEE81F-2F80-4306-8755-EEA92C96C68A";
paths = (
{
closed = 1;
nodes = (
"426 0 LINE",
"480 302 LINE",
"796 632 LINE",
"1012 0 LINE",
"1338 0 LINE",
"1024 868 LINE",
"1166 1016 LINE SMOOTH",
"1283 1137 OFFCURVE",
"1359 1156 OFFCURVE",
"1610 1156 CURVE",
"1491 1424 LINE",
"1263 1422 OFFCURVE",
"1136 1370 OFFCURVE",
"952 1179 CURVE SMOOTH",
"562 774 LINE",
"672 1400 LINE",
"366 1400 LINE",
"120 0 LINE"
);
}
);
width = 1480;
}
);
leftKerningGroup = B;
leftMetricsKey = B;
rightKerningGroup = K;
unicode = 0198;
},
{
glyphname = L;
lastChange = "2020-09-15 16:22:47 +0000";
layers = (
{
anchors = (
{
name = bottom;
position = "{602, 0}";
},
{
name = center;
position = "{788, 660}";
},
{
name = top;
position = "{258, 1400}";
},
{
name = topright;
position = "{544, 962}";
}
);
layerId = "3BB16070-9AE0-46D6-9B05-19A363C2D547";
paths = (
{
closed = 1;
nodes = (
"986 0 LINE",
"986 66 LINE",
"292 66 LINE",
"292 1400 LINE",
"220 1400 LINE",
"220 0 LINE"
);
}
);
width = 1066;
},
{
anchors = (
{
name = bottom;
position = "{630, 0}";
},
{
name = center;
position = "{874, 698}";
},
{
name = top;
position = "{300, 1400}";
},
{
name = topright;
position = "{544, 962}";
}
);
layerId = "1D708A55-1947-4475-A0A3-21124B6DD42B";
paths = (
{
closed = 1;
nodes = (
"1132 0 LINE",
"1132 306 LINE",
"462 306 LINE",
"462 1400 LINE",
"146 1400 LINE",
"146 0 LINE"
);
}
);
width = 1142;
},
{
anchors = (
{
name = bottom;
position = "{548, 0}";
},
{
name = center;
position = "{846, 700}";
},
{
name = top;
position = "{458, 1400}";
},
{
name = topright;
position = "{604, 962}";
}
);
layerId = "42555ED7-786B-4551-A9FC-B380F510FD49";
paths = (
{
closed = 1;
nodes = (
"924 0 LINE",
"936 66 LINE",
"260 66 LINE",
"494 1400 LINE",
"420 1400 LINE",
"174 0 LINE"
);
}
);
width = 1022;
},
{
anchors = (
{
name = bottom;
position = "{588, 0}";
},
{
name = center;
position = "{918, 700}";
},
{
name = top;
position = "{520, 1400}";
},
{
name = topright;
position = "{674, 962}";
}
);
layerId = "DEEEE81F-2F80-4306-8755-EEA92C96C68A";
paths = (
{
closed = 1;
nodes = (
"1060 0 LINE",
"1112 288 LINE",
"476 288 LINE",
"672 1400 LINE",
"366 1400 LINE",
"120 0 LINE"
);
}
);
width = 1048;
},
{
anchors = (
{
name = bottom;
position = "{626, 0}";
},
{
name = center;
position = "{842, 698}";
},
{
name = top;
position = "{282, 1400}";
},
{
name = topright;
position = "{504, 962}";
}
);
layerId = "07B4BFD6-AD6C-43B6-9499-C92B9E22D320";
paths = (
{
closed = 1;
nodes = (
"1058 0 LINE",
"1058 168 LINE",
"370 168 LINE",
"370 1400 LINE",
"196 1400 LINE",
"196 0 LINE"
);
}
);
width = 1118;
},
{
anchors = (
{
name = bottom;
position = "{596, 0}";
},
{
name = center;
position = "{928, 700}";
},
{
name = top;
position = "{516, 1400}";
},
{
name = topright;
position = "{690, 962}";
}
);
layerId = "77C27521-0479-4645-83A2-7244263DD4C5";
paths = (
{
closed = 1;
nodes = (
"1014 0 LINE",
"1044 164 LINE",
"386 164 LINE",
"602 1400 LINE",
"428 1400 LINE",
"182 0 LINE"
);
}
);
width = 1072;
}
);
leftKerningGroup = B;
leftMetricsKey = B;
rightKerningGroup = L;
unicode = 004C;
},
{
glyphname = Lslash;
lastChange = "2020-09-15 16:22:47 +0000";
layers = (
{
layerId = "3BB16070-9AE0-46D6-9B05-19A363C2D547";
paths = (
{
closed = 1;
nodes = (
"986 0 LINE",
"986 66 LINE",
"292 66 LINE",
"292 652 LINE",
"548 852 LINE",
"548 932 LINE",
"292 734 LINE",
"292 1400 LINE",
"220 1400 LINE",
"220 678 LINE",
"70 562 LINE",
"70 482 LINE",
"220 598 LINE",
"220 0 LINE"
);
}
);
width = 1066;
},
{
layerId = "1D708A55-1947-4475-A0A3-21124B6DD42B";
paths = (
{
closed = 1;
nodes = (
"1132 0 LINE",
"1132 306 LINE",
"462 306 LINE",
"462 612 LINE",
"772 844 LINE",
"772 1186 LINE",
"462 950 LINE",
"462 1400 LINE",
"146 1400 LINE",
"146 716 LINE",
"20 622 LINE",
"20 276 LINE",
"146 374 LINE",
"146 0 LINE"
);
}
);
width = 1142;
},
{
layerId = "42555ED7-786B-4551-A9FC-B380F510FD49";
paths = (
{
closed = 1;
nodes = (
"924 0 LINE",
"936 66 LINE",
"260 66 LINE",
"364 654 LINE",
"654 852 LINE",
"670 932 LINE",
"376 732 LINE",
"494 1400 LINE",
"422 1400 LINE",
"294 678 LINE",
"124 562 LINE",
"110 482 LINE",
"280 598 LINE",
"174 0 LINE"
);
}
);
width = 1022;
},
{
layerId = "DEEEE81F-2F80-4306-8755-EEA92C96C68A";
paths = (
{
closed = 1;
nodes = (
"1060 0 LINE",
"1112 288 LINE",
"476 288 LINE",
"536 628 LINE",
"842 836 LINE",
"910 1172 LINE",
"594 954 LINE",
"674 1400 LINE",
"364 1400 LINE",
"242 716 LINE",
"114 626 LINE",
"46 288 LINE",
"184 388 LINE",
"118 0 LINE"
);
}
);
width = 1048;
},
{
layerId = "07B4BFD6-AD6C-43B6-9499-C92B9E22D320";
paths = (
{
closed = 1;
nodes = (
"1058 0 LINE",
"1058 168 LINE",
"370 168 LINE",
"370 648 LINE",
"608 832 LINE",
"608 1024 LINE",
"370 842 LINE",
"370 1400 LINE",
"196 1400 LINE",
"196 702 LINE",
"50 594 LINE",
"50 402 LINE",
"196 510 LINE",
"196 0 LINE"
);
}
);
width = 1118;
},
{
layerId = "77C27521-0479-4645-83A2-7244263DD4C5";
paths = (
{
closed = 1;
nodes = (
"1014 0 LINE",
"1044 164 LINE",
"384 164 LINE",
"470 654 LINE",
"720 830 LINE",
"756 1020 LINE",
"504 846 LINE",
"600 1400 LINE",
"430 1400 LINE",
"308 702 LINE",
"152 594 LINE",
"116 404 LINE",
"274 512 LINE",
"184 0 LINE"
);
}
);
width = 1072;
}
);
leftKerningGroup = Eth;
rightKerningGroup = L;
rightMetricsKey = L;
unicode = 0141;
},
{
glyphname = M;
lastChange = "2020-09-15 16:22:47 +0000";
layers = (
{
anchors = (
{
name = bottom;
position = "{798, 0}";
},
{
name = top;
position = "{798, 1400}";
}
);
layerId = "3BB16070-9AE0-46D6-9B05-19A363C2D547";
paths = (
{
closed = 1;
nodes = (
"1268 1104 LINE SMOOTH",
"1280 1134 OFFCURVE",
"1292 1164 OFFCURVE",
"1304 1192 CURVE",
"1304 1162 OFFCURVE",
"1304 1134 OFFCURVE",
"1304 1104 CURVE SMOOTH",
"1304 0 LINE",
"1376 0 LINE",
"1376 1400 LINE",
"1312 1400 LINE",
"840 264 LINE SMOOTH",
"826 230 OFFCURVE",
"812 196 OFFCURVE",
"798 162 CURVE",
"784 196 OFFCURVE",
"770 230 OFFCURVE",
"756 264 CURVE SMOOTH",
"284 1400 LINE",
"220 1400 LINE",
"220 0 LINE",
"292 0 LINE",
"292 1104 LINE SMOOTH",
"292 1134 OFFCURVE",
"292 1162 OFFCURVE",
"292 1192 CURVE",
"304 1164 OFFCURVE",
"316 1134 OFFCURVE",
"328 1104 CURVE SMOOTH",
"798 -24 LINE"
);
}
);
width = 1596;
},
{
anchors = (
{
name = bottom;
position = "{814, 0}";
},
{
name = top;
position = "{814, 1400}";
}
);
layerId = "1D708A55-1947-4475-A0A3-21124B6DD42B";
paths = (
{
closed = 1;
nodes = (
"1154 690 LINE SMOOTH",
"1156 694 OFFCURVE",
"1160 702 OFFCURVE",
"1164 710 CURVE",
"1164 704 OFFCURVE",
"1164 694 OFFCURVE",
"1164 686 CURVE SMOOTH",
"1164 0 LINE",
"1480 0 LINE",
"1480 1400 LINE",
"1186 1400 LINE",
"854 704 LINE SMOOTH",
"842 678 OFFCURVE",
"832 650 OFFCURVE",
"822 620 CURVE",
"812 650 OFFCURVE",
"802 674 OFFCURVE",
"788 704 CURVE SMOOTH",
"468 1400 LINE",
"146 1400 LINE",
"146 0 LINE",
"462 0 LINE",
"462 684 LINE SMOOTH",
"462 688 OFFCURVE",
"462 698 OFFCURVE",
"462 710 CURVE",
"466 696 OFFCURVE",
"468 690 OFFCURVE",
"470 686 CURVE SMOOTH",
"814 -24 LINE"
);
}
);
width = 1626;
},
{
anchors = (
{
name = bottom;
position = "{744, 0}";
},
{
name = top;
position = "{984, 1400}";
}
);
layerId = "42555ED7-786B-4551-A9FC-B380F510FD49";
paths = (
{
closed = 1;
nodes = (
"1358 1046 LINE SMOOTH",
"1386 1094 OFFCURVE",
"1414 1142 OFFCURVE",
"1442 1192 CURVE",
"1432 1142 OFFCURVE",
"1424 1094 OFFCURVE",
"1416 1046 CURVE SMOOTH",
"1232 0 LINE",
"1306 0 LINE",
"1552 1400 LINE",
"1482 1400 LINE",
"866 336 LINE SMOOTH",
"834 282 OFFCURVE",
"800 224 OFFCURVE",
"768 164 CURVE",
"756 222 OFFCURVE",
"742 284 OFFCURVE",
"730 336 CURVE SMOOTH",
"486 1400 LINE",
"420 1400 LINE",
"174 0 LINE",
"248 0 LINE",
"432 1046 LINE SMOOTH",
"440 1090 OFFCURVE",
"452 1156 OFFCURVE",
"458 1196 CURVE",
"470 1140 OFFCURVE",
"480 1094 OFFCURVE",
"492 1046 CURVE SMOOTH",
"740 -24 LINE"
);
}
);
width = 1552;
},
{
anchors = (
{
name = bottom;
position = "{770, 0}";
},
{
name = top;
position = "{1010, 1400}";
}
);
layerId = "DEEEE81F-2F80-4306-8755-EEA92C96C68A";
paths = (
{
closed = 1;
nodes = (
"1192 658 LINE SMOOTH",
"1214 694 OFFCURVE",
"1230 726 OFFCURVE",
"1256 778 CURVE",
"1250 756 OFFCURVE",
"1236 692 OFFCURVE",
"1230 660 CURVE SMOOTH",
"1116 0 LINE",
"1420 0 LINE",
"1666 1400 LINE",
"1360 1400 LINE",
"924 716 LINE SMOOTH",
"894 670 OFFCURVE",
"884 646 OFFCURVE",
"870 612 CURVE",
"866 642 OFFCURVE",
"862 672 OFFCURVE",
"844 746 CURVE SMOOTH",
"678 1400 LINE",
"366 1400 LINE",
"120 0 LINE",
"422 0 LINE",
"538 662 LINE SMOOTH",
"544 692 OFFCURVE",
"552 760 OFFCURVE",
"554 780 CURVE",
"560 732 OFFCURVE",
"566 694 OFFCURVE",
"576 660 CURVE SMOOTH",
"768 -24 LINE"
);
}
);
width = 1538;
},
{
anchors = (
{
name = bottom;
position = "{804, 0}";
},
{
name = top;
position = "{802, 1400}";
}
);
layerId = "07B4BFD6-AD6C-43B6-9499-C92B9E22D320";
paths = (
{
closed = 1;
nodes = (
"1180 856 LINE SMOOTH",
"1200 904 OFFCURVE",
"1226 968 OFFCURVE",
"1242 1014 CURVE",
"1240 978 OFFCURVE",
"1238 908 OFFCURVE",
"1238 860 CURVE SMOOTH",
"1238 0 LINE",
"1412 0 LINE",
"1412 1400 LINE",
"1246 1400 LINE",
"840 458 LINE SMOOTH",
"826 426 OFFCURVE",
"814 394 OFFCURVE",
"804 364 CURVE",
"792 396 OFFCURVE",
"780 428 OFFCURVE",
"768 458 CURVE SMOOTH",
"360 1400 LINE",
"196 1400 LINE",
"196 0 LINE",
"370 0 LINE",
"370 860 LINE SMOOTH",
"370 908 OFFCURVE",
"368 976 OFFCURVE",
"364 1012 CURVE",
"380 966 OFFCURVE",
"404 906 OFFCURVE",
"424 860 CURVE SMOOTH",
"804 -24 LINE"
);
}
);
width = 1608;
},
{
anchors = (
{
name = bottom;
position = "{762, 0}";
},
{
name = top;
position = "{1000, 1400}";
}
);
layerId = "77C27521-0479-4645-83A2-7244263DD4C5";
paths = (
{
closed = 1;
nodes = (
"1318 908 LINE SMOOTH",
"1330 926 OFFCURVE",
"1352 964 OFFCURVE",
"1364 990 CURVE",
"1360 974 OFFCURVE",
"1350 924 OFFCURVE",
"1346 902 CURVE SMOOTH",
"1186 0 LINE",
"1360 0 LINE",
"1606 1400 LINE",
"1438 1400 LINE",
"874 472 LINE SMOOTH",
"858 446 OFFCURVE",
"834 406 OFFCURVE",
"820 376 CURVE",
"816 410 OFFCURVE",
"808 448 OFFCURVE",
"800 482 CURVE SMOOTH",
"596 1400 LINE",
"428 1400 LINE",
"182 0 LINE",
"356 0 LINE",
"512 898 LINE SMOOTH",
"516 920 OFFCURVE",
"522 956 OFFCURVE",
"526 982 CURVE",
"530 952 OFFCURVE",
"536 922 OFFCURVE",
"542 900 CURVE SMOOTH",
"754 -24 LINE"
);
}
);
width = 1540;
}
);
leftKerningGroup = B;
leftMetricsKey = B;
rightKerningGroup = H;
rightMetricsKey = H;
unicode = 004D;
},
{
glyphname = N;
lastChange = "2020-09-15 16:22:47 +0000";
layers = (
{
anchors = (
{
name = bottom;
position = "{682, 0}";
},
{
name = bottomleft;
position = "{220, 0}";
},
{
name = top;
position = "{682, 1400}";
}
);
layerId = "3BB16070-9AE0-46D6-9B05-19A363C2D547";
paths = (
{
closed = 1;
nodes = (
"292 0 LINE",
"292 1162 LINE SMOOTH",
"292 1196 OFFCURVE",
"292 1230 OFFCURVE",
"292 1264 CURVE",
"312 1230 OFFCURVE",
"334 1194 OFFCURVE",
"354 1162 CURVE SMOOTH",
"1072 0 LINE",
"1142 0 LINE",
"1142 1400 LINE",
"1070 1400 LINE",
"1070 238 LINE SMOOTH",
"1070 204 OFFCURVE",
"1070 170 OFFCURVE",
"1070 136 CURVE",
"1050 170 OFFCURVE",
"1028 206 OFFCURVE",
"1008 238 CURVE SMOOTH",
"290 1400 LINE",
"220 1400 LINE",
"220 0 LINE"
);
}
);
width = 1362;
},
{
anchors = (
{
name = bottom;
position = "{724, 0}";
},
{
name = bottomleft;
position = "{146, 0}";
},
{
name = top;
position = "{744, 1400}";
}
);
layerId = "1D708A55-1947-4475-A0A3-21124B6DD42B";
paths = (
{
closed = 1;
nodes = (
"458 0 LINE",
"458 716 LINE SMOOTH",
"458 742 OFFCURVE",
"458 788 OFFCURVE",
"452 824 CURVE",
"466 792 OFFCURVE",
"498 734 OFFCURVE",
"512 716 CURVE SMOOTH",
"1030 0 LINE",
"1304 0 LINE",
"1304 1400 LINE",
"990 1400 LINE",
"990 692 LINE SMOOTH",
"990 672 OFFCURVE",
"992 612 OFFCURVE",
"996 586 CURVE",
"984 616 OFFCURVE",
"950 672 OFFCURVE",
"938 690 CURVE SMOOTH",
"432 1400 LINE",
"146 1400 LINE",
"146 0 LINE"
);
}
);
width = 1450;
},
{
anchors = (
{
name = bottom;
position = "{626, 0}";
},
{
name = bottomleft;
position = "{174, 0}";
},
{
name = top;
position = "{872, 1400}";
}
);
layerId = "42555ED7-786B-4551-A9FC-B380F510FD49";
paths = (
{
closed = 1;
nodes = (
"248 0 LINE",
"432 1046 LINE SMOOTH",
"444 1112 OFFCURVE",
"458 1192 OFFCURVE",
"470 1266 CURVE",
"500 1190 OFFCURVE",
"532 1114 OFFCURVE",
"562 1046 CURVE SMOOTH",
"1010 0 LINE",
"1080 0 LINE",
"1326 1400 LINE",
"1252 1400 LINE",
"1068 350 LINE SMOOTH",
"1056 286 OFFCURVE",
"1042 206 OFFCURVE",
"1030 134 CURVE",
"1000 206 OFFCURVE",
"968 282 OFFCURVE",
"938 350 CURVE SMOOTH",
"490 1400 LINE",
"420 1400 LINE",
"174 0 LINE"
);
}
);
width = 1326;
},
{
anchors = (
{
name = bottom;
position = "{682, 0}";
},
{
name = bottomleft;
position = "{120, 0}";
},
{
name = top;
position = "{928, 1400}";
}
);
layerId = "DEEEE81F-2F80-4306-8755-EEA92C96C68A";
paths = (
{
closed = 1;
nodes = (
"420 0 LINE",
"552 752 LINE SMOOTH",
"558 784 OFFCURVE",
"564 832 OFFCURVE",
"564 868 CURVE",
"576 824 OFFCURVE",
"592 780 OFFCURVE",
"604 756 CURVE SMOOTH",
"980 0 LINE",
"1244 0 LINE",
"1490 1400 LINE",
"1190 1400 LINE",
"1064 684 LINE SMOOTH",
"1058 650 OFFCURVE",
"1052 598 OFFCURVE",
"1050 550 CURVE",
"1040 596 OFFCURVE",
"1016 648 OFFCURVE",
"1002 678 CURVE SMOOTH",
"650 1400 LINE",
"366 1400 LINE",
"120 0 LINE"
);
}
);
width = 1362;
},
{
anchors = (
{
name = bottom;
position = "{710, 0}";
},
{
name = bottomleft;
position = "{196, 0}";
},
{
name = top;
position = "{718, 1400}";
}
);
layerId = "07B4BFD6-AD6C-43B6-9499-C92B9E22D320";
paths = (
{
closed = 1;
nodes = (
"370 0 LINE",
"370 1000 LINE SMOOTH",
"370 1032 OFFCURVE",
"368 1068 OFFCURVE",
"366 1098 CURVE",
"384 1064 OFFCURVE",
"404 1030 OFFCURVE",
"422 1000 CURVE SMOOTH",
"1052 0 LINE",
"1220 0 LINE",
"1220 1400 LINE",
"1046 1400 LINE",
"1046 402 LINE SMOOTH",
"1046 370 OFFCURVE",
"1048 334 OFFCURVE",
"1050 300 CURVE",
"1030 338 OFFCURVE",
"1012 370 OFFCURVE",
"992 404 CURVE SMOOTH",
"372 1400 LINE",
"196 1400 LINE",
"196 0 LINE"
);
}
);
width = 1416;
},
{
anchors = (
{
name = bottom;
position = "{678, 0}";
},
{
name = bottomleft;
position = "{182, 0}";
},
{
name = top;
position = "{926, 1400}";
}
);
layerId = "77C27521-0479-4645-83A2-7244263DD4C5";
paths = (
{
closed = 1;
nodes = (
"354 0 LINE",
"522 950 LINE SMOOTH",
"528 980 OFFCURVE",
"542 1064 OFFCURVE",
"544 1086 CURVE",
"552 1064 OFFCURVE",
"586 980 OFFCURVE",
"598 952 CURVE SMOOTH",
"1008 0 LINE",
"1174 0 LINE",
"1420 1400 LINE",
"1248 1400 LINE",
"1070 388 LINE SMOOTH",
"1066 360 OFFCURVE",
"1060 322 OFFCURVE",
"1056 302 CURVE",
"1050 322 OFFCURVE",
"1032 368 OFFCURVE",
"1022 390 CURVE SMOOTH",
"590 1400 LINE",
"428 1400 LINE",
"182 0 LINE"
);
}
);
width = 1354;
}
);
leftKerningGroup = B;
leftMetricsKey = B;
rightKerningGroup = H;
rightMetricsKey = H;
unicode = 004E;
},
{
glyphname = Nhookleft;
lastChange = "2021-07-22 21:23:03 +0000";
layers = (
{
anchors = (
{
name = bottom;
position = "{682, 0}";
},
{
name = top;
position = "{682, 1400}";
}
);
layerId = "3BB16070-9AE0-46D6-9B05-19A363C2D547";
paths = (
{
closed = 1;
nodes = (
"200 -410 OFFCURVE",
"292 -312 OFFCURVE",
"292 -108 CURVE SMOOTH",
"292 1162 LINE SMOOTH",
"292 1196 OFFCURVE",
"292 1230 OFFCURVE",
"292 1264 CURVE",
"311 1232 OFFCURVE",
"333 1196 OFFCURVE",
"354 1162 CURVE SMOOTH",
"1072 0 LINE",
"1142 0 LINE",
"1142 1400 LINE",
"1070 1400 LINE",
"1070 238 LINE SMOOTH",
"1070 204 OFFCURVE",
"1070 170 OFFCURVE",
"1070 136 CURVE",
"1051 168 OFFCURVE",
"1032 199 OFFCURVE",
"1008 238 CURVE SMOOTH",
"290 1400 LINE",
"220 1400 LINE",
"220 -112 LINE SMOOTH",
"220 -284 OFFCURVE",
"140 -354 OFFCURVE",
"-28 -368 CURVE",
"8 -430 LINE"
);
}
);
width = 1362;
},
{
anchors = (
{
name = bottom;
position = "{708, 0}";
},
{
name = top;
position = "{708, 1400}";
}
);
layerId = "07B4BFD6-AD6C-43B6-9499-C92B9E22D320";
paths = (
{
closed = 1;
nodes = (
"262 -424 OFFCURVE",
"370 -282 OFFCURVE",
"370 -18 CURVE SMOOTH",
"370 1000 LINE SMOOTH",
"370 1032 OFFCURVE",
"368 1068 OFFCURVE",
"366 1098 CURVE",
"384 1064 OFFCURVE",
"403 1030 OFFCURVE",
"422 1000 CURVE SMOOTH",
"1052 0 LINE",
"1220 0 LINE",
"1220 1400 LINE",
"1046 1400 LINE",
"1046 402 LINE SMOOTH",
"1046 370 OFFCURVE",
"1048 334 OFFCURVE",
"1050 300 CURVE",
"1030 338 OFFCURVE",
"1012 372 OFFCURVE",
"992 404 CURVE SMOOTH",
"372 1400 LINE",
"196 1400 LINE",
"196 -82 LINE SMOOTH",
"196 -226 OFFCURVE",
"138 -296 OFFCURVE",
"-66 -328 CURVE",
"16 -460 LINE"
);
}
);
width = 1416;
},
{
anchors = (
{
name = bottom;
position = "{726, 0}";
},
{
name = top;
position = "{726, 1400}";
}
);
layerId = "1D708A55-1947-4475-A0A3-21124B6DD42B";
paths = (
{
closed = 1;
nodes = (
"296 -440 OFFCURVE",
"458 -304 OFFCURVE",
"458 -10 CURVE SMOOTH",
"458 716 LINE SMOOTH",
"458 742 OFFCURVE",
"458 788 OFFCURVE",
"452 824 CURVE",
"466 792 OFFCURVE",
"498 735 OFFCURVE",
"512 716 CURVE SMOOTH",
"1030 0 LINE",
"1304 0 LINE",
"1304 1400 LINE",
"990 1400 LINE",
"990 692 LINE SMOOTH",
"990 672 OFFCURVE",
"992 612 OFFCURVE",
"996 586 CURVE",
"984 616 OFFCURVE",
"951 672 OFFCURVE",
"938 690 CURVE SMOOTH",
"432 1400 LINE",
"146 1400 LINE",
"146 -8 LINE SMOOTH",
"146 -164 OFFCURVE",
"68 -206 OFFCURVE",
"-146 -256 CURVE",
"10 -500 LINE"
);
}
);
width = 1450;
},
{
anchors = (
{
name = bottom;
position = "{626, 0}";
},
{
name = top;
position = "{872, 1400}";
}
);
layerId = "42555ED7-786B-4551-A9FC-B380F510FD49";
paths = (
{
closed = 1;
nodes = (
"98 -410 OFFCURVE",
"196 -292 OFFCURVE",
"234 -78 CURVE SMOOTH",
"432 1046 LINE SMOOTH",
"444 1112 OFFCURVE",
"458 1192 OFFCURVE",
"470 1266 CURVE",
"500 1190 OFFCURVE",
"533 1113 OFFCURVE",
"562 1046 CURVE SMOOTH",
"1010 0 LINE",
"1080 0 LINE",
"1326 1400 LINE",
"1252 1400 LINE",
"1068 350 LINE SMOOTH",
"1057 290 OFFCURVE",
"1042 206 OFFCURVE",
"1030 134 CURVE",
"1000 206 OFFCURVE",
"967 283 OFFCURVE",
"938 350 CURVE SMOOTH",
"490 1400 LINE",
"420 1400 LINE",
"160 -78 LINE SMOOTH",
"125 -278 OFFCURVE",
"36 -350 OFFCURVE",
"-130 -368 CURVE",
"-104 -430 LINE"
);
}
);
width = 1326;
},
{
anchors = (
{
name = bottom;
position = "{678, 0}";
},
{
name = top;
position = "{924, 1400}";
}
);
layerId = "77C27521-0479-4645-83A2-7244263DD4C5";
paths = (
{
closed = 1;
nodes = (
"182 -436 OFFCURVE",
"294 -348 OFFCURVE",
"340 -88 CURVE SMOOTH",
"522 950 LINE SMOOTH",
"527 978 OFFCURVE",
"542 1064 OFFCURVE",
"544 1086 CURVE",
"552 1064 OFFCURVE",
"586 980 OFFCURVE",
"598 952 CURVE SMOOTH",
"1008 0 LINE",
"1174 0 LINE",
"1420 1400 LINE",
"1248 1400 LINE",
"1070 388 LINE SMOOTH",
"1065 362 OFFCURVE",
"1059 322 OFFCURVE",
"1056 302 CURVE",
"1050 322 OFFCURVE",
"1032 368 OFFCURVE",
"1022 390 CURVE SMOOTH",
"590 1400 LINE",
"428 1400 LINE",
"168 -82 LINE SMOOTH",
"142 -232 OFFCURVE",
"86 -296 OFFCURVE",
"-108 -318 CURVE",
"-54 -460 LINE"
);
}
);
width = 1354;
},
{
anchors = (
{
name = bottom;
position = "{682, 0}";
},
{
name = top;
position = "{928, 1400}";
}
);
layerId = "DEEEE81F-2F80-4306-8755-EEA92C96C68A";
paths = (
{
closed = 1;
nodes = (
"264 -440 OFFCURVE",
"371 -282 OFFCURVE",
"418 -12 CURVE SMOOTH",
"552 752 LINE SMOOTH",
"558 784 OFFCURVE",
"564 832 OFFCURVE",
"564 868 CURVE",
"576 824 OFFCURVE",
"592 780 OFFCURVE",
"604 756 CURVE SMOOTH",
"980 0 LINE",
"1244 0 LINE",
"1490 1400 LINE",
"1190 1400 LINE",
"1064 684 LINE SMOOTH",
"1058 650 OFFCURVE",
"1052 598 OFFCURVE",
"1050 550 CURVE",
"1040 596 OFFCURVE",
"1017 648 OFFCURVE",
"1002 678 CURVE SMOOTH",
"650 1400 LINE",
"366 1400 LINE",
"118 -12 LINE SMOOTH",
"94 -148 OFFCURVE",
"24 -224 OFFCURVE",
"-198 -260 CURVE",
"-96 -500 LINE"
);
}
);
width = 1362;
}
);
unicode = 019D;
},
{
glyphname = Eng;
lastChange = "2020-09-15 16:22:47 +0000";
layers = (
{
layerId = "3BB16070-9AE0-46D6-9B05-19A363C2D547";
paths = (
{
closed = 1;
nodes = (
"936 -480 OFFCURVE",
"1010 -456 OFFCURVE",
"1064 -402 CURVE SMOOTH",
"1112 -354 OFFCURVE",
"1142 -278 OFFCURVE",
"1142 -160 CURVE SMOOTH",
"1142 1400 LINE",
"1070 1400 LINE",
"1070 238 LINE SMOOTH",
"1070 204 OFFCURVE",
"1070 170 OFFCURVE",
"1070 136 CURVE",
"1050 170 OFFCURVE",
"1028 206 OFFCURVE",
"1008 238 CURVE SMOOTH",
"290 1400 LINE",
"220 1400 LINE",
"220 0 LINE",
"292 0 LINE",
"292 1162 LINE SMOOTH",
"292 1196 OFFCURVE",
"292 1230 OFFCURVE",
"292 1264 CURVE",
"312 1228 OFFCURVE",
"334 1192 OFFCURVE",
"354 1160 CURVE SMOOTH",
"1070 2 LINE",
"1070 -164 LINE SMOOTH",
"1070 -342 OFFCURVE",
"990 -412 OFFCURVE",
"820 -426 CURVE",
"856 -488 LINE"
);
}
);
width = 1362;
},
{
layerId = "1D708A55-1947-4475-A0A3-21124B6DD42B";
paths = (
{
closed = 1;
nodes = (
"970 -464 OFFCURVE",
"1108 -420 OFFCURVE",
"1202 -318 CURVE SMOOTH",
"1288 -224 OFFCURVE",
"1304 -108 OFFCURVE",
"1304 16 CURVE SMOOTH",
"1304 1400 LINE",
"990 1400 LINE",
"990 692 LINE SMOOTH",
"990 672 OFFCURVE",
"992 612 OFFCURVE",
"996 586 CURVE",
"984 616 OFFCURVE",
"950 672 OFFCURVE",
"938 690 CURVE SMOOTH",
"432 1400 LINE",
"146 1400 LINE",
"146 0 LINE",
"458 0 LINE",
"458 716 LINE SMOOTH",
"458 734 OFFCURVE",
"458 802 OFFCURVE",
"452 824 CURVE",
"464 800 OFFCURVE",
"496 738 OFFCURVE",
"514 712 CURVE SMOOTH",
"1000 46 LINE",
"1000 -36 LINE SMOOTH",
"1000 -138 OFFCURVE",
"928 -186 OFFCURVE",
"694 -236 CURVE",
"852 -488 LINE"
);
}
);
width = 1450;
},
{
layerId = "42555ED7-786B-4551-A9FC-B380F510FD49";
paths = (
{
closed = 1;
nodes = (
"790 -480 OFFCURVE",
"854 -464 OFFCURVE",
"908 -426 CURVE SMOOTH",
"976 -378 OFFCURVE",
"1028 -298 OFFCURVE",
"1052 -160 CURVE SMOOTH",
"1326 1400 LINE",
"1252 1400 LINE",
"1068 350 LINE SMOOTH",
"1056 286 OFFCURVE",
"1042 206 OFFCURVE",
"1030 134 CURVE",
"1000 206 OFFCURVE",
"968 282 OFFCURVE",
"938 350 CURVE SMOOTH",
"490 1400 LINE",
"420 1400 LINE",
"174 0 LINE",
"248 0 LINE",
"432 1046 LINE SMOOTH",
"444 1112 OFFCURVE",
"458 1192 OFFCURVE",
"470 1266 CURVE",
"500 1190 OFFCURVE",
"532 1114 OFFCURVE",
"562 1046 CURVE SMOOTH",
"1006 10 LINE",
"978 -144 LINE SMOOTH",
"946 -320 OFFCURVE",
"864 -412 OFFCURVE",
"692 -426 CURVE",
"720 -488 LINE"
);
}
);
width = 1326;
},
{
layerId = "DEEEE81F-2F80-4306-8755-EEA92C96C68A";
paths = (
{
closed = 1;
nodes = (
"834 -460 OFFCURVE",
"968 -416 OFFCURVE",
"1092 -300 CURVE SMOOTH",
"1196 -202 OFFCURVE",
"1230 -66 OFFCURVE",
"1252 54 CURVE SMOOTH",
"1490 1400 LINE",
"1190 1400 LINE",
"1064 684 LINE SMOOTH",
"1058 650 OFFCURVE",
"1052 598 OFFCURVE",
"1050 550 CURVE",
"1040 596 OFFCURVE",
"1016 648 OFFCURVE",
"1002 678 CURVE SMOOTH",
"650 1400 LINE",
"366 1400 LINE",
"120 0 LINE",
"420 0 LINE",
"552 752 LINE SMOOTH",
"558 784 OFFCURVE",
"564 832 OFFCURVE",
"564 868 CURVE",
"576 824 OFFCURVE",
"592 780 OFFCURVE",
"604 756 CURVE SMOOTH",
"964 32 LINE",
"952 -26 LINE SMOOTH",
"926 -152 OFFCURVE",
"850 -196 OFFCURVE",
"616 -254 CURVE",
"722 -488 LINE"
);
}
);
width = 1361;
},
{
layerId = "07B4BFD6-AD6C-43B6-9499-C92B9E22D320";
paths = (
{
closed = 1;
nodes = (
"950 -472 OFFCURVE",
"1040 -440 OFFCURVE",
"1112 -370 CURVE SMOOTH",
"1192 -292 OFFCURVE",
"1220 -178 OFFCURVE",
"1220 -52 CURVE SMOOTH",
"1220 1400 LINE",
"1046 1400 LINE",
"1046 402 LINE SMOOTH",
"1046 370 OFFCURVE",
"1048 334 OFFCURVE",
"1050 300 CURVE",
"1030 338 OFFCURVE",
"1012 370 OFFCURVE",
"992 404 CURVE SMOOTH",
"372 1400 LINE",
"196 1400 LINE",
"196 0 LINE",
"370 0 LINE",
"370 1000 LINE SMOOTH",
"370 1032 OFFCURVE",
"368 1068 OFFCURVE",
"366 1098 CURVE",
"384 1064 OFFCURVE",
"402 1032 OFFCURVE",
"422 1002 CURVE SMOOTH",
"1040 18 LINE",
"1040 -102 LINE SMOOTH",
"1040 -230 OFFCURVE",
"982 -324 OFFCURVE",
"778 -356 CURVE",
"860 -488 LINE"
);
}
);
width = 1416;
},
{
layerId = "77C27521-0479-4645-83A2-7244263DD4C5";
paths = (
{
closed = 1;
nodes = (
"842 -478 OFFCURVE",
"930 -458 OFFCURVE",
"1006 -404 CURVE SMOOTH",
"1080 -350 OFFCURVE",
"1126 -266 OFFCURVE",
"1148 -142 CURVE SMOOTH",
"1420 1400 LINE",
"1248 1400 LINE",
"1070 388 LINE SMOOTH",
"1066 364 OFFCURVE",
"1060 328 OFFCURVE",
"1056 302 CURVE",
"1050 322 OFFCURVE",
"1032 368 OFFCURVE",
"1022 390 CURVE SMOOTH",
"590 1400 LINE",
"428 1400 LINE",
"182 0 LINE",
"354 0 LINE",
"522 950 LINE SMOOTH",
"528 980 OFFCURVE",
"542 1064 OFFCURVE",
"544 1086 CURVE",
"552 1064 OFFCURVE",
"586 980 OFFCURVE",
"598 952 CURVE SMOOTH",
"1004 8 LINE",
"978 -146 LINE SMOOTH",
"958 -266 OFFCURVE",
"898 -324 OFFCURVE",
"700 -350 CURVE",
"756 -488 LINE"
);
}
);
width = 1353;
}
);
leftKerningGroup = B;
leftMetricsKey = N;
rightKerningGroup = H;
rightMetricsKey = N;
unicode = 014A;
},
{
glyphname = O;
lastChange = "2021-03-01 22:48:59 +0000";
layers = (
{
anchors = (
{
name = bottom;
position = "{716, 0}";
},
{
name = center;
position = "{716, 700}";
},
{
name = ogonek;
position = "{930, 20}";
},
{
name = right;
position = "{1186, 928}";
},
{
name = top;
position = "{716, 1400}";
},
{
name = topleft;
position = "{30, 1400}";
},
{
name = topright;
position = "{1402, 1400}";
}
);
layerId = "3BB16070-9AE0-46D6-9B05-19A363C2D547";
paths = (
{
closed = 1;
nodes = (
"1116 -24 OFFCURVE",
"1262 354 OFFCURVE",
"1262 700 CURVE SMOOTH",
"1262 1046 OFFCURVE",
"1116 1424 OFFCURVE",
"716 1424 CURVE SMOOTH",
"316 1424 OFFCURVE",
"170 1046 OFFCURVE",
"170 700 CURVE SMOOTH",
"170 354 OFFCURVE",
"316 -24 OFFCURVE",
"716 -24 CURVE SMOOTH"
);
},
{
closed = 1;
nodes = (
"368 48 OFFCURVE",
"248 368 OFFCURVE",
"248 700 CURVE SMOOTH",
"248 1004 OFFCURVE",
"368 1352 OFFCURVE",
"716 1352 CURVE SMOOTH",
"1064 1352 OFFCURVE",
"1184 1032 OFFCURVE",
"1184 700 CURVE SMOOTH",
"1184 396 OFFCURVE",
"1064 48 OFFCURVE",
"716 48 CURVE SMOOTH"
);
}
);
width = 1432;
},
{
anchors = (
{
name = bottom;
position = "{718, 0}";
},
{
name = center;
position = "{718, 700}";
},
{
name = ogonek;
position = "{960, 20}";
},
{
name = right;
position = "{1204, 928}";
},
{
name = top;
position = "{718, 1400}";
},
{
name = topleft;
position = "{6, 1400}";
},
{
name = topright;
position = "{1428, 1400}";
}
);
layerId = "1D708A55-1947-4475-A0A3-21124B6DD42B";
paths = (
{
closed = 1;
nodes = (
"1170 -24 OFFCURVE",
"1338 354 OFFCURVE",
"1338 700 CURVE SMOOTH",
"1338 1046 OFFCURVE",
"1170 1424 OFFCURVE",
"718 1424 CURVE SMOOTH",
"266 1424 OFFCURVE",
"96 1046 OFFCURVE",
"96 700 CURVE SMOOTH",
"96 354 OFFCURVE",
"266 -24 OFFCURVE",
"718 -24 CURVE SMOOTH"
);
},
{
closed = 1;
nodes = (
"498 282 OFFCURVE",
"424 512 OFFCURVE",
"424 700 CURVE SMOOTH",
"424 882 OFFCURVE",
"494 1120 OFFCURVE",
"718 1120 CURVE SMOOTH",
"940 1120 OFFCURVE",
"1010 892 OFFCURVE",
"1010 700 CURVE SMOOTH",
"1010 518 OFFCURVE",
"932 282 OFFCURVE",
"718 282 CURVE SMOOTH"
);
}
);
width = 1434;
},
{
anchors = (
{
name = bottom;
position = "{669, 0}";
},
{
name = center;
position = "{783, 700}";
},
{
name = ogonek;
position = "{891, 20}";
},
{
name = right;
position = "{1263, 928}";
},
{
name = top;
position = "{901, 1400}";
},
{
name = topleft;
position = "{183, 1400}";
},
{
name = topright;
position = "{1519, 1400}";
}
);
layerId = "42555ED7-786B-4551-A9FC-B380F510FD49";
paths = (
{
closed = 1;
nodes = (
"1139 -24 OFFCURVE",
"1333 482 OFFCURVE",
"1333 870 CURVE SMOOTH",
"1333 1158 OFFCURVE",
"1223 1424 OFFCURVE",
"905 1424 CURVE SMOOTH",
"433 1424 OFFCURVE",
"231 922 OFFCURVE",
"231 540 CURVE SMOOTH",
"231 258 OFFCURVE",
"353 -24 OFFCURVE",
"667 -24 CURVE SMOOTH"
);
},
{
closed = 1;
nodes = (
"405 48 OFFCURVE",
"307 274 OFFCURVE",
"307 532 CURVE SMOOTH",
"307 882 OFFCURVE",
"479 1352 OFFCURVE",
"895 1352 CURVE SMOOTH",
"1163 1352 OFFCURVE",
"1257 1124 OFFCURVE",
"1257 872 CURVE SMOOTH",
"1257 522 OFFCURVE",
"1093 48 OFFCURVE",
"677 48 CURVE SMOOTH"
);
}
);
width = 1393;
},
{
anchors = (
{
name = bottom;
position = "{752, 0}";
},
{
name = center;
position = "{820, 700}";
},
{
name = ogonek;
position = "{994, 20}";
},
{
name = right;
position = "{1280, 928}";
},
{
name = top;
position = "{890, 1400}";
},
{
name = topleft;
position = "{190, 1400}";
},
{
name = topright;
position = "{1526, 1400}";
}
);
layerId = "DEEEE81F-2F80-4306-8755-EEA92C96C68A";
paths = (
{
closed = 1;
nodes = (
"1160 -24 OFFCURVE",
"1432 330 OFFCURVE",
"1432 800 CURVE SMOOTH",
"1432 1122 OFFCURVE",
"1260 1424 OFFCURVE",
"894 1424 CURVE SMOOTH",
"466 1424 OFFCURVE",
"210 1062 OFFCURVE",
"210 614 CURVE SMOOTH",
"210 290 OFFCURVE",
"360 -24 OFFCURVE",
"766 -24 CURVE SMOOTH"
);
},
{
closed = 1;
nodes = (
"576 268 OFFCURVE",
"510 450 OFFCURVE",
"510 614 CURVE SMOOTH",
"510 878 OFFCURVE",
"652 1132 OFFCURVE",
"872 1132 CURVE SMOOTH",
"1062 1132 OFFCURVE",
"1132 958 OFFCURVE",
"1132 800 CURVE SMOOTH",
"1132 488 OFFCURVE",
"978 268 OFFCURVE",
"764 268 CURVE SMOOTH"
);
}
);
width = 1392;
},
{
anchors = (
{
name = bottom;
position = "{730, 0}";
},
{
name = center;
position = "{730, 700}";
},
{
name = ogonek;
position = "{966, 20}";
},
{
name = right;
position = "{1214, 928}";
},
{
name = top;
position = "{730, 1400}";
},
{
name = topleft;
position = "{30, 1400}";
},
{
name = topright;
position = "{1430, 1400}";
}
);
layerId = "07B4BFD6-AD6C-43B6-9499-C92B9E22D320";
paths = (
{
closed = 1;
nodes = (
"1172 -24 OFFCURVE",
"1324 354 OFFCURVE",
"1324 700 CURVE SMOOTH",
"1324 1046 OFFCURVE",
"1172 1424 OFFCURVE",
"730 1424 CURVE SMOOTH",
"290 1424 OFFCURVE",
"136 1046 OFFCURVE",
"136 700 CURVE SMOOTH",
"136 354 OFFCURVE",
"290 -24 OFFCURVE",
"730 -24 CURVE SMOOTH"
);
},
{
closed = 1;
nodes = (
"424 140 OFFCURVE",
"316 426 OFFCURVE",
"316 700 CURVE SMOOTH",
"316 954 OFFCURVE",
"424 1262 OFFCURVE",
"730 1262 CURVE SMOOTH",
"1038 1262 OFFCURVE",
"1144 974 OFFCURVE",
"1144 700 CURVE SMOOTH",
"1144 448 OFFCURVE",
"1038 140 OFFCURVE",
"730 140 CURVE SMOOTH"
);
}
);
width = 1460;
},
{
anchors = (
{
name = bottom;
position = "{708, 0}";
},
{
name = center;
position = "{812, 700}";
},
{
name = ogonek;
position = "{940, 20}";
},
{
name = right;
position = "{1288, 928}";
},
{
name = top;
position = "{914, 1400}";
},
{
name = topleft;
position = "{182, 1400}";
},
{
name = topright;
position = "{1518, 1400}";
}
);
layerId = "77C27521-0479-4645-83A2-7244263DD4C5";
paths = (
{
closed = 1;
nodes = (
"1168 -24 OFFCURVE",
"1396 446 OFFCURVE",
"1396 858 CURVE SMOOTH",
"1396 1140 OFFCURVE",
"1260 1424 OFFCURVE",
"918 1424 CURVE SMOOTH",
"454 1424 OFFCURVE",
"230 954 OFFCURVE",
"230 546 CURVE SMOOTH",
"230 250 OFFCURVE",
"364 -24 OFFCURVE",
"712 -24 CURVE SMOOTH"
);
},
{
closed = 1;
nodes = (
"488 136 OFFCURVE",
"402 334 OFFCURVE",
"402 546 CURVE SMOOTH",
"402 872 OFFCURVE",
"568 1264 OFFCURVE",
"914 1264 CURVE SMOOTH",
"1138 1264 OFFCURVE",
"1224 1058 OFFCURVE",
"1224 858 CURVE SMOOTH",
"1224 522 OFFCURVE",
"1054 136 OFFCURVE",
"712 136 CURVE SMOOTH"
);
}
);
width = 1380;
}
);
leftKerningGroup = C;
leftMetricsKey = C;
rightKerningGroup = O;
unicode = 004F;
},
{
color = 4;
glyphname = Oopen;
lastChange = "2020-12-30 00:01:48 +0000";
layers = (
{
anchors = (
{
name = bottom;
position = "{584, 0}";
},
{
name = top;
position = "{585, 1400}";
}
);
layerId = "3BB16070-9AE0-46D6-9B05-19A363C2D547";
paths = (
{
closed = 1;
nodes = (
"974 -24 OFFCURVE",
"1131 334 OFFCURVE",
"1131 700 CURVE SMOOTH",
"1131 1072 OFFCURVE",
"971 1424 OFFCURVE",
"585 1424 CURVE SMOOTH",
"354 1424 OFFCURVE",
"237 1305 OFFCURVE",
"170 1198 CURVE",
"232 1162 LINE",
"289 1249 OFFCURVE",
"390 1352 OFFCURVE",
"585 1352 CURVE SMOOTH",
"930 1352 OFFCURVE",
"1053 1036 OFFCURVE",
"1053 700 CURVE SMOOTH",
"1053 368 OFFCURVE",
"920 48 OFFCURVE",
"583 48 CURVE SMOOTH",
"380 48 OFFCURVE",
"264 164 OFFCURVE",
"216 258 CURVE",
"150 232 LINE",
"209 116 OFFCURVE",
"342 -24 OFFCURVE",
"583 -24 CURVE SMOOTH"
);
}
);
width = 1301;
},
{
anchors = (
{
name = bottom;
position = "{599, 0}";
},
{
name = top;
position = "{598, 1400}";
}
);
layerId = "07B4BFD6-AD6C-43B6-9499-C92B9E22D320";
paths = (
{
closed = 1;
nodes = (
"1036 -24 OFFCURVE",
"1192 344 OFFCURVE",
"1192 700 CURVE SMOOTH",
"1192 1052 OFFCURVE",
"1038 1424 OFFCURVE",
"599 1424 CURVE SMOOTH",
"350 1424 OFFCURVE",
"194 1292 OFFCURVE",
"127 1172 CURVE",
"283 1092 LINE",
"354 1187 OFFCURVE",
"434 1262 OFFCURVE",
"599 1262 CURVE SMOOTH",
"922 1262 OFFCURVE",
"1012 956 OFFCURVE",
"1012 700 CURVE SMOOTH",
"1012 422 OFFCURVE",
"892 140 OFFCURVE",
"599 140 CURVE SMOOTH",
"432 140 OFFCURVE",
"338 215 OFFCURVE",
"274 318 CURVE",
"114 258 LINE",
"186 105 OFFCURVE",
"340 -24 OFFCURVE",
"599 -24 CURVE SMOOTH"
);
}
);
width = 1328;
},
{
anchors = (
{
name = bottom;
position = "{610, 0}";
},
{
name = top;
position = "{610, 1400}";
}
);
layerId = "1D708A55-1947-4475-A0A3-21124B6DD42B";
paths = (
{
closed = 1;
nodes = (
"1069 -24 OFFCURVE",
"1231 354 OFFCURVE",
"1231 700 CURVE SMOOTH",
"1231 1018 OFFCURVE",
"1077 1424 OFFCURVE",
"610 1424 CURVE SMOOTH",
"319 1424 OFFCURVE",
"141 1250 OFFCURVE",
"71 1076 CURVE",
"353 950 LINE",
"413 1056 OFFCURVE",
"498 1120 OFFCURVE",
"609 1120 CURVE SMOOTH",
"839 1120 OFFCURVE",
"903 886 OFFCURVE",
"903 700 CURVE SMOOTH",
"903 508 OFFCURVE",
"825 282 OFFCURVE",
"609 282 CURVE SMOOTH",
"493 282 OFFCURVE",
"412 337 OFFCURVE",
"346 464 CURVE",
"58 356 LINE",
"150 136 OFFCURVE",
"331 -24 OFFCURVE",
"610 -24 CURVE SMOOTH"
);
}
);
width = 1327;
},
{
anchors = (
{
name = bottom;
position = "{584, 0}";
},
{
name = top;
position = "{810, 1400}";
}
);
layerId = "42555ED7-786B-4551-A9FC-B380F510FD49";
paths = (
{
closed = 1;
nodes = (
"997 -24 OFFCURVE",
"1233 430 OFFCURVE",
"1233 870 CURVE SMOOTH",
"1233 1241 OFFCURVE",
"1067 1424 OFFCURVE",
"808 1424 CURVE SMOOTH",
"577 1424 OFFCURVE",
"436 1314 OFFCURVE",
"347 1198 CURVE",
"402 1162 LINE",
"484 1258 OFFCURVE",
"600 1352 OFFCURVE",
"805 1352 CURVE SMOOTH",
"1014 1352 OFFCURVE",
"1157 1196 OFFCURVE",
"1157 872 CURVE SMOOTH",
"1157 466 OFFCURVE",
"959 48 OFFCURVE",
"583 48 CURVE SMOOTH",
"385 48 OFFCURVE",
"289 164 OFFCURVE",
"258 258 CURVE",
"192 232 LINE",
"231 127 OFFCURVE",
"330 -24 OFFCURVE",
"580 -24 CURVE SMOOTH"
);
}
);
width = 1293;
},
{
anchors = (
{
name = bottom;
position = "{652, 0}";
},
{
name = top;
position = "{857, 1400}";
}
);
layerId = "77C27521-0479-4645-83A2-7244263DD4C5";
paths = (
{
closed = 1;
nodes = (
"1108 -24 OFFCURVE",
"1336 446 OFFCURVE",
"1336 858 CURVE SMOOTH",
"1336 1140 OFFCURVE",
"1200 1424 OFFCURVE",
"858 1424 CURVE SMOOTH",
"648 1424 OFFCURVE",
"480 1328 OFFCURVE",
"372 1179 CURVE",
"518 1097 LINE",
"600 1198 OFFCURVE",
"712 1264 OFFCURVE",
"854 1264 CURVE SMOOTH",
"1078 1264 OFFCURVE",
"1164 1058 OFFCURVE",
"1164 858 CURVE SMOOTH",
"1164 522 OFFCURVE",
"994 136 OFFCURVE",
"652 136 CURVE SMOOTH",
"514 136 OFFCURVE",
"426 212 OFFCURVE",
"381 320 CURVE",
"220 264 LINE",
"282 98 OFFCURVE",
"424 -24 OFFCURVE",
"652 -24 CURVE SMOOTH"
);
}
);
width = 1320;
},
{
anchors = (
{
name = bottom;
position = "{691, 0}";
},
{
name = top;
position = "{816, 1400}";
}
);
layerId = "DEEEE81F-2F80-4306-8755-EEA92C96C68A";
paths = (
{
closed = 1;
nodes = (
"1087 -24 OFFCURVE",
"1359 330 OFFCURVE",
"1359 800 CURVE SMOOTH",
"1359 1132 OFFCURVE",
"1187 1424 OFFCURVE",
"817 1424 CURVE SMOOTH",
"559 1424 OFFCURVE",
"361 1288 OFFCURVE",
"248 1080 CURVE",
"520 946 LINE",
"583 1057 OFFCURVE",
"679 1132 OFFCURVE",
"799 1132 CURVE SMOOTH",
"989 1132 OFFCURVE",
"1059 958 OFFCURVE",
"1059 800 CURVE SMOOTH",
"1059 488 OFFCURVE",
"905 268 OFFCURVE",
"701 268 CURVE SMOOTH",
"560 268 OFFCURVE",
"489 356 OFFCURVE",
"457 464 CURVE",
"171 363 LINE",
"235 145 OFFCURVE",
"405 -24 OFFCURVE",
"693 -24 CURVE SMOOTH"
);
}
);
width = 1319;
}
);
rightMetricsKey = O;
unicode = 0186;
},
{
glyphname = Oslash;
lastChange = "2020-09-15 16:22:47 +0000";
layers = (
{
anchors = (
{
name = bottom;
position = "{716, 0}";
},
{
name = top;
position = "{716, 1400}";
}
);
layerId = "3BB16070-9AE0-46D6-9B05-19A363C2D547";
paths = (
{
closed = 1;
nodes = (
"274 -24 LINE",
"366 114 LINE",
"450 30 OFFCURVE",
"564 -24 OFFCURVE",
"716 -24 CURVE SMOOTH",
"1116 -24 OFFCURVE",
"1262 354 OFFCURVE",
"1262 700 CURVE SMOOTH",
"1262 890 OFFCURVE",
"1218 1090 OFFCURVE",
"1112 1232 CURVE",
"1240 1424 LINE",
"1158 1424 LINE",
"1064 1286 LINE",
"980 1370 OFFCURVE",
"866 1424 OFFCURVE",
"716 1424 CURVE SMOOTH",
"316 1424 OFFCURVE",
"170 1046 OFFCURVE",
"170 700 CURVE SMOOTH",
"170 510 OFFCURVE",
"214 308 OFFCURVE",
"320 168 CURVE",
"192 -24 LINE"
);
},
{
closed = 1;
nodes = (
"580 48 OFFCURVE",
"478 96 OFFCURVE",
"406 174 CURVE",
"1070 1168 LINE",
"1152 1046 OFFCURVE",
"1186 874 OFFCURVE",
"1186 700 CURVE SMOOTH",
"1186 396 OFFCURVE",
"1064 48 OFFCURVE",
"716 48 CURVE SMOOTH"
);
},
{
closed = 1;
nodes = (
"278 354 OFFCURVE",
"246 524 OFFCURVE",
"246 700 CURVE SMOOTH",
"246 1004 OFFCURVE",
"368 1352 OFFCURVE",
"716 1352 CURVE SMOOTH",
"850 1352 OFFCURVE",
"952 1302 OFFCURVE",
"1024 1224 CURVE",
"362 230 LINE"
);
}
);
width = 1432;
},
{
anchors = (
{
name = bottom;
position = "{718, 0}";
},
{
name = top;
position = "{718, 1400}";
}
);
layerId = "1D708A55-1947-4475-A0A3-21124B6DD42B";
paths = (
{
closed = 1;
nodes = (
"378 -24 LINE",
"422 42 LINE",
"502 0 OFFCURVE",
"598 -24 OFFCURVE",
"718 -24 CURVE SMOOTH",
"1172 -24 OFFCURVE",
"1338 354 OFFCURVE",
"1338 700 CURVE SMOOTH",
"1338 878 OFFCURVE",
"1296 1054 OFFCURVE",
"1196 1196 CURVE",
"1346 1424 LINE",
"1056 1424 LINE",
"1012 1358 LINE",
"926 1400 OFFCURVE",
"832 1424 OFFCURVE",
"718 1424 CURVE SMOOTH",
"266 1424 OFFCURVE",
"96 1046 OFFCURVE",
"96 700 CURVE SMOOTH",
"96 524 OFFCURVE",
"138 348 OFFCURVE",
"240 206 CURVE",
"88 -24 LINE"
);
},
{
closed = 1;
nodes = (
"672 282 OFFCURVE",
"632 292 OFFCURVE",
"600 306 CURVE",
"990 890 LINE",
"1006 824 OFFCURVE",
"1010 762 OFFCURVE",
"1010 700 CURVE SMOOTH",
"1010 518 OFFCURVE",
"934 282 OFFCURVE",
"718 282 CURVE SMOOTH"
);
},
{
closed = 1;
nodes = (
"428 576 OFFCURVE",
"424 640 OFFCURVE",
"424 700 CURVE SMOOTH",
"424 882 OFFCURVE",
"494 1120 OFFCURVE",
"718 1120 CURVE SMOOTH",
"764 1120 OFFCURVE",
"802 1110 OFFCURVE",
"834 1094 CURVE",
"444 512 LINE"
);
}
);
width = 1434;
},
{
anchors = (
{
name = bottom;
position = "{672, 0}";
},
{
name = top;
position = "{900, 1400}";
}
);
layerId = "42555ED7-786B-4551-A9FC-B380F510FD49";
paths = (
{
closed = 1;
nodes = (
"218 -24 LINE",
"346 128 LINE",
"416 36 OFFCURVE",
"520 -24 OFFCURVE",
"666 -24 CURVE SMOOTH",
"1138 -24 OFFCURVE",
"1332 482 OFFCURVE",
"1332 870 CURVE SMOOTH",
"1332 996 OFFCURVE",
"1310 1116 OFFCURVE",
"1260 1214 CURVE",
"1438 1424 LINE",
"1354 1424 LINE",
"1226 1272 LINE",
"1158 1364 OFFCURVE",
"1054 1424 OFFCURVE",
"904 1424 CURVE SMOOTH",
"432 1424 OFFCURVE",
"230 922 OFFCURVE",
"230 540 CURVE SMOOTH",
"230 412 OFFCURVE",
"254 286 OFFCURVE",
"310 184 CURVE",
"134 -24 LINE"
);
},
{
closed = 1;
nodes = (
"544 48 OFFCURVE",
"452 100 OFFCURVE",
"394 186 CURVE",
"1206 1148 LINE",
"1240 1068 OFFCURVE",
"1256 972 OFFCURVE",
"1256 872 CURVE SMOOTH",
"1256 522 OFFCURVE",
"1092 48 OFFCURVE",
"676 48 CURVE SMOOTH"
);
},
{
closed = 1;
nodes = (
"324 326 OFFCURVE",
"308 426 OFFCURVE",
"308 532 CURVE SMOOTH",
"308 882 OFFCURVE",
"478 1352 OFFCURVE",
"894 1352 CURVE SMOOTH",
"1026 1352 OFFCURVE",
"1116 1296 OFFCURVE",
"1174 1210 CURVE",
"360 246 LINE"
);
}
);
width = 1392;
},
{
anchors = (
{
name = bottom;
position = "{768, 0}";
},
{
name = top;
position = "{886, 1400}";
}
);
layerId = "DEEEE81F-2F80-4306-8755-EEA92C96C68A";
paths = (
{
closed = 1;
nodes = (
"370 -24 LINE",
"446 68 LINE",
"528 8 OFFCURVE",
"634 -24 OFFCURVE",
"768 -24 CURVE SMOOTH",
"1154 -24 OFFCURVE",
"1430 328 OFFCURVE",
"1430 800 CURVE SMOOTH",
"1430 930 OFFCURVE",
"1400 1048 OFFCURVE",
"1344 1154 CURVE",
"1568 1424 LINE",
"1276 1424 LINE",
"1196 1330 LINE",
"1116 1390 OFFCURVE",
"1014 1424 OFFCURVE",
"890 1424 CURVE SMOOTH",
"468 1424 OFFCURVE",
"208 1064 OFFCURVE",
"208 614 CURVE SMOOTH",
"208 474 OFFCURVE",
"234 350 OFFCURVE",
"294 240 CURVE",
"76 -24 LINE"
);
},
{
closed = 1;
nodes = (
"712 270 OFFCURVE",
"672 282 OFFCURVE",
"638 302 CURVE",
"1122 888 LINE",
"1126 860 OFFCURVE",
"1130 832 OFFCURVE",
"1130 804 CURVE SMOOTH",
"1130 488 OFFCURVE",
"974 270 OFFCURVE",
"760 270 CURVE SMOOTH"
);
},
{
closed = 1;
nodes = (
"510 544 OFFCURVE",
"508 574 OFFCURVE",
"508 612 CURVE SMOOTH",
"508 878 OFFCURVE",
"652 1132 OFFCURVE",
"872 1132 CURVE SMOOTH",
"924 1132 OFFCURVE",
"968 1118 OFFCURVE",
"1002 1094 CURVE",
"516 506 LINE"
);
}
);
width = 1392;
},
{
anchors = (
{
name = bottom;
position = "{730, 0}";
},
{
name = top;
position = "{730, 1400}";
}
);
layerId = "07B4BFD6-AD6C-43B6-9499-C92B9E22D320";
paths = (
{
closed = 1;
nodes = (
"328 -24 LINE",
"396 76 LINE",
"482 14 OFFCURVE",
"592 -24 OFFCURVE",
"730 -24 CURVE SMOOTH",
"1170 -24 OFFCURVE",
"1324 354 OFFCURVE",
"1324 700 CURVE SMOOTH",
"1324 886 OFFCURVE",
"1280 1082 OFFCURVE",
"1170 1222 CURVE",
"1308 1424 LINE",
"1128 1424 LINE",
"1062 1326 LINE",
"976 1386 OFFCURVE",
"866 1424 OFFCURVE",
"730 1424 CURVE SMOOTH",
"288 1424 OFFCURVE",
"136 1046 OFFCURVE",
"136 700 CURVE SMOOTH",
"136 514 OFFCURVE",
"178 318 OFFCURVE",
"288 178 CURVE",
"152 -24 LINE"
);
},
{
closed = 1;
nodes = (
"630 140 OFFCURVE",
"552 170 OFFCURVE",
"492 218 CURVE",
"1062 1062 LINE",
"1120 960 OFFCURVE",
"1144 828 OFFCURVE",
"1144 700 CURVE SMOOTH",
"1144 448 OFFCURVE",
"1036 140 OFFCURVE",
"730 140 CURVE SMOOTH"
);
},
{
closed = 1;
nodes = (
"338 440 OFFCURVE",
"316 572 OFFCURVE",
"316 700 CURVE SMOOTH",
"316 954 OFFCURVE",
"422 1262 OFFCURVE",
"730 1262 CURVE SMOOTH",
"826 1262 OFFCURVE",
"904 1232 OFFCURVE",
"966 1182 CURVE",
"396 338 LINE"
);
}
);
width = 1460;
},
{
anchors = (
{
name = bottom;
position = "{702, 0}";
},
{
name = top;
position = "{926, 1400}";
}
);
layerId = "77C27521-0479-4645-83A2-7244263DD4C5";
paths = (
{
closed = 1;
nodes = (
"304 -24 LINE",
"388 80 LINE",
"462 16 OFFCURVE",
"564 -24 OFFCURVE",
"700 -24 CURVE SMOOTH",
"1182 -24 OFFCURVE",
"1396 450 OFFCURVE",
"1396 856 CURVE SMOOTH",
"1396 972 OFFCURVE",
"1372 1120 OFFCURVE",
"1318 1214 CURVE",
"1492 1424 LINE",
"1320 1424 LINE",
"1232 1318 LINE",
"1162 1384 OFFCURVE",
"1060 1424 OFFCURVE",
"928 1424 CURVE SMOOTH",
"442 1424 OFFCURVE",
"230 948 OFFCURVE",
"230 544 CURVE SMOOTH",
"230 428 OFFCURVE",
"252 280 OFFCURVE",
"306 186 CURVE",
"134 -24 LINE"
);
},
{
closed = 1;
nodes = (
"620 136 OFFCURVE",
"550 166 OFFCURVE",
"500 218 CURVE",
"1192 1060 LINE",
"1212 1004 OFFCURVE",
"1224 912 OFFCURVE",
"1224 848 CURVE SMOOTH",
"1224 522 OFFCURVE",
"1060 136 OFFCURVE",
"716 136 CURVE SMOOTH"
);
},
{
closed = 1;
nodes = (
"410 394 OFFCURVE",
"402 486 OFFCURVE",
"402 550 CURVE SMOOTH",
"402 872 OFFCURVE",
"562 1264 OFFCURVE",
"906 1264 CURVE SMOOTH",
"1002 1264 OFFCURVE",
"1070 1234 OFFCURVE",
"1120 1182 CURVE",
"430 338 LINE"
);
}
);
width = 1380;
}
);
leftKerningGroup = O;
rightKerningGroup = O;
unicode = 00D8;
},
{
glyphname = OE;
lastChange = "2020-09-15 16:22:47 +0000";
layers = (
{
anchors = (
{
name = bottom;
position = "{976, 0}";
},
{
name = top;
position = "{976, 1400}";
}
);
layerId = "3BB16070-9AE0-46D6-9B05-19A363C2D547";
paths = (
{
closed = 1;
nodes = (
"840 -24 OFFCURVE",
"932 16 OFFCURVE",
"980 48 CURVE",
"980 0 LINE",
"1660 0 LINE",
"1660 66 LINE",
"1052 66 LINE",
"1052 692 LINE",
"1402 692 LINE",
"1402 758 LINE",
"1052 758 LINE",
"1052 1334 LINE",
"1616 1334 LINE",
"1616 1400 LINE",
"980 1400 LINE",
"980 1354 LINE",
"928 1386 OFFCURVE",
"840 1424 OFFCURVE",
"726 1424 CURVE SMOOTH",
"320 1424 OFFCURVE",
"170 1052 OFFCURVE",
"170 700 CURVE SMOOTH",
"170 350 OFFCURVE",
"318 -24 OFFCURVE",
"726 -24 CURVE SMOOTH"
);
},
{
closed = 1;
nodes = (
"370 48 OFFCURVE",
"246 364 OFFCURVE",
"246 698 CURVE SMOOTH",
"246 1006 OFFCURVE",
"370 1352 OFFCURVE",
"726 1352 CURVE SMOOTH",
"816 1352 OFFCURVE",
"912 1322 OFFCURVE",
"980 1268 CURVE",
"980 138 LINE",
"928 94 OFFCURVE",
"836 48 OFFCURVE",
"726 48 CURVE SMOOTH"
);
}
);
width = 1830;
},
{
anchors = (
{
name = bottom;
position = "{1040, 0}";
},
{
name = top;
position = "{1040, 1400}";
}
);
layerId = "1D708A55-1947-4475-A0A3-21124B6DD42B";
paths = (
{
closed = 1;
nodes = (
"782 -24 OFFCURVE",
"836 -20 OFFCURVE",
"932 10 CURVE",
"932 0 LINE",
"1940 0 LINE",
"1940 302 LINE",
"1250 302 LINE",
"1250 572 LINE",
"1582 572 LINE",
"1582 872 LINE",
"1250 872 LINE",
"1250 1100 LINE",
"1900 1100 LINE",
"1900 1400 LINE",
"932 1400 LINE",
"932 1390 LINE",
"874 1410 OFFCURVE",
"800 1424 OFFCURVE",
"720 1424 CURVE SMOOTH",
"276 1424 OFFCURVE",
"96 1064 OFFCURVE",
"96 700 CURVE SMOOTH",
"96 354 OFFCURVE",
"266 -24 OFFCURVE",
"720 -24 CURVE SMOOTH"
);
},
{
closed = 1;
nodes = (
"498 282 OFFCURVE",
"424 508 OFFCURVE",
"424 700 CURVE SMOOTH",
"424 886 OFFCURVE",
"496 1120 OFFCURVE",
"720 1120 CURVE SMOOTH",
"816 1120 OFFCURVE",
"880 1082 OFFCURVE",
"932 1020 CURVE",
"932 386 LINE",
"882 320 OFFCURVE",
"808 282 OFFCURVE",
"720 282 CURVE SMOOTH"
);
}
);
width = 2014;
},
{
anchors = (
{
name = bottom;
position = "{923, 0}";
},
{
name = top;
position = "{1175, 1400}";
}
);
layerId = "42555ED7-786B-4551-A9FC-B380F510FD49";
paths = (
{
closed = 1;
nodes = (
"793 -24 OFFCURVE",
"889 14 OFFCURVE",
"943 46 CURVE",
"935 0 LINE",
"1613 0 LINE",
"1623 66 LINE",
"1019 66 LINE",
"1129 692 LINE",
"1475 692 LINE",
"1487 758 LINE",
"1141 758 LINE",
"1243 1334 LINE",
"1803 1334 LINE",
"1815 1400 LINE",
"1179 1400 LINE",
"1169 1334 LINE",
"1119 1378 OFFCURVE",
"1037 1424 OFFCURVE",
"907 1424 CURVE SMOOTH",
"435 1424 OFFCURVE",
"231 928 OFFCURVE",
"231 534 CURVE SMOOTH",
"231 258 OFFCURVE",
"355 -24 OFFCURVE",
"667 -24 CURVE SMOOTH"
);
},
{
closed = 1;
nodes = (
"405 48 OFFCURVE",
"309 276 OFFCURVE",
"309 532 CURVE SMOOTH",
"309 884 OFFCURVE",
"479 1352 OFFCURVE",
"895 1352 CURVE SMOOTH",
"1035 1352 OFFCURVE",
"1109 1290 OFFCURVE",
"1153 1240 CURVE",
"957 138 LINE",
"899 94 OFFCURVE",
"805 48 OFFCURVE",
"677 48 CURVE SMOOTH"
);
}
);
width = 1805;
},
{
anchors = (
{
name = bottom;
position = "{968, 0}";
},
{
name = top;
position = "{1260, 1400}";
}
);
layerId = "DEEEE81F-2F80-4306-8755-EEA92C96C68A";
paths = (
{
closed = 1;
nodes = (
"832 -24 OFFCURVE",
"910 -14 OFFCURVE",
"982 16 CURVE",
"980 0 LINE",
"1928 0 LINE",
"1980 290 LINE",
"1340 290 LINE",
"1388 578 LINE",
"1704 578 LINE",
"1754 866 LINE",
"1440 866 LINE",
"1484 1112 LINE",
"2084 1112 LINE",
"2134 1400 LINE",
"1226 1400 LINE",
"1214 1328 LINE",
"1112 1398 OFFCURVE",
"1008 1424 OFFCURVE",
"896 1424 CURVE SMOOTH",
"470 1424 OFFCURVE",
"210 1064 OFFCURVE",
"210 622 CURVE SMOOTH",
"210 284 OFFCURVE",
"360 -24 OFFCURVE",
"768 -24 CURVE SMOOTH"
);
},
{
closed = 1;
nodes = (
"580 270 OFFCURVE",
"510 448 OFFCURVE",
"510 612 CURVE SMOOTH",
"510 884 OFFCURVE",
"656 1132 OFFCURVE",
"868 1132 CURVE SMOOTH",
"1038 1132 OFFCURVE",
"1108 1014 OFFCURVE",
"1138 900 CURVE",
"1058 438 LINE",
"970 320 OFFCURVE",
"876 270 OFFCURVE",
"764 270 CURVE SMOOTH"
);
}
);
width = 1982;
},
{
anchors = (
{
name = bottom;
position = "{972, 0}";
},
{
name = top;
position = "{972, 1400}";
}
);
layerId = "07B4BFD6-AD6C-43B6-9499-C92B9E22D320";
paths = (
{
closed = 1;
nodes = (
"810 -24 OFFCURVE",
"888 -10 OFFCURVE",
"950 16 CURVE",
"950 0 LINE",
"1720 0 LINE",
"1720 166 LINE",
"1124 166 LINE",
"1124 642 LINE",
"1452 642 LINE",
"1452 806 LINE",
"1124 806 LINE",
"1124 1236 LINE",
"1676 1236 LINE",
"1676 1400 LINE",
"950 1400 LINE",
"950 1384 LINE",
"892 1408 OFFCURVE",
"818 1424 OFFCURVE",
"730 1424 CURVE SMOOTH",
"284 1424 OFFCURVE",
"136 1038 OFFCURVE",
"136 700 CURVE SMOOTH",
"136 352 OFFCURVE",
"290 -24 OFFCURVE",
"730 -24 CURVE SMOOTH"
);
},
{
closed = 1;
nodes = (
"424 140 OFFCURVE",
"316 422 OFFCURVE",
"316 700 CURVE SMOOTH",
"316 952 OFFCURVE",
"422 1262 OFFCURVE",
"730 1262 CURVE SMOOTH",
"820 1262 OFFCURVE",
"892 1238 OFFCURVE",
"950 1196 CURVE",
"950 206 LINE",
"888 164 OFFCURVE",
"820 140 OFFCURVE",
"730 140 CURVE SMOOTH"
);
}
);
width = 1846;
},
{
anchors = (
{
name = bottom;
position = "{921, 0}";
},
{
name = top;
position = "{1179, 1400}";
}
);
layerId = "77C27521-0479-4645-83A2-7244263DD4C5";
paths = (
{
closed = 1;
nodes = (
"785 -24 OFFCURVE",
"861 -10 OFFCURVE",
"917 14 CURVE",
"913 0 LINE",
"1661 0 LINE",
"1689 158 LINE",
"1115 158 LINE",
"1201 646 LINE",
"1509 646 LINE",
"1539 804 LINE",
"1229 804 LINE",
"1305 1242 LINE",
"1837 1242 LINE",
"1863 1400 LINE",
"1159 1400 LINE",
"1153 1366 LINE",
"1101 1400 OFFCURVE",
"1011 1424 OFFCURVE",
"921 1424 CURVE SMOOTH",
"447 1424 OFFCURVE",
"229 946 OFFCURVE",
"229 536 CURVE SMOOTH",
"229 264 OFFCURVE",
"357 -24 OFFCURVE",
"711 -24 CURVE SMOOTH"
);
},
{
closed = 1;
nodes = (
"481 136 OFFCURVE",
"401 340 OFFCURVE",
"401 552 CURVE SMOOTH",
"401 868 OFFCURVE",
"567 1264 OFFCURVE",
"913 1264 CURVE SMOOTH",
"1009 1264 OFFCURVE",
"1073 1228 OFFCURVE",
"1121 1182 CURVE",
"951 208 LINE",
"881 162 OFFCURVE",
"803 136 OFFCURVE",
"711 136 CURVE SMOOTH"
);
}
);
width = 1777;
}
);
leftKerningGroup = O;
leftMetricsKey = C;
rightKerningGroup = E;
rightMetricsKey = E;
unicode = 0152;
},
{
glyphname = P;
lastChange = "2021-03-01 22:47:40 +0000";
layers = (
{
anchors = (
{
name = bottom;
position = "{630, 0}";
},
{
name = top;
position = "{630, 1400}";
},
{
name = topleft;
position = "{220, 1400}";
}
);
layerId = "3BB16070-9AE0-46D6-9B05-19A363C2D547";
paths = (
{
closed = 1;
nodes = (
"292 0 LINE",
"292 578 LINE",
"658 578 LINE SMOOTH",
"980 578 OFFCURVE",
"1098 800 OFFCURVE",
"1098 988 CURVE SMOOTH",
"1098 1192 OFFCURVE",
"992 1400 OFFCURVE",
"658 1400 CURVE SMOOTH",
"220 1400 LINE",
"220 0 LINE"
);
},
{
closed = 1;
nodes = (
"292 1328 LINE",
"658 1328 LINE SMOOTH",
"944 1328 OFFCURVE",
"1026 1156 OFFCURVE",
"1026 988 CURVE SMOOTH",
"1026 834 OFFCURVE",
"934 650 OFFCURVE",
"658 650 CURVE SMOOTH",
"292 650 LINE"
);
}
);
width = 1194;
},
{
anchors = (
{
name = bottom;
position = "{676, 0}";
},
{
name = top;
position = "{676, 1400}";
},
{
name = topleft;
position = "{146, 1400}";
}
);
layerId = "1D708A55-1947-4475-A0A3-21124B6DD42B";
paths = (
{
closed = 1;
nodes = (
"462 0 LINE",
"462 496 LINE",
"774 496 LINE SMOOTH",
"1124 496 OFFCURVE",
"1264 738 OFFCURVE",
"1264 948 CURVE SMOOTH",
"1264 1172 OFFCURVE",
"1136 1400 OFFCURVE",
"774 1400 CURVE SMOOTH",
"146 1400 LINE",
"146 0 LINE"
);
},
{
closed = 1;
nodes = (
"462 1102 LINE",
"786 1102 LINE SMOOTH",
"900 1102 OFFCURVE",
"936 1014 OFFCURVE",
"936 948 CURVE SMOOTH",
"936 874 OFFCURVE",
"894 794 OFFCURVE",
"786 794 CURVE SMOOTH",
"462 794 LINE"
);
}
);
width = 1288;
},
{
anchors = (
{
name = bottom;
position = "{572, 0}";
},
{
name = top;
position = "{818, 1400}";
},
{
name = topleft;
position = "{420, 1400}";
}
);
layerId = "42555ED7-786B-4551-A9FC-B380F510FD49";
paths = (
{
closed = 1;
nodes = (
"248 0 LINE",
"350 578 LINE",
"694 578 LINE SMOOTH",
"1056 578 OFFCURVE",
"1214 840 OFFCURVE",
"1214 1046 CURVE SMOOTH",
"1214 1230 OFFCURVE",
"1120 1400 OFFCURVE",
"822 1400 CURVE SMOOTH",
"420 1400 LINE",
"174 0 LINE"
);
},
{
closed = 1;
nodes = (
"480 1328 LINE",
"816 1328 LINE SMOOTH",
"1062 1328 OFFCURVE",
"1134 1198 OFFCURVE",
"1134 1046 CURVE SMOOTH",
"1134 866 OFFCURVE",
"1000 650 OFFCURVE",
"698 650 CURVE SMOOTH",
"364 650 LINE"
);
}
);
width = 1158;
},
{
anchors = (
{
name = bottom;
position = "{644, 0}";
},
{
name = top;
position = "{890, 1400}";
},
{
name = topleft;
position = "{366, 1400}";
}
);
layerId = "DEEEE81F-2F80-4306-8755-EEA92C96C68A";
paths = (
{
closed = 1;
nodes = (
"426 0 LINE",
"514 500 LINE",
"850 500 LINE SMOOTH",
"1178 500 OFFCURVE",
"1376 722 OFFCURVE",
"1376 986 CURVE SMOOTH",
"1376 1180 OFFCURVE",
"1272 1400 OFFCURVE",
"976 1400 CURVE SMOOTH",
"366 1400 LINE",
"120 0 LINE"
);
},
{
closed = 1;
nodes = (
"624 1110 LINE",
"938 1110 LINE SMOOTH",
"1036 1110 OFFCURVE",
"1062 1042 OFFCURVE",
"1062 956 CURVE SMOOTH",
"1062 888 OFFCURVE",
"1010 790 OFFCURVE",
"880 790 CURVE SMOOTH",
"566 790 LINE"
);
}
);
width = 1242;
},
{
anchors = (
{
name = bottom;
position = "{662, 0}";
},
{
name = top;
position = "{662, 1400}";
},
{
name = topleft;
position = "{196, 1400}";
}
);
layerId = "07B4BFD6-AD6C-43B6-9499-C92B9E22D320";
paths = (
{
closed = 1;
nodes = (
"370 0 LINE",
"370 562 LINE",
"732 562 LINE SMOOTH",
"1060 562 OFFCURVE",
"1184 788 OFFCURVE",
"1184 980 CURVE SMOOTH",
"1184 1188 OFFCURVE",
"1072 1400 OFFCURVE",
"732 1400 CURVE SMOOTH",
"196 1400 LINE",
"196 0 LINE"
);
},
{
closed = 1;
nodes = (
"370 1238 LINE",
"744 1238 LINE SMOOTH",
"954 1238 OFFCURVE",
"1010 1090 OFFCURVE",
"1010 980 CURVE SMOOTH",
"1010 860 OFFCURVE",
"942 724 OFFCURVE",
"744 724 CURVE SMOOTH",
"370 724 LINE"
);
}
);
width = 1260;
},
{
anchors = (
{
name = bottom;
position = "{630, 0}";
},
{
name = top;
position = "{876, 1400}";
},
{
name = topleft;
position = "{428, 1400}";
}
);
layerId = "77C27521-0479-4645-83A2-7244263DD4C5";
paths = (
{
closed = 1;
nodes = (
"356 0 LINE",
"456 566 LINE",
"816 566 LINE SMOOTH",
"1166 566 OFFCURVE",
"1314 812 OFFCURVE",
"1314 1046 CURVE SMOOTH",
"1314 1214 OFFCURVE",
"1214 1400 OFFCURVE",
"938 1400 CURVE SMOOTH",
"428 1400 LINE",
"182 0 LINE"
);
},
{
closed = 1;
nodes = (
"574 1248 LINE",
"928 1248 LINE SMOOTH",
"1098 1248 OFFCURVE",
"1144 1126 OFFCURVE",
"1144 1032 CURVE SMOOTH",
"1144 892 OFFCURVE",
"1060 718 OFFCURVE",
"836 718 CURVE SMOOTH",
"482 718 LINE"
);
}
);
width = 1202;
}
);
leftKerningGroup = B;
leftMetricsKey = B;
rightKerningGroup = P;
unicode = 0050;
},
{
glyphname = Thorn;
lastChange = "2020-09-15 16:22:47 +0000";
layers = (
{
layerId = "3BB16070-9AE0-46D6-9B05-19A363C2D547";
paths = (
{
closed = 1;
nodes = (
"292 0 LINE",
"292 300 LINE",
"656 300 LINE SMOOTH",
"980 300 OFFCURVE",
"1098 524 OFFCURVE",
"1098 710 CURVE SMOOTH",
"1098 916 OFFCURVE",
"990 1122 OFFCURVE",
"656 1122 CURVE SMOOTH",
"292 1122 LINE",
"292 1400 LINE",
"220 1400 LINE",
"220 0 LINE"
);
},
{
closed = 1;
nodes = (
"292 1050 LINE",
"658 1050 LINE SMOOTH",
"934 1050 OFFCURVE",
"1020 878 OFFCURVE",
"1020 710 CURVE SMOOTH",
"1020 556 OFFCURVE",
"924 372 OFFCURVE",
"658 372 CURVE SMOOTH",
"292 372 LINE"
);
}
);
width = 1198;
},
{
layerId = "1D708A55-1947-4475-A0A3-21124B6DD42B";
paths = (
{
closed = 1;
nodes = (
"462 0 LINE",
"462 260 LINE",
"778 260 LINE SMOOTH",
"1126 260 OFFCURVE",
"1264 502 OFFCURVE",
"1264 712 CURVE SMOOTH",
"1264 936 OFFCURVE",
"1138 1164 OFFCURVE",
"778 1164 CURVE SMOOTH",
"462 1164 LINE",
"462 1400 LINE",
"146 1400 LINE",
"146 0 LINE"
);
},
{
closed = 1;
nodes = (
"462 866 LINE",
"786 866 LINE SMOOTH",
"900 866 OFFCURVE",
"936 778 OFFCURVE",
"936 712 CURVE SMOOTH",
"936 640 OFFCURVE",
"894 558 OFFCURVE",
"786 558 CURVE SMOOTH",
"462 558 LINE"
);
}
);
width = 1308;
},
{
layerId = "42555ED7-786B-4551-A9FC-B380F510FD49";
paths = (
{
closed = 1;
nodes = (
"250 0 LINE",
"302 300 LINE",
"668 300 LINE SMOOTH",
"1038 300 OFFCURVE",
"1188 560 OFFCURVE",
"1188 774 CURVE SMOOTH",
"1188 948 OFFCURVE",
"1092 1122 OFFCURVE",
"810 1122 CURVE SMOOTH",
"448 1122 LINE",
"494 1400 LINE",
"420 1400 LINE",
"176 0 LINE"
);
},
{
closed = 1;
nodes = (
"434 1050 LINE",
"798 1050 LINE SMOOTH",
"1030 1050 OFFCURVE",
"1106 914 OFFCURVE",
"1106 774 CURVE SMOOTH",
"1106 596 OFFCURVE",
"984 372 OFFCURVE",
"674 372 CURVE SMOOTH",
"314 372 LINE"
);
}
);
width = 1160;
},
{
layerId = "DEEEE81F-2F80-4306-8755-EEA92C96C68A";
paths = (
{
closed = 1;
nodes = (
"426 0 LINE",
"474 264 LINE",
"812 264 LINE SMOOTH",
"1142 264 OFFCURVE",
"1336 480 OFFCURVE",
"1336 746 CURVE SMOOTH",
"1336 926 OFFCURVE",
"1240 1162 OFFCURVE",
"934 1162 CURVE SMOOTH",
"634 1162 LINE",
"676 1400 LINE",
"366 1400 LINE",
"120 0 LINE"
);
},
{
closed = 1;
nodes = (
"582 874 LINE",
"896 874 LINE SMOOTH",
"990 874 OFFCURVE",
"1022 810 OFFCURVE",
"1022 720 CURVE SMOOTH",
"1022 660 OFFCURVE",
"974 552 OFFCURVE",
"840 552 CURVE SMOOTH",
"526 552 LINE"
);
}
);
width = 1244;
},
{
layerId = "07B4BFD6-AD6C-43B6-9499-C92B9E22D320";
paths = (
{
closed = 1;
nodes = (
"370 0 LINE",
"370 292 LINE",
"732 292 LINE SMOOTH",
"1060 292 OFFCURVE",
"1184 520 OFFCURVE",
"1184 712 CURVE SMOOTH",
"1184 920 OFFCURVE",
"1072 1132 OFFCURVE",
"732 1132 CURVE SMOOTH",
"370 1132 LINE",
"370 1400 LINE",
"196 1400 LINE",
"196 0 LINE"
);
},
{
closed = 1;
nodes = (
"370 968 LINE",
"744 968 LINE SMOOTH",
"954 968 OFFCURVE",
"1010 820 OFFCURVE",
"1010 712 CURVE SMOOTH",
"1010 590 OFFCURVE",
"942 456 OFFCURVE",
"744 456 CURVE SMOOTH",
"370 456 LINE"
);
}
);
width = 1264;
},
{
layerId = "77C27521-0479-4645-83A2-7244263DD4C5";
paths = (
{
closed = 1;
nodes = (
"352 0 LINE",
"404 292 LINE",
"756 292 LINE SMOOTH",
"1108 292 OFFCURVE",
"1266 554 OFFCURVE",
"1266 782 CURVE SMOOTH",
"1266 952 OFFCURVE",
"1174 1130 OFFCURVE",
"896 1130 CURVE SMOOTH",
"552 1130 LINE",
"598 1400 LINE",
"428 1400 LINE",
"182 0 LINE"
);
},
{
closed = 1;
nodes = (
"524 972 LINE",
"882 972 LINE SMOOTH",
"1048 972 OFFCURVE",
"1096 854 OFFCURVE",
"1096 754 CURVE SMOOTH",
"1096 624 OFFCURVE",
"1014 452 OFFCURVE",
"790 452 CURVE SMOOTH",
"432 452 LINE"
);
}
);
width = 1200;
}
);
leftKerningGroup = B;
leftMetricsKey = B;
rightKerningGroup = Thorn;
unicode = 00DE;
},
{
glyphname = Q;
lastChange = "2020-09-15 16:22:47 +0000";
layers = (
{
anchors = (
{
name = bottom;
position = "{716, 0}";
},
{
name = top;
position = "{716, 1400}";
}
);
layerId = "3BB16070-9AE0-46D6-9B05-19A363C2D547";
paths = (
{
closed = 1;
nodes = (
"1182 -76 LINE",
"1058 108 LINE",
"1204 248 OFFCURVE",
"1262 480 OFFCURVE",
"1262 700 CURVE SMOOTH",
"1262 1046 OFFCURVE",
"1116 1424 OFFCURVE",
"716 1424 CURVE SMOOTH",
"316 1424 OFFCURVE",
"170 1046 OFFCURVE",
"170 700 CURVE SMOOTH",
"170 354 OFFCURVE",
"316 -24 OFFCURVE",
"716 -24 CURVE SMOOTH",
"834 -24 OFFCURVE",
"930 10 OFFCURVE",
"1008 66 CURVE",
"1128 -114 LINE"
);
},
{
closed = 1;
nodes = (
"368 48 OFFCURVE",
"248 368 OFFCURVE",
"248 700 CURVE SMOOTH",
"248 1004 OFFCURVE",
"368 1352 OFFCURVE",
"716 1352 CURVE SMOOTH",
"1064 1352 OFFCURVE",
"1184 1032 OFFCURVE",
"1184 700 CURVE SMOOTH",
"1184 508 OFFCURVE",
"1138 300 OFFCURVE",
"1016 172 CURVE",
"898 348 LINE",
"844 310 LINE",
"966 128 LINE",
"900 78 OFFCURVE",
"816 48 OFFCURVE",
"716 48 CURVE SMOOTH"
);
}
);
width = 1432;
},
{
anchors = (
{
name = bottom;
position = "{720, 0}";
},
{
name = top;
position = "{720, 1400}";
}
);
layerId = "1D708A55-1947-4475-A0A3-21124B6DD42B";
paths = (
{
closed = 1;
nodes = (
"1254 -16 LINE",
"1146 142 LINE",
"1282 288 OFFCURVE",
"1340 494 OFFCURVE",
"1340 700 CURVE SMOOTH",
"1340 1046 OFFCURVE",
"1172 1424 OFFCURVE",
"720 1424 CURVE SMOOTH",
"266 1424 OFFCURVE",
"96 1046 OFFCURVE",
"96 700 CURVE SMOOTH",
"96 354 OFFCURVE",
"266 -24 OFFCURVE",
"720 -24 CURVE SMOOTH",
"792 -24 OFFCURVE",
"852 -14 OFFCURVE",
"910 0 CURVE",
"1024 -166 LINE"
);
},
{
closed = 1;
nodes = (
"498 282 OFFCURVE",
"424 512 OFFCURVE",
"424 700 CURVE SMOOTH",
"424 882 OFFCURVE",
"494 1120 OFFCURVE",
"720 1120 CURVE SMOOTH",
"942 1120 OFFCURVE",
"1012 892 OFFCURVE",
"1012 700 CURVE SMOOTH",
"1012 616 OFFCURVE",
"996 504 OFFCURVE",
"956 430 CURVE",
"844 598 LINE",
"610 448 LINE",
"724 282 LINE",
"722 282 OFFCURVE",
"720 282 OFFCURVE",
"718 282 CURVE SMOOTH"
);
}
);
width = 1436;
},
{
anchors = (
{
name = bottom;
position = "{668, 0}";
},
{
name = top;
position = "{900, 1400}";
}
);
layerId = "42555ED7-786B-4551-A9FC-B380F510FD49";
paths = (
{
closed = 1;
nodes = (
"1114 -76 LINE",
"1026 102 LINE",
"1238 278 OFFCURVE",
"1332 602 OFFCURVE",
"1332 870 CURVE SMOOTH",
"1332 1158 OFFCURVE",
"1222 1424 OFFCURVE",
"904 1424 CURVE SMOOTH",
"432 1424 OFFCURVE",
"230 922 OFFCURVE",
"230 540 CURVE SMOOTH",
"230 258 OFFCURVE",
"352 -24 OFFCURVE",
"666 -24 CURVE SMOOTH",
"782 -24 OFFCURVE",
"884 6 OFFCURVE",
"968 60 CURVE",
"1054 -114 LINE"
);
},
{
closed = 1;
nodes = (
"404 48 OFFCURVE",
"308 274 OFFCURVE",
"308 532 CURVE SMOOTH",
"308 882 OFFCURVE",
"478 1352 OFFCURVE",
"894 1352 CURVE SMOOTH",
"1162 1352 OFFCURVE",
"1256 1124 OFFCURVE",
"1256 872 CURVE SMOOTH",
"1256 630 OFFCURVE",
"1178 330 OFFCURVE",
"994 168 CURVE",
"906 348 LINE",
"844 310 LINE",
"936 124 LINE",
"862 76 OFFCURVE",
"776 48 OFFCURVE",
"676 48 CURVE SMOOTH"
);
}
);
width = 1392;
},
{
anchors = (
{
name = bottom;
position = "{746, 0}";
},
{
name = top;
position = "{890, 1400}";
}
);
layerId = "DEEEE81F-2F80-4306-8755-EEA92C96C68A";
paths = (
{
closed = 1;
nodes = (
"1218 -46 LINE",
"1144 110 LINE",
"1322 254 OFFCURVE",
"1432 502 OFFCURVE",
"1432 800 CURVE SMOOTH",
"1432 1122 OFFCURVE",
"1260 1424 OFFCURVE",
"894 1424 CURVE SMOOTH",
"466 1424 OFFCURVE",
"210 1062 OFFCURVE",
"210 614 CURVE SMOOTH",
"210 290 OFFCURVE",
"360 -24 OFFCURVE",
"766 -24 CURVE SMOOTH",
"806 -24 OFFCURVE",
"848 -22 OFFCURVE",
"892 -14 CURVE",
"968 -176 LINE"
);
},
{
closed = 1;
nodes = (
"596 270 OFFCURVE",
"510 424 OFFCURVE",
"510 614 CURVE SMOOTH",
"510 878 OFFCURVE",
"652 1132 OFFCURVE",
"872 1132 CURVE SMOOTH",
"1062 1132 OFFCURVE",
"1132 958 OFFCURVE",
"1132 800 CURVE SMOOTH",
"1132 628 OFFCURVE",
"1086 490 OFFCURVE",
"1012 394 CURVE",
"938 558 LINE",
"682 432 LINE",
"756 270 LINE",
"752 270 OFFCURVE",
"750 270 OFFCURVE",
"748 270 CURVE SMOOTH"
);
}
);
width = 1392;
},
{
anchors = (
{
name = bottom;
position = "{732, 0}";
},
{
name = top;
position = "{732, 1400}";
}
);
layerId = "07B4BFD6-AD6C-43B6-9499-C92B9E22D320";
paths = (
{
closed = 1;
nodes = (
"1218 -42 LINE",
"1112 114 LINE",
"1266 256 OFFCURVE",
"1324 484 OFFCURVE",
"1324 700 CURVE SMOOTH",
"1324 1046 OFFCURVE",
"1172 1424 OFFCURVE",
"730 1424 CURVE SMOOTH",
"290 1424 OFFCURVE",
"136 1046 OFFCURVE",
"136 700 CURVE SMOOTH",
"136 354 OFFCURVE",
"290 -24 OFFCURVE",
"730 -24 CURVE SMOOTH",
"828 -24 OFFCURVE",
"910 -6 OFFCURVE",
"982 28 CURVE",
"1090 -132 LINE"
);
},
{
closed = 1;
nodes = (
"424 140 OFFCURVE",
"316 426 OFFCURVE",
"316 700 CURVE SMOOTH",
"316 954 OFFCURVE",
"424 1262 OFFCURVE",
"730 1262 CURVE SMOOTH",
"1038 1262 OFFCURVE",
"1144 974 OFFCURVE",
"1144 700 CURVE SMOOTH",
"1144 550 OFFCURVE",
"1106 380 OFFCURVE",
"1012 268 CURVE",
"916 412 LINE",
"784 322 LINE",
"884 172 LINE",
"840 150 OFFCURVE",
"788 140 OFFCURVE",
"730 140 CURVE SMOOTH"
);
}
);
width = 1460;
},
{
anchors = (
{
name = bottom;
position = "{702, 0}";
},
{
name = top;
position = "{914, 1400}";
}
);
layerId = "77C27521-0479-4645-83A2-7244263DD4C5";
paths = (
{
closed = 1;
nodes = (
"1162 -70 LINE",
"1080 104 LINE",
"1290 270 OFFCURVE",
"1396 578 OFFCURVE",
"1396 858 CURVE SMOOTH",
"1396 1140 OFFCURVE",
"1260 1424 OFFCURVE",
"918 1424 CURVE SMOOTH",
"454 1424 OFFCURVE",
"230 954 OFFCURVE",
"230 546 CURVE SMOOTH",
"230 250 OFFCURVE",
"364 -24 OFFCURVE",
"712 -24 CURVE SMOOTH",
"798 -24 OFFCURVE",
"876 -6 OFFCURVE",
"946 26 CURVE",
"1024 -140 LINE"
);
},
{
closed = 1;
nodes = (
"488 136 OFFCURVE",
"402 334 OFFCURVE",
"402 546 CURVE SMOOTH",
"402 872 OFFCURVE",
"568 1264 OFFCURVE",
"914 1264 CURVE SMOOTH",
"1138 1264 OFFCURVE",
"1224 1058 OFFCURVE",
"1224 858 CURVE SMOOTH",
"1224 640 OFFCURVE",
"1152 398 OFFCURVE",
"1008 258 CURVE",
"942 400 LINE",
"802 330 LINE",
"876 174 LINE",
"826 150 OFFCURVE",
"772 136 OFFCURVE",
"712 136 CURVE SMOOTH"
);
}
);
width = 1380;
}
);
leftKerningGroup = O;
rightKerningGroup = O;
unicode = 0051;
},
{
glyphname = R;
lastChange = "2020-12-29 18:11:51 +0000";
layers = (
{
anchors = (
{
name = bottom;
position = "{620, 0}";
},
{
name = top;
position = "{604, 1400}";
}
);
layerId = "3BB16070-9AE0-46D6-9B05-19A363C2D547";
paths = (
{
closed = 1;
nodes = (
"292 0 LINE",
"292 658 LINE",
"660 658 LINE",
"978 0 LINE",
"1058 0 LINE",
"736 658 LINE",
"992 678 OFFCURVE",
"1102 848 OFFCURVE",
"1102 1034 CURVE SMOOTH",
"1102 1214 OFFCURVE",
"1004 1400 OFFCURVE",
"700 1400 CURVE SMOOTH",
"220 1400 LINE",
"220 0 LINE"
);
},
{
closed = 1;
nodes = (
"292 1334 LINE",
"700 1334 LINE SMOOTH",
"960 1334 OFFCURVE",
"1030 1164 OFFCURVE",
"1030 1034 CURVE SMOOTH",
"1030 886 OFFCURVE",
"950 724 OFFCURVE",
"700 724 CURVE SMOOTH",
"292 724 LINE"
);
}
);
width = 1272;
},
{
anchors = (
{
name = bottom;
position = "{708, 0}";
},
{
name = top;
position = "{694, 1400}";
}
);
layerId = "1D708A55-1947-4475-A0A3-21124B6DD42B";
paths = (
{
closed = 1;
nodes = (
"462 0 LINE",
"462 484 LINE",
"728 484 LINE",
"978 0 LINE",
"1332 0 LINE",
"1072 534 LINE",
"1230 604 OFFCURVE",
"1320 790 OFFCURVE",
"1320 944 CURVE SMOOTH",
"1320 1190 OFFCURVE",
"1198 1400 OFFCURVE",
"840 1400 CURVE SMOOTH",
"146 1400 LINE",
"146 0 LINE"
);
},
{
closed = 1;
nodes = (
"462 1102 LINE",
"844 1102 LINE SMOOTH",
"958 1102 OFFCURVE",
"992 1024 OFFCURVE",
"992 944 CURVE SMOOTH",
"992 858 OFFCURVE",
"956 782 OFFCURVE",
"844 782 CURVE SMOOTH",
"462 782 LINE"
);
}
);
width = 1412;
},
{
anchors = (
{
name = bottom;
position = "{580, 0}";
},
{
name = top;
position = "{800, 1400}";
}
);
layerId = "42555ED7-786B-4551-A9FC-B380F510FD49";
paths = (
{
closed = 1;
nodes = (
"248 0 LINE",
"364 658 LINE",
"708 658 LINE",
"914 0 LINE",
"994 0 LINE",
"788 662 LINE",
"1036 684 OFFCURVE",
"1224 832 OFFCURVE",
"1224 1074 CURVE SMOOTH",
"1224 1230 OFFCURVE",
"1130 1400 OFFCURVE",
"870 1400 CURVE SMOOTH",
"420 1400 LINE",
"174 0 LINE"
);
},
{
closed = 1;
nodes = (
"484 1334 LINE",
"870 1334 LINE SMOOTH",
"1086 1334 OFFCURVE",
"1146 1192 OFFCURVE",
"1146 1074 CURVE SMOOTH",
"1146 824 OFFCURVE",
"934 724 OFFCURVE",
"710 724 CURVE SMOOTH",
"376 724 LINE"
);
}
);
width = 1248;
},
{
anchors = (
{
name = bottom;
position = "{652, 0}";
},
{
name = top;
position = "{874, 1400}";
}
);
background = {
paths = (
{
closed = 1;
nodes = (
"426 0 LINE",
"514 496 LINE",
"782 496 LINE",
"892 0 LINE",
"1224 0 LINE",
"1104 516 LINE",
"1370 592 OFFCURVE",
"1430 822 OFFCURVE",
"1430 968 CURVE SMOOTH",
"1430 1184 OFFCURVE",
"1326 1400 OFFCURVE",
"1026 1400 CURVE SMOOTH",
"366 1400 LINE",
"120 0 LINE"
);
},
{
closed = 1;
nodes = (
"620 1112 LINE",
"982 1112 LINE SMOOTH",
"1072 1112 OFFCURVE",
"1116 1048 OFFCURVE",
"1116 956 CURVE SMOOTH",
"1116 890 OFFCURVE",
"1090 784 OFFCURVE",
"928 784 CURVE SMOOTH",
"564 784 LINE"
);
}
);
};
layerId = "DEEEE81F-2F80-4306-8755-EEA92C96C68A";
paths = (
{
closed = 1;
nodes = (
"426 0 LINE",
"514 496 LINE",
"782 496 LINE",
"892 0 LINE",
"1224 0 LINE",
"1104 516 LINE",
"1366 594 OFFCURVE",
"1430 820 OFFCURVE",
"1430 965 CURVE SMOOTH",
"1430 1240 OFFCURVE",
"1252 1400 OFFCURVE",
"936 1400 CURVE SMOOTH",
"366 1400 LINE",
"120 0 LINE"
);
},
{
closed = 1;
nodes = (
"620 1112 LINE",
"917 1112 LINE SMOOTH",
"1051 1112 OFFCURVE",
"1116 1052 OFFCURVE",
"1116 958 CURVE SMOOTH",
"1116 890 OFFCURVE",
"1080 784 OFFCURVE",
"918 784 CURVE SMOOTH",
"564 784 LINE"
);
}
);
width = 1334;
},
{
anchors = (
{
name = bottom;
position = "{672, 0}";
},
{
name = top;
position = "{642, 1400}";
}
);
layerId = "07B4BFD6-AD6C-43B6-9499-C92B9E22D320";
paths = (
{
closed = 1;
nodes = (
"370 0 LINE",
"370 600 LINE",
"680 600 LINE",
"968 0 LINE",
"1164 0 LINE",
"864 612 LINE",
"1098 660 OFFCURVE",
"1190 836 OFFCURVE",
"1190 1002 CURVE SMOOTH",
"1190 1200 OFFCURVE",
"1084 1400 OFFCURVE",
"748 1400 CURVE SMOOTH",
"196 1400 LINE",
"196 0 LINE"
);
},
{
closed = 1;
nodes = (
"370 1238 LINE",
"752 1238 LINE SMOOTH",
"958 1238 OFFCURVE",
"1014 1102 OFFCURVE",
"1014 998 CURVE SMOOTH",
"1014 882 OFFCURVE",
"948 762 OFFCURVE",
"752 762 CURVE SMOOTH",
"370 762 LINE"
);
}
);
width = 1330;
},
{
anchors = (
{
name = bottom;
position = "{640, 0}";
},
{
name = top;
position = "{846, 1400}";
}
);
layerId = "77C27521-0479-4645-83A2-7244263DD4C5";
paths = (
{
closed = 1;
nodes = (
"356 0 LINE",
"462 604 LINE",
"754 604 LINE",
"950 0 LINE",
"1132 0 LINE",
"930 612 LINE",
"1206 652 OFFCURVE",
"1316 850 OFFCURVE",
"1316 1034 CURVE SMOOTH",
"1316 1200 OFFCURVE",
"1220 1400 OFFCURVE",
"912 1400 CURVE SMOOTH",
"428 1400 LINE",
"182 0 LINE"
);
},
{
closed = 1;
nodes = (
"574 1242 LINE",
"901 1242 LINE SMOOTH",
"1085 1242 OFFCURVE",
"1146 1132 OFFCURVE",
"1146 1028 CURVE SMOOTH",
"1146 910 OFFCURVE",
"1080 762 OFFCURVE",
"838 762 CURVE SMOOTH",
"490 762 LINE"
);
}
);
width = 1272;
}
);
leftKerningGroup = B;
leftMetricsKey = B;
rightKerningGroup = R;
unicode = 0052;
},
{
color = 4;
glyphname = Rstroke;
lastChange = "2020-12-29 18:13:22 +0000";
layers = (
{
anchors = (
{
name = bottom;
position = "{620, 0}";
},
{
name = top;
position = "{604, 1400}";
}
);
components = (
{
name = R;
}
);
layerId = "3BB16070-9AE0-46D6-9B05-19A363C2D547";
paths = (
{
closed = 1;
nodes = (
"532 658 LINE",
"532 724 LINE",
"16 724 LINE",
"16 658 LINE"
);
}
);
width = 1272;
},
{
anchors = (
{
name = bottom;
position = "{672, 0}";
},
{
name = top;
position = "{642, 1400}";
}
);
components = (
{
name = R;
}
);
layerId = "07B4BFD6-AD6C-43B6-9499-C92B9E22D320";
paths = (
{
closed = 1;
nodes = (
"564 600 LINE",
"564 762 LINE",
"12 762 LINE",
"12 600 LINE"
);
}
);
width = 1330;
},
{
anchors = (
{
name = bottom;
position = "{758, 0}";
},
{
name = top;
position = "{744, 1400}";
}
);
components = (
{
name = R;
transform = "{1, 0, 0, 1, 50, 0}";
}
);
layerId = "1D708A55-1947-4475-A0A3-21124B6DD42B";
paths = (
{
closed = 1;
nodes = (
"610 484 LINE",
"610 782 LINE",
"8 782 LINE",
"8 484 LINE"
);
}
);
width = 1462;
},
{
anchors = (
{
name = bottom;
position = "{604, 0}";
},
{
name = top;
position = "{824, 1400}";
}
);
components = (
{
name = R;
transform = "{1, 0, 0, 1, 24, 0}";
}
);
layerId = "42555ED7-786B-4551-A9FC-B380F510FD49";
paths = (
{
closed = 1;
nodes = (
"625 658 LINE",
"637 724 LINE",
"121 724 LINE",
"109 658 LINE"
);
}
);
width = 1272;
},
{
anchors = (
{
name = bottom;
position = "{698, 0}";
},
{
name = top;
position = "{904, 1400}";
}
);
background = {
paths = (
{
closed = 1;
nodes = (
"713 600 LINE",
"741 762 LINE",
"189 762 LINE",
"161 600 LINE"
);
}
);
};
components = (
{
name = R;
transform = "{1, 0, 0, 1, 58, 0}";
}
);
layerId = "77C27521-0479-4645-83A2-7244263DD4C5";
paths = (
{
closed = 1;
nodes = (
"714 604 LINE",
"741 762 LINE",
"189 762 LINE",
"162 604 LINE"
);
}
);
width = 1330;
},
{
anchors = (
{
name = bottom;
position = "{780, 0}";
},
{
name = top;
position = "{1002, 1400}";
}
);
components = (
{
name = R;
transform = "{1, 0, 0, 1, 128, 0}";
}
);
layerId = "DEEEE81F-2F80-4306-8755-EEA92C96C68A";
paths = (
{
closed = 1;
nodes = (
"749 496 LINE",
"799 782 LINE",
"197 782 LINE",
"147 496 LINE"
);
}
);
width = 1462;
}
);
unicode = 024C;
},
{
color = 4;
glyphname = Rtail;
lastChange = "2021-01-06 07:15:56 +0000";
layers = (
{
background = {
paths = (
{
closed = 1;
nodes = (
"540 -368 LINE",
"372 -354 OFFCURVE",
"292 -284 OFFCURVE",
"292 -112 CURVE SMOOTH",
"292 20 LINE",
"220 20 LINE",
"220 -108 LINE SMOOTH",
"220 -312 OFFCURVE",
"312 -410 OFFCURVE",
"504 -430 CURVE"
);
},
{
closed = 1;
nodes = (
"292 0 LINE",
"292 658 LINE",
"660 658 LINE",
"978 0 LINE",
"1058 0 LINE",
"736 658 LINE",
"992 678 OFFCURVE",
"1102 848 OFFCURVE",
"1102 1034 CURVE SMOOTH",
"1102 1214 OFFCURVE",
"1004 1400 OFFCURVE",
"700 1400 CURVE SMOOTH",
"220 1400 LINE",
"220 0 LINE"
);
},
{
closed = 1;
nodes = (
"292 1334 LINE",
"700 1334 LINE SMOOTH",
"960 1334 OFFCURVE",
"1030 1164 OFFCURVE",
"1030 1034 CURVE SMOOTH",
"1030 886 OFFCURVE",
"950 724 OFFCURVE",
"700 724 CURVE SMOOTH",
"292 724 LINE"
);
}
);
};
layerId = "3BB16070-9AE0-46D6-9B05-19A363C2D547";
paths = (
{
closed = 1;
nodes = (
"540 -368 LINE",
"372 -354 OFFCURVE",
"292 -284 OFFCURVE",
"292 -112 CURVE SMOOTH",
"292 658 LINE",
"660 658 LINE",
"978 0 LINE",
"1058 0 LINE",
"736 658 LINE",
"992 678 OFFCURVE",
"1102 848 OFFCURVE",
"1102 1034 CURVE SMOOTH",
"1102 1214 OFFCURVE",
"1004 1400 OFFCURVE",
"700 1400 CURVE SMOOTH",
"220 1400 LINE",
"220 -108 LINE SMOOTH",
"220 -312 OFFCURVE",
"312 -410 OFFCURVE",
"504 -430 CURVE"
);
},
{
closed = 1;
nodes = (
"292 1334 LINE",
"700 1334 LINE SMOOTH",
"960 1334 OFFCURVE",
"1030 1164 OFFCURVE",
"1030 1034 CURVE SMOOTH",
"1030 886 OFFCURVE",
"950 724 OFFCURVE",
"700 724 CURVE SMOOTH",
"292 724 LINE"
);
}
);
width = 1272;
},
{
background = {
paths = (
{
closed = 1;
nodes = (
"632 -328 LINE",
"428 -296 OFFCURVE",
"370 -226 OFFCURVE",
"370 -82 CURVE SMOOTH",
"370 20 LINE",
"196 20 LINE",
"196 -18 LINE SMOOTH",
"196 -282 OFFCURVE",
"304 -424 OFFCURVE",
"550 -460 CURVE"
);
},
{
closed = 1;
nodes = (
"370 0 LINE",
"370 600 LINE",
"680 600 LINE",
"968 0 LINE",
"1164 0 LINE",
"864 612 LINE",
"1098 660 OFFCURVE",
"1190 836 OFFCURVE",
"1190 1002 CURVE SMOOTH",
"1190 1200 OFFCURVE",
"1084 1400 OFFCURVE",
"748 1400 CURVE SMOOTH",
"196 1400 LINE",
"196 0 LINE"
);
},
{
closed = 1;
nodes = (
"370 1238 LINE",
"752 1238 LINE SMOOTH",
"958 1238 OFFCURVE",
"1014 1102 OFFCURVE",
"1014 998 CURVE SMOOTH",
"1014 882 OFFCURVE",
"948 762 OFFCURVE",
"752 762 CURVE SMOOTH",
"370 762 LINE"
);
}
);
};
layerId = "07B4BFD6-AD6C-43B6-9499-C92B9E22D320";
paths = (
{
closed = 1;
nodes = (
"632 -328 LINE",
"428 -296 OFFCURVE",
"370 -226 OFFCURVE",
"370 -82 CURVE SMOOTH",
"370 600 LINE",
"680 600 LINE",
"968 0 LINE",
"1164 0 LINE",
"864 612 LINE",
"1098 660 OFFCURVE",
"1190 836 OFFCURVE",
"1190 1002 CURVE SMOOTH",
"1190 1200 OFFCURVE",
"1084 1400 OFFCURVE",
"748 1400 CURVE SMOOTH",
"196 1400 LINE",
"196 -18 LINE SMOOTH",
"196 -282 OFFCURVE",
"304 -424 OFFCURVE",
"550 -460 CURVE"
);
},
{
closed = 1;
nodes = (
"370 1238 LINE",
"752 1238 LINE SMOOTH",
"958 1238 OFFCURVE",
"1014 1102 OFFCURVE",
"1014 998 CURVE SMOOTH",
"1014 882 OFFCURVE",
"948 762 OFFCURVE",
"752 762 CURVE SMOOTH",
"370 762 LINE"
);
}
);
width = 1330;
},
{
background = {
paths = (
{
closed = 1;
nodes = (
"462 0 LINE",
"462 484 LINE",
"728 484 LINE",
"978 0 LINE",
"1332 0 LINE",
"1072 534 LINE",
"1230 604 OFFCURVE",
"1320 790 OFFCURVE",
"1320 944 CURVE SMOOTH",
"1320 1190 OFFCURVE",
"1198 1400 OFFCURVE",
"840 1400 CURVE SMOOTH",
"146 1400 LINE",
"146 0 LINE"
);
},
{
closed = 1;
nodes = (
"462 1102 LINE",
"844 1102 LINE SMOOTH",
"958 1102 OFFCURVE",
"992 1024 OFFCURVE",
"992 944 CURVE SMOOTH",
"992 858 OFFCURVE",
"956 782 OFFCURVE",
"844 782 CURVE SMOOTH",
"462 782 LINE"
);
},
{
closed = 1;
nodes = (
"754 -256 LINE",
"540 -206 OFFCURVE",
"462 -164 OFFCURVE",
"462 -8 CURVE SMOOTH",
"462 20 LINE",
"146 20 LINE",
"146 -10 LINE SMOOTH",
"146 -304 OFFCURVE",
"308 -440 OFFCURVE",
"598 -500 CURVE"
);
}
);
};
layerId = "1D708A55-1947-4475-A0A3-21124B6DD42B";
paths = (
{
closed = 1;
nodes = (
"754 -256 LINE",
"540 -206 OFFCURVE",
"462 -164 OFFCURVE",
"462 -8 CURVE SMOOTH",
"462 484 LINE",
"728 484 LINE",
"978 0 LINE",
"1332 0 LINE",
"1072 534 LINE",
"1230 604 OFFCURVE",
"1320 790 OFFCURVE",
"1320 944 CURVE SMOOTH",
"1320 1190 OFFCURVE",
"1198 1400 OFFCURVE",
"840 1400 CURVE SMOOTH",
"146 1400 LINE",
"146 -10 LINE SMOOTH",
"146 -304 OFFCURVE",
"308 -440 OFFCURVE",
"598 -500 CURVE"
);
},
{
closed = 1;
nodes = (
"462 1102 LINE",
"844 1102 LINE SMOOTH",
"958 1102 OFFCURVE",
"992 1024 OFFCURVE",
"992 944 CURVE SMOOTH",
"992 858 OFFCURVE",
"956 782 OFFCURVE",
"844 782 CURVE SMOOTH",
"462 782 LINE"
);
}
);
width = 1412;
},
{
background = {
paths = (
{
closed = 1;
nodes = (
"248 0 LINE",
"364 658 LINE",
"708 658 LINE",
"914 0 LINE",
"994 0 LINE",
"788 662 LINE",
"1036 684 OFFCURVE",
"1224 832 OFFCURVE",
"1224 1074 CURVE SMOOTH",
"1224 1230 OFFCURVE",
"1130 1400 OFFCURVE",
"870 1400 CURVE SMOOTH",
"420 1400 LINE",
"174 0 LINE"
);
},
{
closed = 1;
nodes = (
"430 -368 LINE",
"265 -354 OFFCURVE",
"198 -285 OFFCURVE",
"228 -113 CURVE SMOOTH",
"252 23 LINE",
"178 23 LINE",
"155 -108 LINE SMOOTH",
"119 -312 OFFCURVE",
"195 -410 OFFCURVE",
"383 -430 CURVE"
);
},
{
closed = 1;
nodes = (
"484 1334 LINE",
"870 1334 LINE SMOOTH",
"1086 1334 OFFCURVE",
"1146 1192 OFFCURVE",
"1146 1074 CURVE SMOOTH",
"1146 824 OFFCURVE",
"934 724 OFFCURVE",
"710 724 CURVE SMOOTH",
"376 724 LINE"
);
}
);
};
layerId = "42555ED7-786B-4551-A9FC-B380F510FD49";
paths = (
{
closed = 1;
nodes = (
"430 -368 LINE",
"265 -354 OFFCURVE",
"198 -285 OFFCURVE",
"228 -113 CURVE SMOOTH",
"364 658 LINE",
"708 658 LINE",
"914 0 LINE",
"994 0 LINE",
"788 662 LINE",
"1036 684 OFFCURVE",
"1224 832 OFFCURVE",
"1224 1074 CURVE SMOOTH",
"1224 1230 OFFCURVE",
"1130 1400 OFFCURVE",
"870 1400 CURVE SMOOTH",
"420 1400 LINE",
"155 -108 LINE SMOOTH",
"119 -312 OFFCURVE",
"195 -410 OFFCURVE",
"383 -430 CURVE"
);
},
{
closed = 1;
nodes = (
"484 1334 LINE",
"870 1334 LINE SMOOTH",
"1086 1334 OFFCURVE",
"1146 1192 OFFCURVE",
"1146 1074 CURVE SMOOTH",
"1146 824 OFFCURVE",
"934 724 OFFCURVE",
"710 724 CURVE SMOOTH",
"376 724 LINE"
);
}
);
width = 1248;
},
{
background = {
paths = (
{
closed = 1;
nodes = (
"356 0 LINE",
"462 604 LINE",
"754 604 LINE",
"950 0 LINE",
"1132 0 LINE",
"930 612 LINE",
"1206 652 OFFCURVE",
"1316 850 OFFCURVE",
"1316 1034 CURVE SMOOTH",
"1316 1200 OFFCURVE",
"1220 1400 OFFCURVE",
"912 1400 CURVE SMOOTH",
"428 1400 LINE",
"182 0 LINE"
);
},
{
closed = 1;
nodes = (
"560 -328 LINE",
"362 -296 OFFCURVE",
"316 -227 OFFCURVE",
"342 -79 CURVE SMOOTH",
"359 17 LINE",
"185 17 LINE",
"179 -18 LINE SMOOTH",
"134 -283 OFFCURVE",
"215 -424 OFFCURVE",
"455 -460 CURVE"
);
},
{
closed = 1;
nodes = (
"574 1242 LINE",
"901 1242 LINE SMOOTH",
"1085 1242 OFFCURVE",
"1146 1132 OFFCURVE",
"1146 1028 CURVE SMOOTH",
"1146 910 OFFCURVE",
"1080 762 OFFCURVE",
"838 762 CURVE SMOOTH",
"490 762 LINE"
);
}
);
};
layerId = "77C27521-0479-4645-83A2-7244263DD4C5";
paths = (
{
closed = 1;
nodes = (
"560 -328 LINE",
"362 -296 OFFCURVE",
"316 -227 OFFCURVE",
"342 -79 CURVE SMOOTH",
"462 604 LINE",
"754 604 LINE",
"950 0 LINE",
"1132 0 LINE",
"930 612 LINE",
"1206 652 OFFCURVE",
"1316 850 OFFCURVE",
"1316 1034 CURVE SMOOTH",
"1316 1200 OFFCURVE",
"1220 1400 OFFCURVE",
"912 1400 CURVE SMOOTH",
"428 1400 LINE",
"179 -18 LINE SMOOTH",
"132 -283 OFFCURVE",
"215 -424 OFFCURVE",
"455 -460 CURVE"
);
},
{
closed = 1;
nodes = (
"574 1242 LINE",
"901 1242 LINE SMOOTH",
"1085 1242 OFFCURVE",
"1146 1132 OFFCURVE",
"1146 1028 CURVE SMOOTH",
"1146 910 OFFCURVE",
"1080 762 OFFCURVE",
"838 762 CURVE SMOOTH",
"490 762 LINE"
);
}
);
width = 1272;
},
{
background = {
paths = (
{
closed = 1;
nodes = (
"426 0 LINE",
"514 496 LINE",
"782 496 LINE",
"892 0 LINE",
"1224 0 LINE",
"1104 516 LINE",
"1366 594 OFFCURVE",
"1430 820 OFFCURVE",
"1430 965 CURVE SMOOTH",
"1430 1240 OFFCURVE",
"1252 1400 OFFCURVE",
"936 1400 CURVE SMOOTH",
"366 1400 LINE",
"120 0 LINE"
);
},
{
closed = 1;
nodes = (
"685 -256 LINE",
"469 -203 OFFCURVE",
"397 -164 OFFCURVE",
"425 -8 CURVE SMOOTH",
"472 257 LINE",
"165 257 LINE",
"118 -10 LINE SMOOTH",
"66 -304 OFFCURVE",
"207 -440 OFFCURVE",
"486 -500 CURVE"
);
},
{
closed = 1;
nodes = (
"620 1112 LINE",
"917 1112 LINE SMOOTH",
"1051 1112 OFFCURVE",
"1116 1052 OFFCURVE",
"1116 958 CURVE SMOOTH",
"1116 890 OFFCURVE",
"1080 784 OFFCURVE",
"918 784 CURVE SMOOTH",
"564 784 LINE"
);
}
);
};
layerId = "DEEEE81F-2F80-4306-8755-EEA92C96C68A";
paths = (
{
closed = 1;
nodes = (
"685 -256 LINE",
"469 -203 OFFCURVE",
"397 -164 OFFCURVE",
"425 -8 CURVE SMOOTH",
"514 496 LINE",
"782 496 LINE",
"892 0 LINE",
"1224 0 LINE",
"1104 516 LINE",
"1366 594 OFFCURVE",
"1430 820 OFFCURVE",
"1430 965 CURVE SMOOTH",
"1430 1240 OFFCURVE",
"1252 1400 OFFCURVE",
"936 1400 CURVE SMOOTH",
"366 1400 LINE",
"118 -10 LINE SMOOTH",
"66 -304 OFFCURVE",
"207 -440 OFFCURVE",
"486 -500 CURVE"
);
},
{
closed = 1;
nodes = (
"620 1112 LINE",
"917 1112 LINE SMOOTH",
"1051 1112 OFFCURVE",
"1116 1052 OFFCURVE",
"1116 958 CURVE SMOOTH",
"1116 890 OFFCURVE",
"1080 784 OFFCURVE",
"918 784 CURVE SMOOTH",
"564 784 LINE"
);
}
);
width = 1334;
}
);
unicode = 2C64;
},
{
glyphname = S;
lastChange = "2021-02-02 23:04:05 +0000";
layers = (
{
anchors = (
{
name = bottom;
position = "{590, 0}";
},
{
name = top;
position = "{576, 1400}";
}
);
layerId = "3BB16070-9AE0-46D6-9B05-19A363C2D547";
paths = (
{
closed = 1;
nodes = (
"828 -24 OFFCURVE",
"998 110 OFFCURVE",
"998 346 CURVE SMOOTH",
"998 602 OFFCURVE",
"792 716 OFFCURVE",
"616 788 CURVE SMOOTH",
"444 858 OFFCURVE",
"272 934 OFFCURVE",
"272 1114 CURVE SMOOTH",
"272 1262 OFFCURVE",
"382 1354 OFFCURVE",
"568 1354 CURVE SMOOTH",
"718 1354 OFFCURVE",
"818 1288 OFFCURVE",
"866 1172 CURVE",
"938 1194 LINE",
"892 1334 OFFCURVE",
"748 1424 OFFCURVE",
"574 1424 CURVE SMOOTH",
"330 1424 OFFCURVE",
"196 1292 OFFCURVE",
"196 1118 CURVE SMOOTH",
"196 886 OFFCURVE",
"398 790 OFFCURVE",
"584 718 CURVE SMOOTH",
"760 650 OFFCURVE",
"922 538 OFFCURVE",
"922 348 CURVE SMOOTH",
"922 150 OFFCURVE",
"790 46 OFFCURVE",
"592 46 CURVE SMOOTH",
"426 46 OFFCURVE",
"292 146 OFFCURVE",
"226 294 CURVE",
"150 270 LINE",
"216 112 OFFCURVE",
"376 -24 OFFCURVE",
"590 -24 CURVE SMOOTH"
);
}
);
width = 1158;
},
{
anchors = (
{
name = bottom;
position = "{634, 0}";
},
{
name = top;
position = "{620, 1400}";
}
);
layerId = "1D708A55-1947-4475-A0A3-21124B6DD42B";
paths = (
{
closed = 1;
nodes = (
"930 -24 OFFCURVE",
"1162 134 OFFCURVE",
"1162 408 CURVE SMOOTH",
"1162 710 OFFCURVE",
"908 798 OFFCURVE",
"670 876 CURVE SMOOTH",
"530 922 OFFCURVE",
"438 954 OFFCURVE",
"438 1018 CURVE SMOOTH",
"438 1088 OFFCURVE",
"496 1126 OFFCURVE",
"602 1126 CURVE SMOOTH",
"728 1126 OFFCURVE",
"790 1060 OFFCURVE",
"830 974 CURVE",
"1110 1066 LINE",
"1056 1268 OFFCURVE",
"878 1424 OFFCURVE",
"618 1424 CURVE SMOOTH",
"304 1424 OFFCURVE",
"124 1242 OFFCURVE",
"124 1024 CURVE SMOOTH",
"124 728 OFFCURVE",
"376 650 OFFCURVE",
"588 582 CURVE SMOOTH",
"744 532 OFFCURVE",
"848 498 OFFCURVE",
"848 410 CURVE SMOOTH",
"848 320 OFFCURVE",
"766 274 OFFCURVE",
"642 274 CURVE SMOOTH",
"518 274 OFFCURVE",
"410 368 OFFCURVE",
"348 500 CURVE",
"66 394 LINE",
"152 132 OFFCURVE",
"360 -24 OFFCURVE",
"634 -24 CURVE SMOOTH"
);
}
);
width = 1246;
},
{
anchors = (
{
name = bottom;
position = "{560, 0}";
},
{
name = top;
position = "{760, 1400}";
}
);
layerId = "42555ED7-786B-4551-A9FC-B380F510FD49";
paths = (
{
closed = 1;
nodes = (
"816 -24 OFFCURVE",
"1016 138 OFFCURVE",
"1016 408 CURVE SMOOTH",
"1016 632 OFFCURVE",
"846 716 OFFCURVE",
"688 796 CURVE SMOOTH",
"554 864 OFFCURVE",
"428 930 OFFCURVE",
"428 1076 CURVE SMOOTH",
"428 1244 OFFCURVE",
"556 1354 OFFCURVE",
"762 1354 CURVE SMOOTH",
"908 1354 OFFCURVE",
"994 1288 OFFCURVE",
"1020 1172 CURVE",
"1094 1192 LINE",
"1072 1332 OFFCURVE",
"944 1424 OFFCURVE",
"764 1424 CURVE SMOOTH",
"512 1424 OFFCURVE",
"350 1268 OFFCURVE",
"350 1074 CURVE SMOOTH",
"350 884 OFFCURVE",
"498 808 OFFCURVE",
"644 732 CURVE SMOOTH",
"792 656 OFFCURVE",
"938 580 OFFCURVE",
"938 394 CURVE SMOOTH",
"938 172 OFFCURVE",
"768 46 OFFCURVE",
"566 46 CURVE SMOOTH",
"396 46 OFFCURVE",
"282 146 OFFCURVE",
"242 294 CURVE",
"168 270 LINE",
"206 112 OFFCURVE",
"342 -24 OFFCURVE",
"558 -24 CURVE SMOOTH"
);
}
);
width = 1140;
},
{
anchors = (
{
name = bottom;
position = "{628, 0}";
},
{
name = top;
position = "{774, 1400}";
}
);
layerId = "DEEEE81F-2F80-4306-8755-EEA92C96C68A";
paths = (
{
closed = 1;
nodes = (
"962 -24 OFFCURVE",
"1180 162 OFFCURVE",
"1180 426 CURVE SMOOTH",
"1180 712 OFFCURVE",
"952 805 OFFCURVE",
"778 876 CURVE SMOOTH",
"670 920 OFFCURVE",
"582 956 OFFCURVE",
"582 1026 CURVE SMOOTH",
"582 1088 OFFCURVE",
"642 1144 OFFCURVE",
"758 1144 CURVE SMOOTH",
"870 1144 OFFCURVE",
"938 1072 OFFCURVE",
"950 986 CURVE",
"1228 1074 LINE",
"1206 1238 OFFCURVE",
"1084 1424 OFFCURVE",
"778 1424 CURVE SMOOTH",
"460 1424 OFFCURVE",
"274 1244 OFFCURVE",
"274 1010 CURVE SMOOTH",
"274 736 OFFCURVE",
"476 652 OFFCURVE",
"642 582 CURVE SMOOTH",
"760 532 OFFCURVE",
"858 490 OFFCURVE",
"858 396 CURVE SMOOTH",
"858 316 OFFCURVE",
"774 270 OFFCURVE",
"668 270 CURVE SMOOTH",
"520 270 OFFCURVE",
"456 360 OFFCURVE",
"416 488 CURVE",
"136 386 LINE",
"198 152 OFFCURVE",
"354 -24 OFFCURVE",
"624 -24 CURVE SMOOTH"
);
}
);
width = 1178;
},
{
anchors = (
{
name = bottom;
position = "{604, 0}";
},
{
name = top;
position = "{588, 1400}";
}
);
layerId = "07B4BFD6-AD6C-43B6-9499-C92B9E22D320";
paths = (
{
closed = 1;
nodes = (
"868 -24 OFFCURVE",
"1064 122 OFFCURVE",
"1064 380 CURVE SMOOTH",
"1064 656 OFFCURVE",
"836 758 OFFCURVE",
"640 832 CURVE SMOOTH",
"482 892 OFFCURVE",
"338 948 OFFCURVE",
"338 1078 CURVE SMOOTH",
"338 1192 OFFCURVE",
"428 1262 OFFCURVE",
"576 1262 CURVE SMOOTH",
"714 1262 OFFCURVE",
"804 1198 OFFCURVE",
"838 1120 CURVE",
"998 1174 LINE",
"956 1318 OFFCURVE",
"810 1424 OFFCURVE",
"588 1424 CURVE SMOOTH",
"316 1424 OFFCURVE",
"158 1266 OFFCURVE",
"158 1078 CURVE SMOOTH",
"158 834 OFFCURVE",
"372 744 OFFCURVE",
"568 672 CURVE SMOOTH",
"732 612 OFFCURVE",
"884 538 OFFCURVE",
"884 376 CURVE SMOOTH",
"884 222 OFFCURVE",
"776 140 OFFCURVE",
"608 140 CURVE SMOOTH",
"454 140 OFFCURVE",
"336 224 OFFCURVE",
"280 348 CURVE",
"116 288 LINE",
"178 108 OFFCURVE",
"360 -24 OFFCURVE",
"604 -24 CURVE SMOOTH"
);
}
);
width = 1198;
},
{
anchors = (
{
name = bottom;
position = "{600, 0}";
},
{
name = top;
position = "{772, 1400}";
}
);
layerId = "77C27521-0479-4645-83A2-7244263DD4C5";
paths = (
{
closed = 1;
nodes = (
"880 -24 OFFCURVE",
"1090 132 OFFCURVE",
"1090 414 CURVE SMOOTH",
"1090 666 OFFCURVE",
"906 754 OFFCURVE",
"744 832 CURVE SMOOTH",
"618 892 OFFCURVE",
"508 946 OFFCURVE",
"508 1062 CURVE SMOOTH",
"508 1180 OFFCURVE",
"604 1268 OFFCURVE",
"764 1268 CURVE SMOOTH",
"898 1268 OFFCURVE",
"966 1202 OFFCURVE",
"1000 1122 CURVE",
"1154 1182 LINE",
"1116 1306 OFFCURVE",
"992 1424 OFFCURVE",
"776 1424 CURVE SMOOTH",
"506 1424 OFFCURVE",
"334 1264 OFFCURVE",
"334 1050 CURVE SMOOTH",
"334 836 OFFCURVE",
"498 754 OFFCURVE",
"652 678 CURVE SMOOTH",
"786 612 OFFCURVE",
"912 546 OFFCURVE",
"912 400 CURVE SMOOTH",
"912 228 OFFCURVE",
"796 136 OFFCURVE",
"614 136 CURVE SMOOTH",
"470 136 OFFCURVE",
"378 212 OFFCURVE",
"330 346 CURVE",
"172 286 LINE",
"220 112 OFFCURVE",
"368 -24 OFFCURVE",
"596 -24 CURVE SMOOTH"
);
}
);
width = 1146;
}
);
leftKerningGroup = S;
rightKerningGroup = S;
unicode = 0053;
},
{
glyphname = Saltillo;
lastChange = "2020-09-15 16:22:47 +0000";
layers = (
{
layerId = "3BB16070-9AE0-46D6-9B05-19A363C2D547";
paths = (
{
closed = 1;
nodes = (
"266 386 LINE",
"292 920 LINE",
"292 1400 LINE",
"220 1400 LINE",
"220 920 LINE",
"246 386 LINE"
);
}
);
width = 512;
},
{
layerId = "07B4BFD6-AD6C-43B6-9499-C92B9E22D320";
paths = (
{
closed = 1;
nodes = (
"312 386 LINE",
"372 986 LINE",
"372 1400 LINE",
"196 1400 LINE",
"196 986 LINE",
"254 386 LINE"
);
}
);
width = 568;
},
{
layerId = "1D708A55-1947-4475-A0A3-21124B6DD42B";
paths = (
{
closed = 1;
nodes = (
"398 386 LINE",
"462 966 LINE",
"462 1400 LINE",
"146 1400 LINE",
"146 966 LINE",
"210 386 LINE"
);
}
);
width = 608;
},
{
layerId = "42555ED7-786B-4551-A9FC-B380F510FD49";
paths = (
{
closed = 1;
nodes = (
"290 386 LINE",
"414 920 LINE",
"498 1400 LINE",
"420 1400 LINE",
"336 920 LINE",
"270 386 LINE"
);
}
);
width = 498;
},
{
layerId = "77C27521-0479-4645-83A2-7244263DD4C5";
paths = (
{
closed = 1;
nodes = (
"357 386 LINE",
"521 986 LINE",
"595 1400 LINE",
"429 1400 LINE",
"355 986 LINE",
"305 386 LINE"
);
}
);
width = 528;
},
{
layerId = "DEEEE81F-2F80-4306-8755-EEA92C96C68A";
paths = (
{
closed = 1;
nodes = (
"426 386 LINE",
"594 968 LINE",
"672 1400 LINE",
"366 1400 LINE",
"290 968 LINE",
"254 386 LINE"
);
}
);
width = 543;
}
);
leftMetricsKey = I;
rightMetricsKey = I;
unicode = A78B;
},
{
glyphname = Germandbls;
lastChange = "2021-07-22 21:23:31 +0000";
layers = (
{
anchors = (
{
name = bottom;
position = "{750, 0}";
},
{
name = top;
position = "{616, 1400}";
}
);
layerId = "3BB16070-9AE0-46D6-9B05-19A363C2D547";
paths = (
{
closed = 1;
nodes = (
"292 0 LINE",
"292 1334 LINE",
"924 1334 LINE",
"1010 1358 LINE",
"1010 1400 LINE",
"220 1400 LINE",
"220 0 LINE"
);
},
{
closed = 1;
nodes = (
"988 -24 OFFCURVE",
"1158 110 OFFCURVE",
"1158 346 CURVE SMOOTH",
"1158 534 OFFCURVE",
"1051 628 OFFCURVE",
"946 720 CURVE SMOOTH",
"854 800 OFFCURVE",
"768 880 OFFCURVE",
"768 1022 CURVE SMOOTH",
"768 1158 OFFCURVE",
"860 1304 OFFCURVE",
"1010 1338 CURVE",
"1010 1390 LINE",
"810 1352 OFFCURVE",
"692 1184 OFFCURVE",
"692 1026 CURVE SMOOTH",
"692 848 OFFCURVE",
"796 756 OFFCURVE",
"896 668 CURVE SMOOTH",
"991 584 OFFCURVE",
"1082 500 OFFCURVE",
"1082 348 CURVE SMOOTH",
"1082 150 OFFCURVE",
"950 46 OFFCURVE",
"752 46 CURVE SMOOTH",
"654 46 OFFCURVE",
"568 80 OFFCURVE",
"500 140 CURVE",
"450 82 LINE",
"530 18 OFFCURVE",
"634 -24 OFFCURVE",
"750 -24 CURVE SMOOTH"
);
}
);
width = 1318;
},
{
anchors = (
{
name = bottom;
position = "{812, 0}";
},
{
name = top;
position = "{630, 1400}";
}
);
layerId = "07B4BFD6-AD6C-43B6-9499-C92B9E22D320";
paths = (
{
closed = 1;
nodes = (
"370 0 LINE",
"370 1236 LINE",
"898 1236 LINE",
"1062 1246 LINE",
"1062 1400 LINE",
"196 1400 LINE",
"196 0 LINE"
);
},
{
closed = 1;
nodes = (
"1054 -24 OFFCURVE",
"1250 122 OFFCURVE",
"1250 380 CURVE SMOOTH",
"1250 564 OFFCURVE",
"1135 672 OFFCURVE",
"1028 772 CURVE SMOOTH",
"941 853 OFFCURVE",
"872 928 OFFCURVE",
"872 1032 CURVE SMOOTH",
"872 1134 OFFCURVE",
"930 1220 OFFCURVE",
"1062 1246 CURVE",
"1062 1362 LINE",
"842 1338 OFFCURVE",
"692 1204 OFFCURVE",
"692 1002 CURVE SMOOTH",
"692 836 OFFCURVE",
"795 735 OFFCURVE",
"900 640 CURVE SMOOTH",
"988 560 OFFCURVE",
"1070 484 OFFCURVE",
"1070 376 CURVE SMOOTH",
"1070 222 OFFCURVE",
"962 140 OFFCURVE",
"816 140 CURVE SMOOTH",
"726 140 OFFCURVE",
"640 178 OFFCURVE",
"580 224 CURVE",
"466 90 LINE",
"552 26 OFFCURVE",
"678 -24 OFFCURVE",
"812 -24 CURVE SMOOTH"
);
}
);
width = 1384;
},
{
anchors = (
{
name = bottom;
position = "{928, 0}";
},
{
name = top;
position = "{690, 1400}";
}
);
layerId = "1D708A55-1947-4475-A0A3-21124B6DD42B";
paths = (
{
closed = 1;
nodes = (
"462 0 LINE",
"462 1100 LINE",
"946 1100 LINE",
"1234 1150 LINE",
"1234 1400 LINE",
"146 1400 LINE",
"146 0 LINE"
);
},
{
closed = 1;
nodes = (
"1228 -24 OFFCURVE",
"1434 140 OFFCURVE",
"1434 424 CURVE SMOOTH",
"1434 654 OFFCURVE",
"1302 746 OFFCURVE",
"1182 826 CURVE SMOOTH",
"1098 882 OFFCURVE",
"1048 930 OFFCURVE",
"1048 998 CURVE SMOOTH",
"1048 1068 OFFCURVE",
"1118 1132 OFFCURVE",
"1234 1140 CURVE",
"1234 1280 LINE",
"1056 1260 OFFCURVE",
"734 1162 OFFCURVE",
"734 940 CURVE SMOOTH",
"734 778 OFFCURVE",
"846 692 OFFCURVE",
"964 612 CURVE SMOOTH",
"1056 550 OFFCURVE",
"1120 506 OFFCURVE",
"1120 426 CURVE SMOOTH",
"1120 326 OFFCURVE",
"1054 274 OFFCURVE",
"956 274 CURVE SMOOTH",
"872 274 OFFCURVE",
"798 310 OFFCURVE",
"740 364 CURVE",
"550 126 LINE",
"650 32 OFFCURVE",
"780 -24 OFFCURVE",
"948 -24 CURVE SMOOTH"
);
}
);
width = 1518;
},
{
anchors = (
{
name = bottom;
position = "{750, 0}";
},
{
name = top;
position = "{822, 1400}";
}
);
layerId = "42555ED7-786B-4551-A9FC-B380F510FD49";
paths = (
{
closed = 1;
nodes = (
"246 0 LINE",
"482 1334 LINE",
"1134 1334 LINE",
"1214 1358 LINE",
"1220 1400 LINE",
"420 1400 LINE",
"174 0 LINE"
);
},
{
closed = 1;
nodes = (
"1016 -24 OFFCURVE",
"1200 146 OFFCURVE",
"1200 406 CURVE SMOOTH",
"1200 558 OFFCURVE",
"1122 640 OFFCURVE",
"1044 718 CURVE SMOOTH",
"976 786 OFFCURVE",
"916 854 OFFCURVE",
"916 960 CURVE SMOOTH",
"916 1114 OFFCURVE",
"1046 1300 OFFCURVE",
"1212 1338 CURVE",
"1216 1390 LINE",
"1018 1352 OFFCURVE",
"842 1170 OFFCURVE",
"842 960 CURVE SMOOTH",
"842 826 OFFCURVE",
"922 740 OFFCURVE",
"992 668 CURVE SMOOTH",
"1060 598 OFFCURVE",
"1124 526 OFFCURVE",
"1124 402 CURVE SMOOTH",
"1124 182 OFFCURVE",
"974 46 OFFCURVE",
"760 46 CURVE SMOOTH",
"634 46 OFFCURVE",
"556 86 OFFCURVE",
"498 146 CURVE",
"444 94 LINE",
"508 28 OFFCURVE",
"606 -24 OFFCURVE",
"750 -24 CURVE SMOOTH"
);
}
);
width = 1325;
},
{
anchors = (
{
name = bottom;
position = "{996, 0}";
},
{
name = top;
position = "{880, 1400}";
}
);
layerId = "DEEEE81F-2F80-4306-8755-EEA92C96C68A";
paths = (
{
closed = 1;
nodes = (
"436 0 LINE",
"630 1100 LINE",
"1094 1100 LINE",
"1350 1140 LINE",
"1396 1400 LINE",
"368 1400 LINE",
"120 0 LINE"
);
},
{
closed = 1;
nodes = (
"1304 -24 OFFCURVE",
"1526 148 OFFCURVE",
"1526 432 CURVE SMOOTH",
"1526 638 OFFCURVE",
"1420 764 OFFCURVE",
"1306 846 CURVE SMOOTH",
"1236 896 OFFCURVE",
"1174 942 OFFCURVE",
"1174 1002 CURVE SMOOTH",
"1174 1082 OFFCURVE",
"1264 1120 OFFCURVE",
"1350 1140 CURVE",
"1374 1280 LINE",
"1222 1258 OFFCURVE",
"862 1170 OFFCURVE",
"862 910 CURVE SMOOTH",
"862 778 OFFCURVE",
"958 700 OFFCURVE",
"1050 632 CURVE SMOOTH",
"1132 572 OFFCURVE",
"1206 496 OFFCURVE",
"1206 420 CURVE SMOOTH",
"1206 324 OFFCURVE",
"1132 270 OFFCURVE",
"1030 270 CURVE SMOOTH",
"946 270 OFFCURVE",
"864 300 OFFCURVE",
"804 374 CURVE",
"592 156 LINE",
"670 58 OFFCURVE",
"796 -24 OFFCURVE",
"994 -24 CURVE SMOOTH"
);
}
);
width = 1524;
},
{
anchors = (
{
name = bottom;
position = "{826, 0}";
},
{
name = top;
position = "{842, 1400}";
}
);
layerId = "77C27521-0479-4645-83A2-7244263DD4C5";
paths = (
{
closed = 1;
nodes = (
"340 0 LINE",
"560 1256 LINE",
"1094 1256 LINE",
"1232 1270 LINE",
"1256 1400 LINE",
"428 1400 LINE",
"182 0 LINE"
);
},
{
closed = 1;
nodes = (
"1094 -24 OFFCURVE",
"1288 142 OFFCURVE",
"1288 408 CURVE SMOOTH",
"1288 576 OFFCURVE",
"1206 670 OFFCURVE",
"1126 752 CURVE SMOOTH",
"1060 820 OFFCURVE",
"1006 894 OFFCURVE",
"1006 984 CURVE SMOOTH",
"1006 1128 OFFCURVE",
"1118 1236 OFFCURVE",
"1234 1264 CURVE",
"1246 1366 LINE",
"1016 1330 OFFCURVE",
"844 1180 OFFCURVE",
"844 958 CURVE SMOOTH",
"844 824 OFFCURVE",
"928 732 OFFCURVE",
"1006 652 CURVE SMOOTH",
"1074 582 OFFCURVE",
"1128 508 OFFCURVE",
"1128 396 CURVE SMOOTH",
"1128 230 OFFCURVE",
"1010 122 OFFCURVE",
"820 122 CURVE SMOOTH",
"732 122 OFFCURVE",
"654 152 OFFCURVE",
"602 202 CURVE",
"488 90 LINE",
"562 26 OFFCURVE",
"680 -24 OFFCURVE",
"820 -24 CURVE SMOOTH"
);
}
);
width = 1345;
}
);
leftKerningGroup = B;
rightKerningGroup = S;
rightMetricsKey = S;
unicode = 1E9E;
},
